<?xml version="1.0" encoding="utf-8"?>
<!-- Generator: Adobe Illustrator 27.6.1, SVG Export Plug-In . SVG Version: 6.00 Build 0)  -->
<svg version="1.1" id="Слой_1" xmlns="http://www.w3.org/2000/svg" xmlns:xlink="http://www.w3.org/1999/xlink" x="0px" y="0px"
	 viewBox="0 0 771.83 326.99" style="enable-background:new 0 0 771.83 326.99;" xml:space="preserve">
<g>
	<rect x="372.51" y="138.83" transform="matrix(0.809 -0.5878 0.5878 0.809 -8.1478 254.9901)" width="31.64" height="2.4"/>
	<rect x="261.76" y="119.81" transform="matrix(0.8661 -0.4998 0.4998 0.8661 -22.3918 158.4239)" width="45.59" height="2.4"/>
	<rect x="354.18" y="228.15" transform="matrix(0.5001 -0.866 0.866 0.5001 -10.154 441.1175)" width="45.59" height="2.4"/>
	<rect x="283.35" y="29.86" transform="matrix(0.5001 -0.866 0.866 0.5001 96.6439 272.7287)" width="2.4" height="45.59"/>
	<path d="M354.96,249.09l28.11-48.68h56.22l16.69,28.92l2.08-1.2l-16.77-29.06l11.15-34.37l-2.28-0.74l-11.05,34.05h-55.86
		l-17.26-53.14l29.73-21.61l-1.41-1.94l-29.81,21.66l-48.61-28.07V60.01v-2v-0.69l-0.6-0.35l0,0l-0.1-0.06l-1.62-0.94l0,0.01
		l-48.02-27.73l-0.74-0.43l-0.82,0.48l-49.06,28.32l-31.56-18.21l-1.2,2.08l31.56,18.21v54.91v2v0.69l2.32,1.35l0-0.01l47.94,27.68
		l0.82,0.48l0.74-0.43L314.69,117l48.88,28.22l17.49,53.85l-28.19,48.82h-39.55v2.4h39.55l16.69,28.92l2.08-1.2L354.96,249.09z
		 M313.49,60.01v54.91l-47.56,27.46l0-0.01l-1.12,0.65l-1.12-0.65l0,0.01l-47.56-27.46v-1.31V58.71l47.56-27.46l0,0.01l1.12-0.65
		l1.12,0.65l0-0.01l47.56,27.46V60.01z"/>
	<rect x="439.79" y="207.73" transform="matrix(0.8661 -0.4999 0.4999 0.8661 -51.8067 250.1739)" width="2.4" height="28.08"/>
	<rect x="224.13" y="64.05" width="2.4" height="45.56"/>
	<rect x="399.73" y="287.37" width="34.24" height="2.4"/>
	<polygon points="456.53,267.86 439.28,297.77 437.97,297.77 399.73,297.77 399.73,300.17 437.97,300.17 439.97,300.17 
		440.66,300.17 442.01,297.86 442,297.85 458.61,269.05 	"/>
	<path d="M115.17,56.63L66.03,28.26l-0.74-0.43l-2.36,1.34l0.01,0.01L14.8,56.96l-0.63,0.35v0.7v2v53.6v2v0.7l0.62,0.35l48.15,27.78
		l-0.01,0.01l2.36,1.34l0.74-0.43l49.65-28.67l0.69-0.39v-0.7v-2V58.71l31.56-18.21l-1.2-2.08L115.17,56.63z M113.97,113.61v1.3
		l-1.15,0.66l0.01,0.01l-46.41,26.8l0-0.01l-1.12,0.65l-47.57-27.45l0.01-0.01l-1.15-0.66v-1.3v-53.6v-1.3l1.15-0.66l-0.01-0.01
		L65.29,30.6l1.12,0.65l0-0.01l47.56,27.46V113.61z"/>
	<rect x="83.83" y="29.86" transform="matrix(0.5001 -0.866 0.866 0.5001 -3.0896 99.9556)" width="2.4" height="45.59"/>
	<rect x="62.24" y="119.81" transform="matrix(0.8661 -0.4998 0.4998 0.8661 -49.1013 58.7003)" width="45.59" height="2.4"/>
	<rect x="24.57" y="64.05" width="2.4" height="45.56"/>
	<rect x="433.27" y="118.66" transform="matrix(0.5887 -0.8084 0.8084 0.5887 75.6486 403.6575)" width="2.4" height="17.66"/>
	<polygon points="483.61,124.49 487.93,132.01 489.89,130.57 485.81,123.57 	"/>
	<polygon points="501.41,116.97 503.37,120.37 505.29,118.89 503.65,116.01 	"/>
	<polygon points="474.69,128.25 480.21,137.85 482.17,136.41 476.93,127.33 	"/>
	<polygon points="492.49,120.73 495.65,126.21 497.57,124.73 494.73,119.77 	"/>
	<polygon points="558.65,142.38 558.65,142.38 557.53,143.02 556.42,142.38 556.41,142.38 508.85,114.92 508.85,113.61 
		508.85,60.01 508.85,58.71 556.41,31.25 556.42,31.25 557.53,30.6 558.65,31.25 558.65,31.25 606.21,58.71 606.21,60.01 
		606.21,94.41 608.61,94.41 608.61,60.01 608.61,58.01 608.61,57.32 606.3,55.98 606.29,55.98 558.36,28.3 557.53,27.83 
		556.79,28.25 508.77,55.98 508.77,55.98 507.15,56.92 507.05,56.97 507.05,56.97 506.45,57.32 506.45,58.01 506.45,60.01 
		506.45,113.61 506.45,115.61 506.45,116.3 507.05,116.65 507.05,116.65 507.15,116.71 508.77,117.65 508.77,117.64 556.79,145.37 
		557.53,145.8 558.33,145.34 591.49,126.21 590.29,124.13 	"/>
	<polygon points="709.52,115.58 709.53,115.57 707.17,114.23 706.43,114.66 657.3,143.03 656.18,142.38 656.17,142.38 
		624.53,124.13 623.33,126.21 650.89,142.11 650.89,180.57 653.29,180.57 653.29,143.49 656.49,145.34 657.28,145.8 659.65,144.46 
		659.64,144.44 661.29,143.49 661.29,180.57 663.69,180.57 663.69,142.1 706.05,117.64 706.06,117.65 707.18,117 756.45,145.45 
		757.65,143.37 	"/>
	<rect x="725.71" y="116.26" transform="matrix(0.5001 -0.866 0.866 0.5001 242.9604 698.9904)" width="2.4" height="45.59"/>
	<polygon points="403.77,102.05 403.85,102.05 418.25,124.41 422.13,124.41 422.13,95.77 418.57,95.77 418.57,118.09 418.49,118.09 
		404.09,95.77 400.21,95.77 400.21,124.41 403.77,124.41 	"/>
	<polygon points="303.37,256.61 303.29,256.61 288.89,234.29 285.01,234.29 285.01,262.93 288.57,262.93 288.57,240.57 
		288.65,240.57 303.05,262.93 306.93,262.93 306.93,234.29 303.37,234.29 	"/>
	<polygon points="259.89,246.05 245.85,246.05 245.85,234.29 242.05,234.29 242.05,262.93 245.85,262.93 245.85,249.45 
		259.89,249.45 259.89,262.93 263.73,262.93 263.73,234.29 259.89,234.29 	"/>
	<path d="M272.25,265.49c0.68-0.68,1.76-1.6,1.76-1.6l1.84-1.52c2.52-2.08,3.8-3.92,3.8-3.92c1.28-1.84,1.28-3.72,1.28-3.72
		c0-1.52-0.76-2.8-0.76-2.8c-0.76-1.24-2.16-1.96-2.16-1.96c-1.4-0.72-3.32-0.72-3.32-0.72c-1.84,0-3.24,0.68-3.24,0.68
		c-1.44,0.68-2.28,1.96-2.28,1.96c-0.84,1.28-1,3.04-1,3.04l2.56,0.4c0.12-2,1.12-3.04,1.12-3.04c1.04-1.04,2.8-1.04,2.8-1.04
		c1.08,0,1.92,0.44,1.92,0.44c0.88,0.44,1.36,1.24,1.36,1.24c0.48,0.76,0.48,1.72,0.48,1.72c0,1.4-1.04,2.88-1.04,2.88
		c-1.08,1.48-3.36,3.4-3.36,3.4l-1.6,1.32c-2.4,1.96-3.52,3.64-3.52,3.64c-1.16,1.64-1.16,3.4-1.16,3.4h13.28v-2.4h-9.88
		C271.57,266.13,272.25,265.49,272.25,265.49z"/>
	<polygon points="389.77,306.53 389.69,306.53 375.29,284.17 371.41,284.17 371.41,312.81 374.97,312.81 374.97,290.45 
		375.05,290.45 389.45,312.81 393.33,312.81 393.33,284.17 389.77,284.17 	"/>
	<polygon points="476.17,256.61 476.09,256.61 461.69,234.29 457.81,234.29 457.81,262.93 461.37,262.93 461.37,240.57 
		461.45,240.57 475.85,262.93 479.73,262.93 479.73,234.29 476.17,234.29 	"/>
	<path d="M172.09,16.01c-3.12-1.84-7.04-1.84-7.04-1.84c-3.88,0-7.04,1.84-7.04,1.84c-3.12,1.84-4.88,5.2-4.88,5.2
		c-1.8,3.4-1.8,7.8-1.8,7.8c0,4.36,1.8,7.72,1.8,7.72c1.76,3.36,4.88,5.2,4.88,5.2c3.12,1.84,7.04,1.84,7.04,1.84
		c3.92,0,7.04-1.8,7.04-1.8c3.08-1.84,4.88-5.2,4.88-5.2c1.76-3.36,1.76-7.8,1.76-7.8c0-4.48-1.76-7.8-1.76-7.8
		C175.17,17.81,172.09,16.01,172.09,16.01z M173.57,35.21c-1.24,2.6-3.48,3.96-3.48,3.96c-2.2,1.36-5.08,1.36-5.08,1.36
		c-2.8,0-5.04-1.36-5.04-1.36c-2.2-1.36-3.44-3.96-3.44-3.96c-1.28-2.56-1.28-6.12-1.28-6.12c0-3.6,1.24-6.24,1.24-6.24
		c1.24-2.64,3.44-4.04,3.44-4.04c2.24-1.4,5.08-1.4,5.08-1.4c2.92,0,5.12,1.4,5.12,1.4c2.24,1.44,3.44,4.04,3.44,4.04
		c1.24,2.64,1.24,6.2,1.24,6.2C174.81,32.61,173.57,35.21,173.57,35.21z"/>
	<polygon points="450.37,135.89 450.45,135.89 464.85,158.25 468.73,158.25 468.73,129.61 465.17,129.61 465.17,151.97 
		465.09,151.97 450.69,129.61 446.81,129.61 446.81,158.25 450.37,158.25 	"/>
	<polygon points="614.81,123.17 614.73,123.17 600.33,100.81 596.45,100.81 596.45,129.45 600.05,129.45 600.05,107.09 
		600.13,107.09 614.49,129.45 618.41,129.45 618.41,100.81 614.81,100.81 	"/>
	<path d="M664.33,188.81c-3.08-1.84-7-1.84-7-1.84c-3.92,0-7.04,1.84-7.04,1.84c-3.12,1.84-4.92,5.2-4.92,5.2
		c-1.76,3.4-1.76,7.8-1.76,7.8c0,4.36,1.76,7.72,1.76,7.72c1.8,3.36,4.92,5.2,4.92,5.2c3.12,1.84,7.04,1.84,7.04,1.84
		c3.92,0,7-1.8,7-1.8c3.12-1.84,4.88-5.2,4.88-5.2c1.8-3.36,1.8-7.8,1.8-7.8c0-4.48-1.8-7.8-1.8-7.8
		C667.45,190.61,664.33,188.81,664.33,188.81z M665.81,208.01c-1.24,2.6-3.44,3.96-3.44,3.96c-2.24,1.36-5.08,1.36-5.08,1.36
		c-2.84,0-5.04-1.36-5.04-1.36c-2.24-1.36-3.48-3.96-3.48-3.96c-1.24-2.56-1.24-6.12-1.24-6.12c0-3.6,1.24-6.24,1.24-6.24
		c1.2-2.64,3.44-4.04,3.44-4.04c2.2-1.4,5.08-1.4,5.08-1.4c2.88,0,5.12,1.4,5.12,1.4c2.2,1.44,3.44,4.04,3.44,4.04
		c1.24,2.64,1.24,6.2,1.24,6.2C667.09,205.41,665.81,208.01,665.81,208.01z"/>
</g>
</svg>
