<?xml version="1.0" encoding="utf-8"?>
<!-- Generator: Adobe Illustrator 19.2.1, SVG Export Plug-In . SVG Version: 6.00 Build 0)  -->
<svg version="1.1" id="Слой_1" xmlns="http://www.w3.org/2000/svg" xmlns:xlink="http://www.w3.org/1999/xlink" x="0px" y="0px"
	 viewBox="0 0 881.7 565.1" style="enable-background:new 0 0 881.7 565.1;" xml:space="preserve">
<g>
	<polygon points="267.1,485.7 277.2,485.7 276.9,483.3 267.3,483.3 	"/>
	<polygon points="266,495.3 278.3,495.3 278,492.9 266.3,492.9 	"/>
	<polygon points="270.5,454.5 270.3,456.9 274,456.9 273.7,454.5 	"/>
	<polygon points="268.1,476.1 276.1,476.1 275.9,473.7 268.4,473.7 	"/>
	<polygon points="265.2,502.5 264.9,504.9 279.3,504.9 279.1,502.5 	"/>
	<polygon points="269.2,466.5 275.1,466.5 274.8,464.1 269.5,464.1 	"/>
	<polygon points="213,392.7 212.2,390.4 199.8,397.5 201.4,399.4 	"/>
	<polygon points="216.1,401.5 215.3,399.2 205.9,404.7 207.5,406.5 	"/>
	<polygon points="219.3,410.3 218.5,408 211.9,411.8 213.5,413.6 	"/>
	<rect x="182.3" y="321.2" width="22.3" height="2.4"/>
	<rect x="162" y="269.3" transform="matrix(0.9511 -0.309 0.309 0.9511 -79.8513 64.3359)" width="2.4" height="29.9"/>
	<polygon points="176.4,244.7 146.2,266.6 146.2,266.6 145.4,267.1 145.7,267.9 145.7,267.9 156.8,302.1 159.1,301.3 148.6,269.1 
		148.6,269.1 148.3,268 149.2,267.4 149.2,267.4 177.8,246.6 	"/>
	<rect x="215.3" y="247.6" transform="matrix(0.5879 -0.809 0.809 0.5879 -123.7465 283.6169)" width="2.4" height="31.3"/>
	<rect x="119.4" y="512.7" transform="matrix(0.8661 -0.4998 0.4998 0.8661 -237.8304 139.9029)" width="45.6" height="2.4"/>
	<rect x="81.8" y="456.9" width="2.4" height="45.6"/>
	<rect x="141.1" y="422.7" transform="matrix(0.4997 -0.8662 0.8662 0.4997 -314.7156 346.0961)" width="2.4" height="45.6"/>
	<path d="M323.3,384h-2.4v37.5l-48.7,28.1l-1.1-0.7l0,0l-47-27.1l31.9-43.5l-7.6-13.2l0,0l-13.9-24.1l-2.1,1.2l14.7,25.6L222.4,419
		l-0.8-2.2l-3.6,2.1l1.6,1.9l2.8-1.6l-1,2.1l-49,28.3l-47.5-27.4l0,0l-1.7-1l0,0l0,0l-0.6-0.3l-0.6,0.3l0,0l-49.3,28.5l-38.2-22.1
		l-1.2,2.1l38.2,22.1v54.9v2v0.7l2.3,1.3l0,0l48.2,27.8l0,0l0.6,0.3l0.6-0.3l0,0l0,0l1.7-1l0,0l47.5-27.4l35.2,20.3l1.2-2.1
		l-35.2-20.3v-56.2l48.7-28.1l49.3,28.5l0,0l0.6,0.3l2.4-1.3l0,0l47.7-27.5l36.9,12l0.7-2.3l-36.6-11.9V384z M222.3,422.1
		L222.3,422.1L222.3,422.1L222.3,422.1z M73.8,451.6l47.6-27.5l0,0l1.1-0.7l48.7,28.1v56.2L122.5,536l-1.1-0.7l0,0l-47.6-27.5v-1.3
		V451.6z"/>
	<rect x="384.2" y="353.3" transform="matrix(0.8089 -0.588 0.588 0.8089 -147.5014 298.4903)" width="2.4" height="45.6"/>
	<rect x="345.6" y="402.6" transform="matrix(0.309 -0.9511 0.9511 0.309 -159.0911 619.5462)" width="2.4" height="33.4"/>
	<rect x="468.8" y="372.4" transform="matrix(0.4997 -0.8662 0.8662 0.4997 -77.6221 612.7587)" width="45.6" height="2.4"/>
	<rect x="558.9" y="350.8" transform="matrix(0.8662 -0.4997 0.4997 0.8662 -111.7366 329.897)" width="2.4" height="45.6"/>
	<rect x="503.1" y="431.7" width="45.6" height="2.4"/>
	<path d="M584.2,392.1l-27.5-47.6l0,0l-1.3-2.3h-0.7h-2h-53.6h-2h-0.7l-1.3,2.3l0,0l-27.5,47.6h-56.3L377.8,346l0,0l-0.5-0.7
		l-0.8,0.3v0l0,0l-1.9,0.6l0,0L338,358.1l0.7,2.3l37.6-12.2l0.6,0.9l0,0l32.2,44.3l-19,26.1l1.9,1.4l19.2-26.3h56.3l27.5,47.6l0,0
		l1.3,2.3h0.7h2h53.6h2h0.7l1.3-2.3l0,0l27.5-47.6h56.9H681v-2.4h-39.9H584.2z M499.1,442h-1.3l-28.1-48.7l28.1-48.7h1.3h53.6h1.3
		l28.1,48.7L554,442h-1.3H499.1z"/>
	<rect x="641.1" y="402.5" width="39.9" height="2.4"/>
	<rect x="641.1" y="381.8" width="39.9" height="2.4"/>
	<polygon points="192.3,212.8 194.7,212.8 194.7,176.8 225.7,158.9 224.5,156.8 193.5,174.8 144.2,146.3 143,148.4 192.3,176.8 	"/>
	<polygon points="286.9,212.5 289.3,212.5 289.3,175.2 290.9,176.2 290.9,176.2 293.3,177.5 293.9,177.2 293.9,177.2 297.2,175.2 
		297.2,212.5 299.6,212.5 299.6,173.8 326.9,158.1 325.7,156 294.4,174.1 294.4,174.1 293.3,174.8 259.3,155.2 258.1,157.3 
		286.9,173.8 	"/>
	<rect x="341.9" y="89.7" width="2.4" height="36.6"/>
	<polygon points="391.8,212.8 394.2,212.8 394.2,176.8 442.9,148.7 491.6,176.8 491.6,178.1 491.6,231.7 491.6,233 444,260.5 
		444,260.5 442.9,261.1 441.8,260.5 441.8,260.5 410.4,242.4 409.2,244.5 442.3,263.6 442.3,263.6 442.9,263.9 443.6,263.5 
		491.7,235.8 491.7,235.8 494,234.4 494,233.7 494,231.7 494,178.1 494,176.1 494,175.4 491.7,174.1 491.7,174.1 444.1,146.6 
		444.1,91.7 444.1,90.4 475.1,72.5 473.9,70.4 444,87.7 444,87.7 441.7,89 441.7,89.7 441.7,91.7 441.7,146.6 393,174.8 360.5,156 
		359.3,158.1 391.8,176.8 	"/>
	<rect x="402.2" y="182.1" width="2.4" height="30.7"/>
	<rect x="439.8" y="237.9" transform="matrix(0.8662 -0.4997 0.4997 0.8662 -57.5921 263.2007)" width="45.6" height="2.4"/>
	<rect x="461.5" y="147.9" transform="matrix(0.4997 -0.8662 0.8662 0.4997 83.6047 486.1474)" width="2.4" height="45.6"/>
	<polygon points="536.3,126.1 538.7,126.1 538.7,88.8 542,90.8 542.7,91.1 543.3,90.8 543.3,90.8 546.7,88.8 546.7,126.1 
		549.1,126.1 549.1,87.4 576.3,71.7 575.1,69.6 543.8,87.7 543.8,87.7 542.7,88.3 541.5,87.7 541.5,87.7 508.7,68.8 507.5,70.9 
		536.3,87.4 	"/>
	<rect x="624.7" y="61.1" transform="matrix(0.5004 -0.8658 0.8658 0.5004 243.2609 581.9304)" width="2.4" height="38.2"/>
	<path d="M312.3,357.7c0,3.8,2.3,6.1,7.5,7.4l3.6,1c3.8,1,5.4,2.4,5.4,4.8c0,2.8-2.8,4.8-6.6,4.8c-4,0-6.9-2-7.2-5.1h-3.6
		c0.3,5,4.5,8.2,10.4,8.2c6.5,0,10.6-3.2,10.6-8.4c0-4-2.4-6.3-8.2-7.7l-3-0.8c-3.8-1-5.4-2.3-5.4-4.4c0-2.8,2.6-4.6,6.2-4.6
		c3.7,0,6.1,1.8,6.4,4.9h3.5c-0.2-4.7-4.2-8-9.8-8C316.5,349.7,312.3,353,312.3,357.7z"/>
	<polygon points="384.6,447.5 384.4,447.5 369,425.4 365.6,425.4 365.6,453.5 369.1,453.5 369.1,431.5 369.2,431.5 384.7,453.5 
		388.1,453.5 388.1,425.4 384.6,425.4 	"/>
	<path d="M193.5,386.6c8,0,13-5.6,13-14.6s-5-14.6-13-14.6c-8,0-13,5.6-13,14.6S185.5,386.6,193.5,386.6z M193.5,360.7
		c5.8,0,9.4,4.4,9.4,11.3c0,6.9-3.6,11.3-9.4,11.3s-9.4-4.4-9.4-11.3C184.1,365.1,187.7,360.7,193.5,360.7z"/>
	<polygon points="176.5,386.1 176.5,357.9 173,357.9 173,370.1 157.5,370.1 157.5,357.9 154,357.9 154,386.1 157.5,386.1 
		157.5,373.3 173,373.3 173,386.1 	"/>
	<polygon points="233.5,336 233.5,307.8 230.1,307.8 230.1,329.9 229.9,329.9 214.5,307.8 211,307.8 211,336 214.5,336 214.5,313.9 
		214.7,313.9 230.1,336 	"/>
	<polygon points="213.7,550.9 217.2,550.9 217.2,538.7 229.7,538.7 229.7,535.6 217.2,535.6 217.2,525.9 230.8,525.9 230.8,522.8 
		213.7,522.8 	"/>
	<polygon points="153.4,307.8 153.4,336 156.9,336 156.9,313.9 157.1,313.9 172.5,336 175.9,336 175.9,307.8 172.5,307.8 
		172.5,329.9 172.3,329.9 156.9,307.8 	"/>
	<polygon points="240.6,269.9 241.5,267.1 240.8,266.6 240.8,266.6 210.6,244.7 209.2,246.6 237.8,267.4 237.8,267.4 238.6,268 
		227.8,301.3 230.1,302.1 240.6,269.8 	"/>
	<polygon points="201.3,241.3 201.1,241.3 185.7,219.2 182.2,219.2 182.2,247.3 185.7,247.3 185.7,225.3 185.9,225.3 201.3,247.3 
		204.7,247.3 204.7,219.2 201.3,219.2 	"/>
	<polygon points="219.9,226.5 222.5,226.5 222.5,219 229.5,219 229.5,216.3 222.5,216.3 222.5,209 219.9,209 219.9,216.3 
		212.9,216.3 212.9,219 219.9,219 	"/>
	<path d="M221.2,230.9c7.3,0,13.2-5.9,13.2-13.1c0-7.3-5.9-13.2-13.2-13.2s-13.2,5.9-13.2,13.2C208,225,213.9,230.9,221.2,230.9z
		 M221.2,207c5.9,0,10.8,4.8,10.8,10.8c0,5.9-4.8,10.7-10.8,10.7s-10.8-4.8-10.8-10.7C210.4,211.8,215.2,207,221.2,207z"/>
	<polygon points="706.5,378.8 706.5,400.9 706.3,400.9 690.9,378.8 687.4,378.8 687.4,406.9 690.9,406.9 690.9,384.9 691.1,384.9 
		706.5,406.9 709.9,406.9 709.9,378.8 	"/>
	<polygon points="14.2,435.7 17.7,435.7 17.7,423.5 30.2,423.5 30.2,420.4 17.7,420.4 17.7,410.7 31.3,410.7 31.3,407.6 14.2,407.6 
			"/>
	<path d="M243.3,161.7c8,0,13-5.6,13-14.6c0-9-5-14.6-13-14.6c-8,0-13,5.6-13,14.6C230.4,156.1,235.4,161.7,243.3,161.7z
		 M243.3,135.8c5.8,0,9.4,4.4,9.4,11.3c0,6.9-3.6,11.3-9.4,11.3c-5.8,0-9.4-4.4-9.4-11.3C234,140.1,237.6,135.8,243.3,135.8z"/>
	<polygon points="335.3,138.9 335.5,138.9 350.9,160.9 354.4,160.9 354.4,132.8 350.9,132.8 350.9,154.9 350.7,154.9 335.3,132.8 
		331.9,132.8 331.9,160.9 335.3,160.9 	"/>
	<path d="M280.3,233.5c0,9,5,14.6,13,14.6c8,0,13-5.6,13-14.6c0-9-5-14.6-13-14.6C285.3,218.9,280.3,224.5,280.3,233.5z
		 M302.6,233.5c0,6.9-3.6,11.3-9.4,11.3s-9.4-4.4-9.4-11.3c0-7,3.6-11.3,9.4-11.3S302.6,226.5,302.6,233.5z"/>
	<polygon points="400.8,241.3 400.6,241.3 385.2,219.2 381.7,219.2 381.7,247.3 385.2,247.3 385.2,225.3 385.4,225.3 400.9,247.3 
		404.3,247.3 404.3,219.2 400.8,219.2 	"/>
	<path d="M492.8,75.3c8,0,13-5.6,13-14.6s-5-14.6-13-14.6s-13,5.6-13,14.6S484.8,75.3,492.8,75.3z M492.8,49.4
		c5.8,0,9.4,4.4,9.4,11.3c0,6.9-3.6,11.3-9.4,11.3s-9.4-4.4-9.4-11.3C483.4,53.7,487,49.4,492.8,49.4z"/>
	<polygon points="584.8,52.5 584.9,52.5 600.4,74.5 603.8,74.5 603.8,46.4 600.3,46.4 600.3,68.5 600.1,68.5 584.7,46.4 581.3,46.4 
		581.3,74.5 584.8,74.5 	"/>
	<polygon points="584.8,29.5 600.3,29.5 600.3,42.4 603.8,42.4 603.8,14.2 600.3,14.2 600.3,26.4 584.8,26.4 584.8,14.2 581.3,14.2 
		581.3,42.4 584.8,42.4 	"/>
	<path d="M529.7,147.1c0,9,5,14.6,13,14.6s13-5.6,13-14.6c0-9-5-14.6-13-14.6S529.7,138.1,529.7,147.1z M552,147.1
		c0,6.9-3.6,11.3-9.4,11.3c-5.8,0-9.4-4.4-9.4-11.3c0-7,3.6-11.3,9.4-11.3C548.4,135.8,552,140.1,552,147.1z"/>
</g>
<g>
	<rect x="748.5" y="212.5" transform="matrix(0.4996 -0.8662 0.8662 0.4996 181.0051 761.5149)" width="2.4" height="23.1"/>
	<rect x="753.7" y="203.5" transform="matrix(0.4997 -0.8662 0.8662 0.4997 191.3821 761.4945)" width="2.4" height="23.1"/>
	<rect x="793.9" y="223.3" transform="matrix(0.8658 -0.5003 0.5003 0.8658 -4.598 431.9285)" width="18.4" height="2.4"/>
	<rect x="788.7" y="214.4" transform="matrix(0.8658 -0.5003 0.5003 0.8658 -0.8127 428.1244)" width="18.4" height="2.4"/>
	<rect x="743.8" y="246.3" transform="matrix(0.8658 -0.5004 0.5004 0.8658 -22.8123 409.9823)" width="18.2" height="2.4"/>
	<rect x="800.3" y="236.7" transform="matrix(0.499 -0.8666 0.8666 0.499 186.6588 818.7812)" width="2.4" height="22.5"/>
	<path d="M726.9,219.3c8,0,13-5.6,13-14.6c0-9-5-14.6-13-14.6s-13,5.6-13,14.6C713.9,213.7,718.9,219.3,726.9,219.3z M726.9,193.4
		c5.8,0,9.4,4.4,9.4,11.3c0,6.9-3.6,11.3-9.4,11.3s-9.4-4.4-9.4-11.3C717.5,197.7,721.1,193.4,726.9,193.4z"/>
	<path d="M779.1,231.9l-2.9-0.8c-3.8-1-5.4-2.3-5.4-4.4c0-2.8,2.5-4.6,6.2-4.6s6.1,1.8,6.4,4.9h3.5c-0.2-4.7-4.2-8-9.8-8
		c-5.9,0-10,3.3-10,8c0,3.8,2.3,6.1,7.5,7.4l3.6,0.9c3.8,1,5.5,2.4,5.5,4.8c0,2.8-2.8,4.8-6.6,4.8c-4,0-6.9-2-7.2-5.1h-3.5
		c0.3,5,4.4,8.2,10.4,8.2c6.5,0,10.6-3.2,10.6-8.4C787.3,235.6,784.9,233.4,779.1,231.9z"/>
	<path d="M826.7,190.1c-8,0-13,5.6-13,14.6c0,9,5,14.6,13,14.6s13-5.6,13-14.6C839.7,195.7,834.7,190.1,826.7,190.1z M826.7,216
		c-5.8,0-9.4-4.4-9.4-11.3c0-7,3.6-11.3,9.4-11.3s9.4,4.4,9.4,11.3C836.1,211.6,832.4,216,826.7,216z"/>
	<path d="M726.9,247.7c-8,0-13,5.6-13,14.6c0,9,5,14.6,13,14.6s13-5.6,13-14.6C739.9,253.3,734.9,247.7,726.9,247.7z M726.9,273.6
		c-5.8,0-9.4-4.4-9.4-11.3c0-7,3.6-11.3,9.4-11.3s9.4,4.4,9.4,11.3C736.3,269.2,732.7,273.6,726.9,273.6z"/>
	<polygon points="706.4,260.4 690.9,260.4 690.9,248.2 687.4,248.2 687.4,276.4 690.9,276.4 690.9,263.5 706.4,263.5 706.4,276.4 
		709.9,276.4 709.9,248.2 706.4,248.2 	"/>
	<path d="M826.7,247.7c-8,0-13,5.6-13,14.6c0,9,5,14.6,13,14.6s13-5.6,13-14.6C839.7,253.3,834.7,247.7,826.7,247.7z M826.7,273.6
		c-5.8,0-9.4-4.4-9.4-11.3c0-7,3.6-11.3,9.4-11.3s9.4,4.4,9.4,11.3C836.1,269.2,832.4,273.6,826.7,273.6z"/>
	<rect x="846" y="245.2" width="16.8" height="2.7"/>
	<path d="M854.4,233.4c-7.3,0-13.2,5.9-13.2,13.2c0,7.2,5.9,13.1,13.2,13.1s13.2-5.9,13.2-13.1C867.5,239.3,861.6,233.4,854.4,233.4
		z M854.4,257.3c-5.9,0-10.8-4.8-10.8-10.7c0-5.9,4.8-10.8,10.8-10.8s10.8,4.8,10.8,10.8C865.1,252.4,860.3,257.3,854.4,257.3z"/>
</g>
<circle cx="645.3" cy="233.5" r="5.3"/>
</svg>
