<?xml version="1.0" encoding="UTF-8" standalone="no"?>
<svg
   xmlns:dc="http://purl.org/dc/elements/1.1/"
   xmlns:cc="http://creativecommons.org/ns#"
   xmlns:rdf="http://www.w3.org/1999/02/22-rdf-syntax-ns#"
   xmlns:svg="http://www.w3.org/2000/svg"
   xmlns="http://www.w3.org/2000/svg"
   id="svg2"
   height="1490"
   width="1360"
   version="1.0">
  <metadata
     id="metadata272">
    <rdf:RDF>
      <cc:Work
         rdf:about="">
        <dc:format>image/svg+xml</dc:format>
        <dc:type
           rdf:resource="http://purl.org/dc/dcmitype/StillImage" />
        <dc:title></dc:title>
      </cc:Work>
    </rdf:RDF>
  </metadata>
  <defs
     id="defs4" />
  <path
     id="path564"
     d="M 196.08203 45.982422 C 191.54101 45.982422 187.83398 47.499023 184.96289 50.53125 C 182.0918 53.548828 180.65625 57.731445 180.65625 63.078125 C 180.65625 65.905273 181.27148 68.584961 182.50195 71.119141 C 183.73242 73.65332 185.54199 75.654297 187.92969 77.119141 C 190.31738 78.583984 193.02637 79.316406 196.05859 79.316406 C 198.85645 79.316406 201.46387 78.65625 203.88086 77.337891 C 206.29785 76.004883 208.16602 74.048828 209.48438 71.470703 C 210.80273 68.892578 211.46289 65.97168 211.46289 62.705078 C 211.46289 59.482422 210.83203 56.602539 209.57227 54.068359 C 208.32715 51.519531 206.51074 49.536132 204.12305 48.115234 C 201.73535 46.694336 199.05566 45.982422 196.08203 45.982422 z M 196.10352 49.652344 C 198.22754 49.652344 200.13868 50.195313 201.83789 51.279297 C 203.55176 52.348633 204.84766 53.863281 205.72656 55.826172 C 206.62012 57.774414 207.06836 60.05957 207.06836 62.681641 C 207.06836 66.827148 206.02735 70.029297 203.94727 72.285156 C 201.88183 74.541016 199.24512 75.667969 196.03711 75.667969 C 192.8877 75.667969 190.2666 74.554688 188.17188 72.328125 C 186.09179 70.086914 185.05078 67.026367 185.05078 63.144531 C 185.05078 58.295899 186.13476 54.838867 188.30273 52.773438 C 190.48535 50.693359 193.08594 49.652344 196.10352 49.652344 z M 72.5625 122.75391 C 68.021485 122.75391 64.316406 124.27051 61.445312 127.30273 C 58.574219 130.32031 57.138672 134.50293 57.138672 139.84961 C 57.138672 142.67676 57.753906 145.35645 58.984375 147.89062 C 60.214844 150.4248 62.022461 152.42578 64.410156 153.89062 C 66.797852 155.35547 69.508789 156.08789 72.541016 156.08789 C 75.338867 156.08789 77.946289 155.42773 80.363281 154.10938 C 82.780274 152.77637 84.648438 150.82031 85.966797 148.24219 C 87.285156 145.66406 87.943359 142.74316 87.943359 139.47656 C 87.943359 136.25391 87.314454 133.37402 86.054688 130.83984 C 84.809571 128.29101 82.993164 126.30761 80.605469 124.88672 C 78.217773 123.46582 75.536133 122.75391 72.5625 122.75391 z M 322.38086 122.75391 C 317.83984 122.75391 314.13281 124.27051 311.26172 127.30273 C 308.39063 130.32031 306.95508 134.50293 306.95508 139.84961 C 306.95508 142.67676 307.57031 145.35645 308.80078 147.89062 C 310.03125 150.4248 311.84082 152.42578 314.22852 153.89062 C 316.61622 155.35547 319.32715 156.08789 322.35938 156.08789 C 325.15722 156.08789 327.76465 155.42773 330.18164 154.10938 C 332.59863 152.77637 334.46484 150.82031 335.7832 148.24219 C 337.10156 145.66406 337.76172 142.74316 337.76172 139.47656 C 337.76172 136.25391 337.13086 133.37402 335.87109 130.83984 C 334.62597 128.29101 332.80957 126.30761 330.42188 124.88672 C 328.03418 123.46582 325.35449 122.75391 322.38086 122.75391 z M 574.52344 122.75391 C 569.98242 122.75391 566.27734 124.27051 563.40625 127.30273 C 560.53516 130.32031 559.09961 134.50293 559.09961 139.84961 C 559.09961 142.67676 559.71485 145.35645 560.94531 147.89062 C 562.17578 150.4248 563.98339 152.42578 566.37109 153.89062 C 568.75879 155.35547 571.46973 156.08789 574.50195 156.08789 C 577.29981 156.08789 579.90723 155.42773 582.32422 154.10938 C 584.74121 152.77637 586.60937 150.82031 587.92773 148.24219 C 589.24609 145.66406 589.9043 142.74316 589.9043 139.47656 C 589.9043 136.25391 589.27539 133.37402 588.01562 130.83984 C 586.77051 128.29101 584.95411 126.30761 582.56641 124.88672 C 580.17871 123.46582 577.49707 122.75391 574.52344 122.75391 z M 954.02734 122.75391 C 949.48633 122.75391 945.78125 124.27051 942.91016 127.30273 C 940.03906 130.32031 938.60352 134.50293 938.60352 139.84961 C 938.60352 142.67676 939.21875 145.35645 940.44922 147.89062 C 941.67969 150.4248 943.48731 152.42578 945.875 153.89062 C 948.26269 155.35547 950.97363 156.08789 954.00586 156.08789 C 956.80371 156.08789 959.41113 155.42773 961.82812 154.10938 C 964.24512 152.77637 966.11328 150.82031 967.43164 148.24219 C 968.74999 145.66406 969.4082 142.74316 969.4082 139.47656 C 969.4082 136.25391 968.77929 133.37402 967.51953 130.83984 C 966.27441 128.29101 964.45801 126.30761 962.07031 124.88672 C 959.68261 123.46582 957.00098 122.75391 954.02734 122.75391 z M 26.046875 123.32617 L 26.046875 155.53711 L 30.308594 155.53711 L 30.308594 140.35547 L 47.052734 140.35547 L 47.052734 155.53711 L 51.314453 155.53711 L 51.314453 123.32617 L 47.052734 123.32617 L 47.052734 136.55273 L 30.308594 136.55273 L 30.308594 123.32617 L 26.046875 123.32617 z M 72.583984 126.42383 C 74.708008 126.42383 76.621094 126.96679 78.320312 128.05078 C 80.03418 129.12011 81.330078 130.63476 82.208984 132.59766 C 83.102539 134.5459 83.548828 136.83105 83.548828 139.45312 C 83.548828 143.59863 82.509766 146.80078 80.429688 149.05664 C 78.364258 151.3125 75.727539 152.43945 72.519531 152.43945 C 69.370117 152.43945 66.74707 151.32618 64.652344 149.09961 C 62.572266 146.8584 61.533203 143.79786 61.533203 139.91602 C 61.533203 135.06738 62.617188 131.61035 64.785156 129.54492 C 66.967774 127.46484 69.566406 126.42383 72.583984 126.42383 z M 322.40234 126.42383 C 324.52637 126.42383 326.43751 126.96679 328.13672 128.05078 C 329.85059 129.12011 331.14844 130.63476 332.02734 132.59766 C 332.9209 134.5459 333.36719 136.83105 333.36719 139.45312 C 333.36719 143.59863 332.32617 146.80078 330.24609 149.05664 C 328.18066 151.3125 325.54394 152.43945 322.33594 152.43945 C 319.18652 152.43945 316.56543 151.32618 314.4707 149.09961 C 312.39062 146.8584 311.34961 143.79786 311.34961 139.91602 C 311.34961 135.06738 312.43359 131.61035 314.60156 129.54492 C 316.78418 127.46484 319.38476 126.42383 322.40234 126.42383 z M 574.54492 126.42383 C 576.66895 126.42383 578.58203 126.96679 580.28125 128.05078 C 581.99512 129.12011 583.29102 130.63476 584.16992 132.59766 C 585.06348 134.5459 585.50977 136.83105 585.50977 139.45312 C 585.50977 143.59863 584.47071 146.80078 582.39062 149.05664 C 580.3252 151.3125 577.68848 152.43945 574.48047 152.43945 C 571.33105 152.43945 568.70801 151.32618 566.61328 149.09961 C 564.53321 146.8584 563.49414 143.79786 563.49414 139.91602 C 563.49414 135.06738 564.57813 131.61035 566.74609 129.54492 C 568.92871 127.46484 571.52735 126.42383 574.54492 126.42383 z M 954.04883 126.42383 C 956.17285 126.42383 958.08594 126.96679 959.78516 128.05078 C 961.49902 129.12011 962.79492 130.63476 963.67383 132.59766 C 964.56738 134.5459 965.01367 136.83105 965.01367 139.45312 C 965.01367 143.59863 963.9746 146.80078 961.89453 149.05664 C 959.8291 151.3125 957.19238 152.43945 953.98438 152.43945 C 950.83496 152.43945 948.21191 151.32618 946.11719 149.09961 C 944.03711 146.8584 942.99805 143.79786 942.99805 139.91602 C 942.99805 135.06738 944.08203 131.61035 946.25 129.54492 C 948.43262 127.46484 951.03125 126.42383 954.04883 126.42383 z M 1080.4219 193.67188 C 1075.8808 193.67188 1072.1738 195.18848 1069.3027 198.2207 C 1066.4317 201.23828 1064.9961 205.4209 1064.9961 210.76758 C 1064.9961 213.59472 1065.6113 216.27441 1066.8418 218.80859 C 1068.0723 221.34277 1069.8819 223.34179 1072.2695 224.80664 C 1074.6573 226.27148 1077.3662 227.00391 1080.3984 227.00391 C 1083.1963 227.00391 1085.8037 226.3457 1088.2207 225.02734 C 1090.6376 223.69434 1092.5058 221.73828 1093.8242 219.16016 C 1095.1426 216.58204 1095.8027 213.65918 1095.8027 210.39258 C 1095.8027 207.16992 1095.1718 204.29199 1093.9121 201.75781 C 1092.667 199.20899 1090.8506 197.22363 1088.4629 195.80273 C 1086.0752 194.38183 1083.3955 193.67188 1080.4219 193.67188 z M 1080.4434 197.3418 C 1082.5674 197.3418 1084.4785 197.88282 1086.1777 198.9668 C 1087.8916 200.03614 1089.1875 201.55274 1090.0664 203.51562 C 1090.9599 205.46387 1091.4082 207.74903 1091.4082 210.37109 C 1091.4082 214.5166 1090.3672 217.7168 1088.2871 219.97266 C 1086.2216 222.22852 1083.585 223.35742 1080.377 223.35742 C 1077.2276 223.35742 1074.6065 222.24414 1072.5117 220.01758 C 1070.4317 217.77636 1069.3906 214.71386 1069.3906 210.83203 C 1069.3906 205.9834 1070.4746 202.52637 1072.6426 200.46094 C 1074.8252 198.38086 1077.4258 197.3418 1080.4434 197.3418 z M 1130.5195 227.18164 L 1130.5195 259.39258 L 1134.7832 259.39258 L 1134.7832 244.20898 L 1151.5254 244.20898 L 1151.5254 259.39258 L 1155.7891 259.39258 L 1155.7891 227.18164 L 1151.5254 227.18164 L 1151.5254 240.4082 L 1134.7832 240.4082 L 1134.7832 227.18164 L 1130.5195 227.18164 z M 512.35938 232.19141 C 507.81836 232.19141 504.11329 233.70605 501.24219 236.73828 C 498.37109 239.75586 496.93555 243.93848 496.93555 249.28516 C 496.93555 252.1123 497.55078 254.79394 498.78125 257.32812 C 500.01172 259.86231 501.81934 261.86133 504.20703 263.32617 C 506.59473 264.79101 509.30566 265.52344 512.33789 265.52344 C 515.13574 265.52344 517.74316 264.86328 520.16016 263.54492 C 522.57715 262.21192 524.44531 260.25781 525.76367 257.67969 C 527.08203 255.10157 527.74023 252.17872 527.74023 248.91211 C 527.74023 245.68946 527.11133 242.81152 525.85156 240.27734 C 524.60644 237.72852 522.79004 235.74317 520.40234 234.32227 C 518.01465 232.90137 515.33301 232.19141 512.35938 232.19141 z M 512.38086 235.85938 C 514.50489 235.85938 516.41797 236.40235 518.11719 237.48633 C 519.83106 238.55567 521.12696 240.07227 522.00586 242.03516 C 522.89942 243.9834 523.3457 246.26856 523.3457 248.89062 C 523.3457 253.03613 522.30664 256.23633 520.22656 258.49219 C 518.16114 260.74805 515.52442 261.875 512.31641 261.875 C 509.16699 261.875 506.54395 260.76172 504.44922 258.53516 C 502.36915 256.29394 501.33008 253.2334 501.33008 249.35156 C 501.33008 244.50293 502.41406 241.0459 504.58203 238.98047 C 506.76464 236.9004 509.36328 235.85938 512.38086 235.85938 z M 196.08203 266.19727 C 191.54101 266.19727 187.83398 267.71191 184.96289 270.74414 C 182.0918 273.76172 180.65625 277.94434 180.65625 283.29102 C 180.65625 286.11816 181.27148 288.7998 182.50195 291.33398 C 183.73242 293.86816 185.54199 295.86719 187.92969 297.33203 C 190.31738 298.79688 193.02637 299.5293 196.05859 299.5293 C 198.85645 299.5293 201.46387 298.86914 203.88086 297.55078 C 206.29785 296.21777 208.16602 294.26172 209.48438 291.68359 C 210.80273 289.10547 211.46289 286.18457 211.46289 282.91797 C 211.46289 279.69532 210.83203 276.81738 209.57227 274.2832 C 208.32715 271.73437 206.51074 269.74902 204.12305 268.32812 C 201.73535 266.90722 199.05566 266.19727 196.08203 266.19727 z M 322.38086 266.19727 C 317.83984 266.19727 314.13281 267.71191 311.26172 270.74414 C 308.39063 273.76172 306.95508 277.94434 306.95508 283.29102 C 306.95508 286.11816 307.57031 288.7998 308.80078 291.33398 C 310.03125 293.86816 311.84082 295.86719 314.22852 297.33203 C 316.61622 298.79688 319.32715 299.5293 322.35938 299.5293 C 325.15722 299.5293 327.76465 298.86914 330.18164 297.55078 C 332.59863 296.21777 334.46484 294.26172 335.7832 291.68359 C 337.10156 289.10547 337.76172 286.18457 337.76172 282.91797 C 337.76172 279.69532 337.13086 276.81738 335.87109 274.2832 C 334.62597 271.73437 332.80957 269.74902 330.42188 268.32812 C 328.03418 266.90722 325.35449 266.19727 322.38086 266.19727 z M 196.10352 269.86523 C 198.22754 269.86523 200.13868 270.4082 201.83789 271.49219 C 203.55176 272.56152 204.84766 274.07617 205.72656 276.03906 C 206.62012 277.9873 207.06836 280.27246 207.06836 282.89453 C 207.06836 287.04004 206.02735 290.24219 203.94727 292.49805 C 201.88183 294.75391 199.24512 295.88086 196.03711 295.88086 C 192.8877 295.88086 190.2666 294.76758 188.17188 292.54102 C 186.09179 290.29981 185.05078 287.23926 185.05078 283.35742 C 185.05078 278.50879 186.13476 275.05175 188.30273 272.98633 C 190.48535 270.90625 193.08594 269.86523 196.10352 269.86523 z M 322.40234 269.86523 C 324.52637 269.86523 326.43751 270.4082 328.13672 271.49219 C 329.85059 272.56152 331.14844 274.07617 332.02734 276.03906 C 332.9209 277.9873 333.36719 280.27246 333.36719 282.89453 C 333.36719 287.04004 332.32617 290.24219 330.24609 292.49805 C 328.18066 294.75391 325.54394 295.88086 322.33594 295.88086 C 319.18652 295.88086 316.56543 294.76758 314.4707 292.54102 C 312.39062 290.29981 311.34961 287.23926 311.34961 283.35742 C 311.34961 278.50879 312.43359 275.05175 314.60156 272.98633 C 316.78418 270.90625 319.38476 269.86523 322.40234 269.86523 z M 827.25391 341.45312 C 822.71289 341.45312 819.00586 342.96973 816.13477 346.00195 C 813.26367 349.01953 811.82813 353.20019 811.82812 358.54688 C 811.82812 361.37403 812.44336 364.05566 813.67383 366.58984 C 814.9043 369.12402 816.71387 371.12305 819.10156 372.58789 C 821.48926 374.05274 824.19824 374.78516 827.23047 374.78516 C 830.02832 374.78516 832.63574 374.12695 835.05273 372.80859 C 837.46973 371.47559 839.33789 369.51953 840.65625 366.94141 C 841.9746 364.36328 842.63477 361.44043 842.63477 358.17383 C 842.63477 354.95117 842.0039 352.07324 840.74414 349.53906 C 839.49902 346.99023 837.68262 345.00488 835.29492 343.58398 C 832.90722 342.16308 830.22754 341.45312 827.25391 341.45312 z M 954.02734 341.45312 C 949.48633 341.45312 945.78125 342.96973 942.91016 346.00195 C 940.03906 349.01953 938.60352 353.20019 938.60352 358.54688 C 938.60352 361.37403 939.21875 364.05566 940.44922 366.58984 C 941.67969 369.12402 943.48731 371.12305 945.875 372.58789 C 948.26269 374.05274 950.97363 374.78516 954.00586 374.78516 C 956.80371 374.78516 959.41113 374.12695 961.82812 372.80859 C 964.24512 371.47559 966.11328 369.51953 967.43164 366.94141 C 968.74999 364.36328 969.4082 361.44043 969.4082 358.17383 C 969.4082 354.95117 968.77929 352.07324 967.51953 349.53906 C 966.27441 346.99023 964.45801 345.00488 962.07031 343.58398 C 959.68261 342.16308 957.00098 341.45312 954.02734 341.45312 z M 827.27539 345.12305 C 829.39941 345.12305 831.31055 345.66406 833.00977 346.74805 C 834.72363 347.81738 836.01953 349.33398 836.89844 351.29688 C 837.79199 353.24511 838.24023 355.53027 838.24023 358.15234 C 838.24023 362.29785 837.19921 365.49805 835.11914 367.75391 C 833.05371 370.00977 830.41699 371.13867 827.20898 371.13867 C 824.05957 371.13867 821.43848 370.02539 819.34375 367.79883 C 817.26367 365.55762 816.22266 362.49512 816.22266 358.61328 C 816.22266 353.76465 817.30664 350.30761 819.47461 348.24219 C 821.65723 346.16211 824.25781 345.12305 827.27539 345.12305 z M 954.04883 345.12305 C 956.17285 345.12305 958.08594 345.66406 959.78516 346.74805 C 961.49902 347.81738 962.79492 349.33398 963.67383 351.29688 C 964.56738 353.24511 965.01367 355.53027 965.01367 358.15234 C 965.01367 362.29785 963.9746 365.49805 961.89453 367.75391 C 959.8291 370.00977 957.19238 371.13867 953.98438 371.13867 C 950.83496 371.13867 948.21191 370.02539 946.11719 367.79883 C 944.03711 365.55762 942.99805 362.49512 942.99805 358.61328 C 942.99805 353.76465 944.08203 350.30761 946.25 348.24219 C 948.43262 346.16211 951.03125 345.12305 954.04883 345.12305 z M 827.57812 413.17383 C 823.03711 413.17383 819.33008 414.69043 816.45898 417.72266 C 813.58789 420.74024 812.15234 424.9209 812.15234 430.26758 C 812.15234 433.09472 812.76758 435.77637 813.99805 438.31055 C 815.22852 440.84473 817.03809 442.84375 819.42578 444.30859 C 821.81347 445.77343 824.52441 446.50586 827.55664 446.50586 C 830.35449 446.50586 832.96191 445.84766 835.37891 444.5293 C 837.7959 443.19629 839.66212 441.24024 840.98047 438.66211 C 842.29883 436.08399 842.95898 433.16114 842.95898 429.89453 C 842.95898 426.67188 842.32813 423.79395 841.06836 421.25977 C 839.82325 418.71094 838.00683 416.72559 835.61914 415.30469 C 833.23144 413.88379 830.55176 413.17383 827.57812 413.17383 z M 848.5625 413.74414 L 848.5625 445.95703 L 852.82422 445.95703 L 852.82422 430.77344 L 869.56836 430.77344 L 869.56836 445.95703 L 873.83008 445.95703 L 873.83008 413.74414 L 869.56836 413.74414 L 869.56836 426.97266 L 852.82422 426.97266 L 852.82422 413.74414 L 848.5625 413.74414 z M 827.59961 416.84375 C 829.72363 416.84375 831.63476 417.38477 833.33398 418.46875 C 835.04785 419.53809 836.3457 421.05469 837.22461 423.01758 C 838.11816 424.96582 838.56445 427.25098 838.56445 429.87305 C 838.56445 434.01855 837.52344 437.21875 835.44336 439.47461 C 833.37793 441.73047 830.74121 442.85937 827.5332 442.85938 C 824.38379 442.85938 821.7627 441.74609 819.66797 439.51953 C 817.58789 437.27832 816.54688 434.21582 816.54688 430.33398 C 816.54688 425.48535 817.63086 422.02832 819.79883 419.96289 C 821.98145 417.88282 824.58203 416.84375 827.59961 416.84375 z M 272.39648 486.45508 L 272.39648 523.67773 L 286.58984 523.67773 C 288.95964 523.67773 290.95703 523.47461 292.58203 523.06836 C 294.22396 522.64518 295.58659 522.02734 296.66992 521.21484 C 297.75326 520.40234 298.65886 519.2513 299.38672 517.76172 C 300.13151 516.25521 300.50391 514.63021 300.50391 512.88672 C 300.50391 510.72005 299.89453 508.84115 298.67578 507.25 C 297.47395 505.65885 295.74739 504.5332 293.49609 503.87305 C 295.23958 503.00976 296.54296 501.87565 297.40625 500.4707 C 298.26953 499.06576 298.70117 497.56771 298.70117 495.97656 C 298.70117 494.26693 298.21029 492.63347 297.22852 491.07617 C 296.26368 489.50195 294.91797 488.34244 293.19141 487.59766 C 291.48177 486.83594 289.20508 486.45508 286.36133 486.45508 L 272.39648 486.45508 z M 277.32227 490.84766 L 284.76172 490.84766 C 287.4362 490.84766 289.32357 491.02539 290.42383 491.38086 C 291.52409 491.7194 292.37044 492.36263 292.96289 493.31055 C 293.55534 494.24153 293.85156 495.32487 293.85156 496.56055 C 293.85156 497.86393 293.52995 498.94726 292.88672 499.81055 C 292.26042 500.67383 291.32097 501.29167 290.06836 501.66406 C 289.12045 501.95182 287.55469 502.0957 285.37109 502.0957 L 277.32227 502.0957 L 277.32227 490.84766 z M 277.32227 506.48828 L 285.92969 506.48828 C 288.29948 506.48828 290.11067 506.69987 291.36328 507.12305 C 292.63281 507.52929 293.62304 508.2487 294.33398 509.28125 C 295.04492 510.29688 295.40039 511.4987 295.40039 512.88672 C 295.40039 514.07161 295.15495 515.12109 294.66406 516.03516 C 294.17318 516.93229 293.54688 517.61784 292.78516 518.0918 C 292.02344 518.56575 291.07552 518.9043 289.94141 519.10742 C 289.29818 519.22592 288.18099 519.28516 286.58984 519.28516 L 277.32227 519.28516 L 277.32227 506.48828 z M 315.15234 507.42773 C 314.54036 508.66471 313.4987 509.94075 312.02734 511.25586 C 310.55599 512.57096 308.83724 513.69075 306.87109 514.61523 L 306.87109 518.01367 C 307.96485 517.61003 309.19531 517.00456 310.5625 516.19727 C 311.94271 515.38998 313.05599 514.58268 313.90234 513.77539 L 313.90234 536.17773 L 317.41797 536.17773 L 317.41797 507.42773 L 315.15234 507.42773 z M 336.1875 514.9668 C 334.40365 514.9668 332.83464 515.2142 331.48047 515.70898 C 330.1263 516.19076 329.09115 516.88737 328.375 517.79883 C 327.65885 518.69726 327.14453 519.88216 326.83203 521.35352 L 330.26953 521.82227 C 330.64714 520.35091 331.22657 519.32877 332.00781 518.75586 C 332.80209 518.16992 334.02604 517.87695 335.67969 517.87695 C 337.45052 517.87695 338.78516 518.27409 339.68359 519.06836 C 340.34766 519.65429 340.67969 520.66341 340.67969 522.0957 C 340.67969 522.22591 340.67316 522.5319 340.66016 523.01367 C 339.31901 523.48243 337.22917 523.88607 334.39062 524.22461 C 332.9974 524.39388 331.95573 524.56966 331.26562 524.75195 C 330.32813 525.01237 329.48177 525.39648 328.72656 525.9043 C 327.98438 526.4121 327.3789 527.08919 326.91016 527.93555 C 326.45442 528.76888 326.22656 529.69336 326.22656 530.70898 C 326.22656 532.44076 326.83854 533.86653 328.0625 534.98633 C 329.28646 536.09309 331.03776 536.64648 333.31641 536.64648 C 334.69661 536.64648 335.98568 536.41862 337.18359 535.96289 C 338.39453 535.50716 339.65105 534.72591 340.95312 533.61914 C 341.05729 534.5957 341.29166 535.44857 341.65625 536.17773 L 345.32812 536.17773 C 344.88542 535.38347 344.58593 534.55665 344.42969 533.69727 C 344.28645 532.82487 344.21484 530.75455 344.21484 527.48633 L 344.21484 522.79883 C 344.21484 521.23633 344.15625 520.1556 344.03906 519.55664 C 343.83073 518.5931 343.46615 517.79883 342.94531 517.17383 C 342.42448 516.53581 341.61067 516.00846 340.50391 515.5918 C 339.39713 515.17513 337.95833 514.9668 336.1875 514.9668 z M 340.66016 525.76758 L 340.66016 527.05664 C 340.66016 528.60612 340.47136 529.778 340.09375 530.57227 C 339.59896 531.60091 338.82422 532.41471 337.76953 533.01367 C 336.71484 533.59961 335.51042 533.89258 334.15625 533.89258 C 332.78906 533.89258 331.7474 533.58008 331.03125 532.95508 C 330.32812 532.33008 329.97656 531.54883 329.97656 530.61133 C 329.97656 529.99935 330.13932 529.44597 330.46484 528.95117 C 330.79036 528.44336 331.2526 528.05924 331.85156 527.79883 C 332.45052 527.53841 333.47266 527.30404 334.91797 527.0957 C 337.47005 526.73112 339.38411 526.28841 340.66016 525.76758 z M 756.4668 577.19141 C 751.92578 577.19141 748.21875 578.70605 745.34766 581.73828 C 742.47656 584.75586 741.04102 588.93848 741.04102 594.28516 C 741.04102 597.1123 741.65625 599.79395 742.88672 602.32812 C 744.11719 604.8623 745.92676 606.86133 748.31445 608.32617 C 750.70215 609.79101 753.41309 610.52344 756.44531 610.52344 C 759.24317 610.52344 761.85058 609.86328 764.26758 608.54492 C 766.68457 607.21192 768.55078 605.25781 769.86914 602.67969 C 771.1875 600.10157 771.84766 597.17872 771.84766 593.91211 C 771.84766 590.68946 771.2168 587.81152 769.95703 585.27734 C 768.71191 582.72852 766.89551 580.74317 764.50781 579.32227 C 762.12012 577.90137 759.44043 577.19141 756.4668 577.19141 z M 756.48828 580.85938 C 758.6123 580.85938 760.52344 581.40235 762.22266 582.48633 C 763.93652 583.55567 765.23437 585.07227 766.11328 587.03516 C 767.00683 588.9834 767.45313 591.26856 767.45312 593.89062 C 767.45312 598.03613 766.4121 601.23633 764.33203 603.49219 C 762.2666 605.74805 759.62988 606.875 756.42188 606.875 C 753.27246 606.875 750.65137 605.76172 748.55664 603.53516 C 746.47656 601.29394 745.43555 598.2334 745.43555 594.35156 C 745.43555 589.50293 746.51953 586.0459 748.6875 583.98047 C 750.87011 581.9004 753.4707 580.85938 756.48828 580.85938 z M 814.92188 628.03125 L 814.92188 660.24219 L 819.18359 660.24219 L 819.18359 645.05859 L 835.92773 645.05859 L 835.92773 660.24219 L 840.18945 660.24219 L 840.18945 628.03125 L 835.92773 628.03125 L 835.92773 641.25781 L 819.18359 641.25781 L 819.18359 628.03125 L 814.92188 628.03125 z M 890.72852 670.25781 C 886.1875 670.25781 882.48047 671.77246 879.60938 674.80469 C 876.73828 677.82227 875.30273 682.00488 875.30273 687.35156 C 875.30273 690.17871 875.91797 692.86035 877.14844 695.39453 C 878.3789 697.92871 880.18847 699.92773 882.57617 701.39258 C 884.96387 702.85742 887.67285 703.58984 890.70508 703.58984 C 893.50293 703.58984 896.11035 702.92969 898.52734 701.61133 C 900.94433 700.27832 902.8125 698.32421 904.13086 695.74609 C 905.44922 693.16797 906.10938 690.24512 906.10938 686.97852 C 906.10938 683.75586 905.47852 680.87793 904.21875 678.34375 C 902.97364 675.79492 901.15723 673.80957 898.76953 672.38867 C 896.38184 670.96777 893.70215 670.25781 890.72852 670.25781 z M 911.71094 670.82812 L 911.71094 703.04102 L 915.97461 703.04102 L 915.97461 687.85742 L 932.7168 687.85742 L 932.7168 703.04102 L 936.98047 703.04102 L 936.98047 670.82812 L 932.7168 670.82812 L 932.7168 684.05664 L 915.97461 684.05664 L 915.97461 670.82812 L 911.71094 670.82812 z M 890.75 673.92578 C 892.87403 673.92578 894.78516 674.46875 896.48438 675.55273 C 898.19824 676.62207 899.49414 678.13868 900.37305 680.10156 C 901.2666 682.04981 901.71484 684.33496 901.71484 686.95703 C 901.71484 691.10254 900.67383 694.30273 898.59375 696.55859 C 896.52832 698.81445 893.8916 699.94141 890.68359 699.94141 C 887.53418 699.94141 884.91309 698.82812 882.81836 696.60156 C 880.73828 694.36035 879.69727 691.2998 879.69727 687.41797 C 879.69727 682.56934 880.78125 679.11231 882.94922 677.04688 C 885.13184 674.9668 887.73243 673.92578 890.75 673.92578 z M 196.08203 805.98242 C 191.54102 805.98242 187.83398 807.49902 184.96289 810.53125 C 182.0918 813.54883 180.65625 817.73144 180.65625 823.07812 C 180.65625 825.90527 181.27149 828.58496 182.50195 831.11914 C 183.73242 833.65332 185.54199 835.65429 187.92969 837.11914 C 190.31738 838.58398 193.02637 839.31641 196.05859 839.31641 C 198.85645 839.31641 201.46387 838.65625 203.88086 837.33789 C 206.29785 836.00488 208.16602 834.04883 209.48438 831.4707 C 210.80274 828.89258 211.46289 825.97168 211.46289 822.70508 C 211.46289 819.48242 210.83203 816.60254 209.57227 814.06836 C 208.32715 811.51953 206.51075 809.53613 204.12305 808.11523 C 201.73535 806.69433 199.05566 805.98242 196.08203 805.98242 z M 196.10352 809.65234 C 198.22754 809.65234 200.13867 810.19532 201.83789 811.2793 C 203.55176 812.34864 204.84766 813.86329 205.72656 815.82617 C 206.62012 817.77442 207.06836 820.05957 207.06836 822.68164 C 207.06836 826.82715 206.02735 830.0293 203.94727 832.28516 C 201.88184 834.54102 199.24512 835.66797 196.03711 835.66797 C 192.8877 835.66797 190.2666 834.55469 188.17188 832.32812 C 186.0918 830.08691 185.05078 827.02636 185.05078 823.14453 C 185.05078 818.2959 186.13477 814.83887 188.30273 812.77344 C 190.48535 810.69336 193.08594 809.65234 196.10352 809.65234 z M 72.5625 882.75391 C 68.021484 882.75391 64.316406 884.27051 61.445312 887.30273 C 58.574219 890.32031 57.138672 894.50293 57.138672 899.84961 C 57.138672 902.67676 57.753906 905.35645 58.984375 907.89062 C 60.214844 910.42481 62.022461 912.42579 64.410156 913.89062 C 66.797852 915.35547 69.508789 916.08789 72.541016 916.08789 C 75.338867 916.08789 77.946289 915.42773 80.363281 914.10938 C 82.780273 912.77637 84.648438 910.82031 85.966797 908.24219 C 87.285156 905.66406 87.943359 902.74316 87.943359 899.47656 C 87.943359 896.25391 87.314453 893.37402 86.054688 890.83984 C 84.809571 888.29101 82.993164 886.30761 80.605469 884.88672 C 78.217773 883.46582 75.536133 882.75391 72.5625 882.75391 z M 322.38086 882.75391 C 317.83984 882.75391 314.13281 884.27051 311.26172 887.30273 C 308.39063 890.32031 306.95508 894.50293 306.95508 899.84961 C 306.95508 902.67676 307.57031 905.35645 308.80078 907.89062 C 310.03125 910.42481 311.84082 912.42579 314.22852 913.89062 C 316.61622 915.35547 319.32715 916.08789 322.35938 916.08789 C 325.15722 916.08789 327.76465 915.42773 330.18164 914.10938 C 332.59863 912.77637 334.46484 910.82031 335.7832 908.24219 C 337.10156 905.66406 337.76172 902.74316 337.76172 899.47656 C 337.76172 896.25391 337.13086 893.37402 335.87109 890.83984 C 334.62597 888.29101 332.80957 886.30761 330.42188 884.88672 C 328.03418 883.46582 325.35449 882.75391 322.38086 882.75391 z M 574.52344 882.75391 C 569.98242 882.75391 566.27734 884.27051 563.40625 887.30273 C 560.53516 890.32031 559.09961 894.50293 559.09961 899.84961 C 559.09961 902.67676 559.71485 905.35645 560.94531 907.89062 C 562.17578 910.42481 563.98339 912.42579 566.37109 913.89062 C 568.75879 915.35547 571.46973 916.08789 574.50195 916.08789 C 577.29981 916.08789 579.90723 915.42773 582.32422 914.10938 C 584.74121 912.77637 586.60937 910.82031 587.92773 908.24219 C 589.24609 905.66406 589.9043 902.74316 589.9043 899.47656 C 589.9043 896.25391 589.27539 893.37402 588.01562 890.83984 C 586.77051 888.29101 584.95411 886.30761 582.56641 884.88672 C 580.17871 883.46582 577.49707 882.75391 574.52344 882.75391 z M 954.02734 882.75391 C 949.48633 882.75391 945.78125 884.27051 942.91016 887.30273 C 940.03906 890.32031 938.60352 894.50293 938.60352 899.84961 C 938.60352 902.67676 939.21875 905.35645 940.44922 907.89062 C 941.67969 910.42481 943.48731 912.42579 945.875 913.89062 C 948.26269 915.35547 950.97363 916.08789 954.00586 916.08789 C 956.80371 916.08789 959.41113 915.42773 961.82812 914.10938 C 964.24512 912.77637 966.11328 910.82031 967.43164 908.24219 C 968.74999 905.66406 969.4082 902.74316 969.4082 899.47656 C 969.4082 896.25391 968.77929 893.37402 967.51953 890.83984 C 966.27441 888.29101 964.45801 886.30761 962.07031 884.88672 C 959.68261 883.46582 957.00098 882.75391 954.02734 882.75391 z M 26.046875 883.32617 L 26.046875 915.53711 L 30.308594 915.53711 L 30.308594 900.35547 L 47.052734 900.35547 L 47.052734 915.53711 L 51.314453 915.53711 L 51.314453 883.32617 L 47.052734 883.32617 L 47.052734 896.55273 L 30.308594 896.55273 L 30.308594 883.32617 L 26.046875 883.32617 z M 72.583984 886.42383 C 74.708008 886.42383 76.621094 886.96679 78.320312 888.05078 C 80.03418 889.12011 81.330078 890.63476 82.208984 892.59766 C 83.102539 894.5459 83.548828 896.83105 83.548828 899.45312 C 83.548828 903.59863 82.509766 906.80078 80.429688 909.05664 C 78.364258 911.3125 75.727539 912.43945 72.519531 912.43945 C 69.370117 912.43945 66.74707 911.32618 64.652344 909.09961 C 62.572266 906.8584 61.533203 903.79786 61.533203 899.91602 C 61.533203 895.06738 62.617188 891.61035 64.785156 889.54492 C 66.967774 887.46484 69.566406 886.42383 72.583984 886.42383 z M 322.40234 886.42383 C 324.52637 886.42383 326.43751 886.96679 328.13672 888.05078 C 329.85059 889.12011 331.14844 890.63476 332.02734 892.59766 C 332.9209 894.5459 333.36719 896.83105 333.36719 899.45312 C 333.36719 903.59863 332.32617 906.80078 330.24609 909.05664 C 328.18066 911.3125 325.54394 912.43945 322.33594 912.43945 C 319.18652 912.43945 316.56543 911.32618 314.4707 909.09961 C 312.39062 906.8584 311.34961 903.79786 311.34961 899.91602 C 311.34961 895.06738 312.43359 891.61035 314.60156 889.54492 C 316.78418 887.46484 319.38476 886.42383 322.40234 886.42383 z M 574.54492 886.42383 C 576.66895 886.42383 578.58203 886.96679 580.28125 888.05078 C 581.99512 889.12011 583.29102 890.63476 584.16992 892.59766 C 585.06348 894.5459 585.50977 896.83105 585.50977 899.45312 C 585.50977 903.59863 584.47071 906.80078 582.39062 909.05664 C 580.3252 911.3125 577.68848 912.43945 574.48047 912.43945 C 571.33105 912.43945 568.70801 911.32618 566.61328 909.09961 C 564.53321 906.8584 563.49414 903.79786 563.49414 899.91602 C 563.49414 895.06738 564.57813 891.61035 566.74609 889.54492 C 568.92871 887.46484 571.52735 886.42383 574.54492 886.42383 z M 954.04883 886.42383 C 956.17285 886.42383 958.08594 886.96679 959.78516 888.05078 C 961.49902 889.12011 962.79492 890.63476 963.67383 892.59766 C 964.56738 894.5459 965.01367 896.83105 965.01367 899.45312 C 965.01367 903.59863 963.9746 906.80078 961.89453 909.05664 C 959.8291 911.3125 957.19238 912.43945 953.98438 912.43945 C 950.83496 912.43945 948.21191 911.32618 946.11719 909.09961 C 944.03711 906.8584 942.99805 903.79786 942.99805 899.91602 C 942.99805 895.06738 944.08203 891.61035 946.25 889.54492 C 948.43262 887.46484 951.03125 886.42383 954.04883 886.42383 z M 1080.4219 953.67188 C 1075.8808 953.67187 1072.1738 955.18848 1069.3027 958.2207 C 1066.4317 961.23828 1064.9961 965.4209 1064.9961 970.76758 C 1064.9961 973.59472 1065.6113 976.27441 1066.8418 978.80859 C 1068.0723 981.34277 1069.8819 983.34375 1072.2695 984.80859 C 1074.6573 986.27343 1077.3662 987.00391 1080.3984 987.00391 C 1083.1963 987.00391 1085.8037 986.3457 1088.2207 985.02734 C 1090.6376 983.69434 1092.5058 981.73828 1093.8242 979.16016 C 1095.1426 976.58204 1095.8027 973.65918 1095.8027 970.39258 C 1095.8027 967.16992 1095.1718 964.29199 1093.9121 961.75781 C 1092.667 959.20899 1090.8506 957.22363 1088.4629 955.80273 C 1086.0752 954.38183 1083.3955 953.67188 1080.4219 953.67188 z M 1080.4434 957.3418 C 1082.5674 957.3418 1084.4785 957.88282 1086.1777 958.9668 C 1087.8916 960.03614 1089.1875 961.55274 1090.0664 963.51562 C 1090.9599 965.46387 1091.4082 967.74903 1091.4082 970.37109 C 1091.4082 974.5166 1090.3672 977.7168 1088.2871 979.97266 C 1086.2216 982.22852 1083.585 983.35742 1080.377 983.35742 C 1077.2276 983.35742 1074.6065 982.24414 1072.5117 980.01758 C 1070.4317 977.77636 1069.3906 974.71386 1069.3906 970.83203 C 1069.3906 965.9834 1070.4746 962.52637 1072.6426 960.46094 C 1074.8252 958.38086 1077.4258 957.3418 1080.4434 957.3418 z M 1130.5195 987.17969 L 1130.5195 1019.3926 L 1134.7832 1019.3926 L 1134.7832 1004.209 L 1151.5254 1004.209 L 1151.5254 1019.3926 L 1155.7891 1019.3926 L 1155.7891 987.17969 L 1151.5254 987.17969 L 1151.5254 1000.4082 L 1134.7832 1000.4082 L 1134.7832 987.17969 L 1130.5195 987.17969 z M 512.35938 992.19141 C 507.81836 992.19141 504.11329 993.70605 501.24219 996.73828 C 498.37109 999.75587 496.93555 1003.9385 496.93555 1009.2852 C 496.93555 1012.1123 497.55078 1014.7939 498.78125 1017.3281 C 500.01172 1019.8623 501.81934 1021.8614 504.20703 1023.3262 C 506.59473 1024.791 509.30566 1025.5234 512.33789 1025.5234 C 515.13574 1025.5234 517.74316 1024.8633 520.16016 1023.5449 C 522.57715 1022.2119 524.44531 1020.2578 525.76367 1017.6797 C 527.08203 1015.1016 527.74023 1012.1787 527.74023 1008.9121 C 527.74023 1005.6894 527.11133 1002.8115 525.85156 1000.2773 C 524.60644 997.72852 522.79004 995.74317 520.40234 994.32227 C 518.01465 992.90137 515.33301 992.19141 512.35938 992.19141 z M 512.38086 995.85938 C 514.50489 995.85938 516.41797 996.40235 518.11719 997.48633 C 519.83106 998.55567 521.12696 1000.0723 522.00586 1002.0352 C 522.89942 1003.9834 523.3457 1006.2686 523.3457 1008.8906 C 523.3457 1013.0362 522.30664 1016.2364 520.22656 1018.4922 C 518.16114 1020.7481 515.52442 1021.875 512.31641 1021.875 C 509.16699 1021.875 506.54395 1020.7617 504.44922 1018.5352 C 502.36915 1016.294 501.33008 1013.2334 501.33008 1009.3516 C 501.33008 1004.503 502.41406 1001.0459 504.58203 998.98047 C 506.76464 996.9004 509.36328 995.85938 512.38086 995.85938 z M 196.08203 1026.1973 C 191.54102 1026.1973 187.83398 1027.7119 184.96289 1030.7441 C 182.0918 1033.7617 180.65625 1037.9443 180.65625 1043.291 C 180.65625 1046.1181 181.27149 1048.7978 182.50195 1051.332 C 183.73242 1053.8662 185.54199 1055.8672 187.92969 1057.332 C 190.31738 1058.7969 193.02637 1059.5293 196.05859 1059.5293 C 198.85645 1059.5293 201.46387 1058.8691 203.88086 1057.5508 C 206.29785 1056.2178 208.16602 1054.2637 209.48438 1051.6855 C 210.80274 1049.1074 211.46289 1046.1846 211.46289 1042.918 C 211.46289 1039.6953 210.83203 1036.8155 209.57227 1034.2812 C 208.32715 1031.7324 206.51075 1029.7491 204.12305 1028.3281 C 201.73535 1026.9073 199.05566 1026.1973 196.08203 1026.1973 z M 322.38086 1026.1973 C 317.83984 1026.1973 314.13281 1027.7119 311.26172 1030.7441 C 308.39063 1033.7617 306.95508 1037.9443 306.95508 1043.291 C 306.95508 1046.1181 307.57031 1048.7978 308.80078 1051.332 C 310.03125 1053.8662 311.84082 1055.8672 314.22852 1057.332 C 316.61622 1058.7969 319.32715 1059.5293 322.35938 1059.5293 C 325.15722 1059.5293 327.76465 1058.8691 330.18164 1057.5508 C 332.59863 1056.2178 334.46484 1054.2637 335.7832 1051.6855 C 337.10156 1049.1074 337.76172 1046.1846 337.76172 1042.918 C 337.76172 1039.6953 337.13086 1036.8155 335.87109 1034.2812 C 334.62597 1031.7324 332.80957 1029.7491 330.42188 1028.3281 C 328.03418 1026.9073 325.35449 1026.1973 322.38086 1026.1973 z M 196.10352 1029.8652 C 198.22754 1029.8652 200.13867 1030.4082 201.83789 1031.4922 C 203.55176 1032.5615 204.84766 1034.0781 205.72656 1036.041 C 206.62012 1037.9893 207.06836 1040.2744 207.06836 1042.8965 C 207.06836 1047.042 206.02735 1050.2422 203.94727 1052.498 C 201.88184 1054.7538 199.24512 1055.8809 196.03711 1055.8809 C 192.8877 1055.8809 190.2666 1054.7675 188.17188 1052.541 C 186.0918 1050.2998 185.05078 1047.2393 185.05078 1043.3574 C 185.05078 1038.5088 186.13477 1035.0518 188.30273 1032.9863 C 190.48535 1030.9063 193.08594 1029.8652 196.10352 1029.8652 z M 322.40234 1029.8652 C 324.52637 1029.8652 326.43751 1030.4082 328.13672 1031.4922 C 329.85059 1032.5615 331.14844 1034.0781 332.02734 1036.041 C 332.9209 1037.9893 333.36719 1040.2744 333.36719 1042.8965 C 333.36719 1047.042 332.32617 1050.2422 330.24609 1052.498 C 328.18066 1054.7538 325.54394 1055.8809 322.33594 1055.8809 C 319.18652 1055.8809 316.56543 1054.7675 314.4707 1052.541 C 312.39062 1050.2998 311.34961 1047.2393 311.34961 1043.3574 C 311.34961 1038.5088 312.43359 1035.0518 314.60156 1032.9863 C 316.78418 1030.9063 319.38476 1029.8652 322.40234 1029.8652 z M 827.25391 1101.4531 C 822.71289 1101.4531 819.00586 1102.9697 816.13477 1106.002 C 813.26367 1109.0195 811.82813 1113.2001 811.82812 1118.5469 C 811.82812 1121.374 812.44336 1124.0556 813.67383 1126.5898 C 814.9043 1129.124 816.71387 1131.123 819.10156 1132.5879 C 821.48926 1134.0528 824.19824 1134.7852 827.23047 1134.7852 C 830.02832 1134.7852 832.63574 1134.125 835.05273 1132.8066 C 837.46973 1131.4736 839.33789 1129.5195 840.65625 1126.9414 C 841.9746 1124.3633 842.63477 1121.4404 842.63477 1118.1738 C 842.63477 1114.9512 842.0039 1112.0732 840.74414 1109.5391 C 839.49902 1106.9902 837.68262 1105.0049 835.29492 1103.584 C 832.90722 1102.1631 830.22754 1101.4531 827.25391 1101.4531 z M 954.02734 1101.4531 C 949.48633 1101.4531 945.78125 1102.9697 942.91016 1106.002 C 940.03906 1109.0195 938.60352 1113.2001 938.60352 1118.5469 C 938.60352 1121.374 939.21875 1124.0556 940.44922 1126.5898 C 941.67969 1129.124 943.48731 1131.123 945.875 1132.5879 C 948.26269 1134.0528 950.97363 1134.7852 954.00586 1134.7852 C 956.80371 1134.7852 959.41113 1134.125 961.82812 1132.8066 C 964.24512 1131.4736 966.11328 1129.5195 967.43164 1126.9414 C 968.74999 1124.3633 969.4082 1121.4404 969.4082 1118.1738 C 969.4082 1114.9512 968.77929 1112.0732 967.51953 1109.5391 C 966.27441 1106.9902 964.45801 1105.0049 962.07031 1103.584 C 959.68261 1102.1631 957.00098 1101.4531 954.02734 1101.4531 z M 827.27539 1105.123 C 829.39941 1105.123 831.31055 1105.6641 833.00977 1106.748 C 834.72363 1107.8174 836.01953 1109.334 836.89844 1111.2969 C 837.79199 1113.2451 838.24023 1115.5303 838.24023 1118.1523 C 838.24023 1122.2978 837.19921 1125.498 835.11914 1127.7539 C 833.05371 1130.0098 830.41699 1131.1387 827.20898 1131.1387 C 824.05957 1131.1387 821.43848 1130.0254 819.34375 1127.7988 C 817.26367 1125.5576 816.22266 1122.4951 816.22266 1118.6133 C 816.22266 1113.7646 817.30664 1110.3076 819.47461 1108.2422 C 821.65723 1106.1621 824.25781 1105.123 827.27539 1105.123 z M 954.04883 1105.123 C 956.17285 1105.123 958.08594 1105.6641 959.78516 1106.748 C 961.49902 1107.8174 962.79492 1109.334 963.67383 1111.2969 C 964.56738 1113.2451 965.01367 1115.5303 965.01367 1118.1523 C 965.01367 1122.2978 963.9746 1125.498 961.89453 1127.7539 C 959.8291 1130.0098 957.19238 1131.1387 953.98438 1131.1387 C 950.83496 1131.1387 948.21191 1130.0254 946.11719 1127.7988 C 944.03711 1125.5576 942.99805 1122.4951 942.99805 1118.6133 C 942.99805 1113.7646 944.08203 1110.3076 946.25 1108.2422 C 948.43262 1106.1621 951.03125 1105.123 954.04883 1105.123 z M 827.57812 1173.1738 C 823.03711 1173.1738 819.33008 1174.6905 816.45898 1177.7227 C 813.58789 1180.7403 812.15234 1184.9209 812.15234 1190.2676 C 812.15234 1193.0947 812.76758 1195.7763 813.99805 1198.3105 C 815.22852 1200.8447 817.03809 1202.8438 819.42578 1204.3086 C 821.81347 1205.7735 824.52441 1206.5059 827.55664 1206.5059 C 830.35449 1206.5059 832.96191 1205.8476 835.37891 1204.5293 C 837.7959 1203.1963 839.66212 1201.2402 840.98047 1198.6621 C 842.29883 1196.084 842.95898 1193.1611 842.95898 1189.8945 C 842.95898 1186.6719 842.32813 1183.794 841.06836 1181.2598 C 839.82325 1178.711 838.00683 1176.7256 835.61914 1175.3047 C 833.23144 1173.8838 830.55176 1173.1738 827.57812 1173.1738 z M 848.5625 1173.7441 L 848.5625 1205.957 L 852.82422 1205.957 L 852.82422 1190.7734 L 869.56836 1190.7734 L 869.56836 1205.957 L 873.83008 1205.957 L 873.83008 1173.7441 L 869.56836 1173.7441 L 869.56836 1186.9727 L 852.82422 1186.9727 L 852.82422 1173.7441 L 848.5625 1173.7441 z M 827.59961 1176.8438 C 829.72363 1176.8437 831.63476 1177.3847 833.33398 1178.4688 C 835.04785 1179.5381 836.3457 1181.0547 837.22461 1183.0176 C 838.11816 1184.9658 838.56445 1187.251 838.56445 1189.873 C 838.56445 1194.0186 837.52344 1197.2187 835.44336 1199.4746 C 833.37793 1201.7304 830.74121 1202.8594 827.5332 1202.8594 C 824.38379 1202.8594 821.7627 1201.7461 819.66797 1199.5195 C 817.58789 1197.2783 816.54688 1194.2159 816.54688 1190.334 C 816.54688 1185.4854 817.63086 1182.0284 819.79883 1179.9629 C 821.98145 1177.8828 824.58203 1176.8438 827.59961 1176.8438 z M 272.39648 1246.4551 L 272.39648 1283.6777 L 286.58984 1283.6777 C 288.95964 1283.6777 290.95703 1283.4746 292.58203 1283.0684 C 294.22396 1282.6452 295.58659 1282.0274 296.66992 1281.2148 C 297.75326 1280.4024 298.65886 1279.2513 299.38672 1277.7617 C 300.13151 1276.2552 300.50391 1274.6302 300.50391 1272.8867 C 300.50391 1270.7201 299.89453 1268.8411 298.67578 1267.25 C 297.47395 1265.6589 295.74739 1264.5332 293.49609 1263.873 C 295.23958 1263.0098 296.54297 1261.8756 297.40625 1260.4707 C 298.26954 1259.0658 298.70117 1257.5677 298.70117 1255.9766 C 298.70117 1254.2669 298.21029 1252.6334 297.22852 1251.0762 C 296.26367 1249.5019 294.91797 1248.3425 293.19141 1247.5977 C 291.48177 1246.836 289.20508 1246.4551 286.36133 1246.4551 L 272.39648 1246.4551 z M 277.32227 1250.8477 L 284.76172 1250.8477 C 287.4362 1250.8477 289.32357 1251.0254 290.42383 1251.3809 C 291.52409 1251.7195 292.37044 1252.3627 292.96289 1253.3105 C 293.55534 1254.2415 293.85156 1255.3249 293.85156 1256.5605 C 293.85156 1257.8639 293.52995 1258.9473 292.88672 1259.8105 C 292.26042 1260.6739 291.32097 1261.2917 290.06836 1261.6641 C 289.12045 1261.9518 287.55469 1262.0957 285.37109 1262.0957 L 277.32227 1262.0957 L 277.32227 1250.8477 z M 277.32227 1266.4883 L 285.92969 1266.4883 C 288.29948 1266.4883 290.11067 1266.6999 291.36328 1267.123 C 292.63281 1267.5293 293.62304 1268.2487 294.33398 1269.2812 C 295.04492 1270.2969 295.40039 1271.4987 295.40039 1272.8867 C 295.40039 1274.0717 295.15495 1275.1212 294.66406 1276.0352 C 294.17318 1276.9323 293.54688 1277.6178 292.78516 1278.0918 C 292.02344 1278.5657 291.07552 1278.9043 289.94141 1279.1074 C 289.29818 1279.2259 288.18099 1279.2852 286.58984 1279.2852 L 277.32227 1279.2852 L 277.32227 1266.4883 z M 315.15234 1267.4277 C 314.54036 1268.6647 313.4987 1269.9408 312.02734 1271.2559 C 310.55599 1272.571 308.83724 1273.6908 306.87109 1274.6152 L 306.87109 1278.0137 C 307.96485 1277.61 309.19531 1277.0045 310.5625 1276.1973 C 311.94271 1275.3899 313.05599 1274.5827 313.90234 1273.7754 L 313.90234 1296.1777 L 317.41797 1296.1777 L 317.41797 1267.4277 L 315.15234 1267.4277 z M 327.39844 1267.5449 L 327.39844 1296.1777 L 330.66016 1296.1777 L 330.66016 1293.5801 C 332.05338 1295.6243 333.97396 1296.6465 336.42188 1296.6465 C 338.88281 1296.6465 340.99219 1295.6765 342.75 1293.7363 C 344.50781 1291.7963 345.38672 1289.0489 345.38672 1285.4941 C 345.38672 1283.9967 345.17839 1282.5905 344.76172 1281.2754 C 344.34505 1279.9603 343.76562 1278.8405 343.02344 1277.916 C 342.29427 1276.9785 341.35677 1276.2559 340.21094 1275.748 C 339.07812 1275.2272 337.8737 1274.9668 336.59766 1274.9668 C 334.29296 1274.9668 332.39844 1275.8978 330.91406 1277.7598 L 330.91406 1267.5449 L 327.39844 1267.5449 z M 336.28516 1277.8574 C 337.80859 1277.8574 339.10417 1278.5019 340.17188 1279.791 C 341.25261 1281.0801 341.79297 1283.0788 341.79297 1285.7871 C 341.79297 1288.4303 341.23307 1290.4225 340.11328 1291.7637 C 338.99349 1293.0917 337.66536 1293.7559 336.12891 1293.7559 C 334.24088 1293.7559 332.74349 1292.8509 331.63672 1291.041 C 330.95963 1289.9342 330.62109 1288.1373 330.62109 1285.6504 C 330.62109 1283.1243 331.18099 1281.1973 332.30078 1279.8691 C 333.42057 1278.528 334.7487 1277.8574 336.28516 1277.8574 z M 756.4668 1337.1914 C 751.92578 1337.1914 748.21875 1338.7061 745.34766 1341.7383 C 742.47656 1344.7559 741.04102 1348.9385 741.04102 1354.2852 C 741.04102 1357.1123 741.65625 1359.7939 742.88672 1362.3281 C 744.11719 1364.8623 745.92676 1366.8614 748.31445 1368.3262 C 750.70215 1369.791 753.41309 1370.5234 756.44531 1370.5234 C 759.24317 1370.5234 761.85058 1369.8633 764.26758 1368.5449 C 766.68457 1367.2119 768.55078 1365.2578 769.86914 1362.6797 C 771.1875 1360.1016 771.84766 1357.1787 771.84766 1353.9121 C 771.84766 1350.6894 771.2168 1347.8115 769.95703 1345.2773 C 768.71191 1342.7285 766.89551 1340.7432 764.50781 1339.3223 C 762.12012 1337.9014 759.44043 1337.1914 756.4668 1337.1914 z M 756.48828 1340.8594 C 758.6123 1340.8594 760.52344 1341.4023 762.22266 1342.4863 C 763.93652 1343.5557 765.23437 1345.0723 766.11328 1347.0352 C 767.00683 1348.9834 767.45313 1351.2686 767.45312 1353.8906 C 767.45312 1358.0362 766.4121 1361.2364 764.33203 1363.4922 C 762.2666 1365.7481 759.62988 1366.875 756.42188 1366.875 C 753.27246 1366.875 750.65137 1365.7617 748.55664 1363.5352 C 746.47656 1361.294 745.43555 1358.2334 745.43555 1354.3516 C 745.43555 1349.503 746.51953 1346.0459 748.6875 1343.9805 C 750.87011 1341.9004 753.4707 1340.8594 756.48828 1340.8594 z M 814.92188 1388.0312 L 814.92188 1420.2422 L 819.18359 1420.2422 L 819.18359 1405.0586 L 835.92773 1405.0586 L 835.92773 1420.2422 L 840.18945 1420.2422 L 840.18945 1388.0312 L 835.92773 1388.0312 L 835.92773 1401.2578 L 819.18359 1401.2578 L 819.18359 1388.0312 L 814.92188 1388.0312 z M 890.72852 1430.2578 C 886.1875 1430.2578 882.48047 1431.7744 879.60938 1434.8066 C 876.73828 1437.8242 875.30273 1442.0048 875.30273 1447.3516 C 875.30273 1450.1787 875.91797 1452.8604 877.14844 1455.3945 C 878.3789 1457.9287 880.18847 1459.9277 882.57617 1461.3926 C 884.96387 1462.8574 887.67285 1463.5898 890.70508 1463.5898 C 893.50293 1463.5898 896.11035 1462.9297 898.52734 1461.6113 C 900.94433 1460.2783 902.8125 1458.3242 904.13086 1455.7461 C 905.44922 1453.168 906.10938 1450.2451 906.10938 1446.9785 C 906.10938 1443.7558 905.47852 1440.8779 904.21875 1438.3438 C 902.97364 1435.7949 901.15723 1433.8095 898.76953 1432.3887 C 896.38184 1430.9677 893.70215 1430.2578 890.72852 1430.2578 z M 911.71094 1430.8281 L 911.71094 1463.041 L 915.97461 1463.041 L 915.97461 1447.8574 L 932.7168 1447.8574 L 932.7168 1463.041 L 936.98047 1463.041 L 936.98047 1430.8281 L 932.7168 1430.8281 L 932.7168 1444.0566 L 915.97461 1444.0566 L 915.97461 1430.8281 L 911.71094 1430.8281 z M 890.75 1433.9277 C 892.87403 1433.9277 894.78516 1434.4688 896.48438 1435.5527 C 898.19824 1436.6221 899.49414 1438.1386 900.37305 1440.1016 C 901.2666 1442.0498 901.71484 1444.335 901.71484 1446.957 C 901.71484 1451.1026 900.67383 1454.3027 898.59375 1456.5586 C 896.52832 1458.8145 893.8916 1459.9434 890.68359 1459.9434 C 887.53418 1459.9434 884.91309 1458.8301 882.81836 1456.6035 C 880.73828 1454.3623 879.69727 1451.2998 879.69727 1447.418 C 879.69727 1442.5693 880.78125 1439.1123 882.94922 1437.0469 C 885.13184 1434.9668 887.73243 1433.9277 890.75 1433.9277 z "
     style="font-style:normal;font-weight:normal;font-size:52px;font-family:Arial;fill:#000000;fill-opacity:1;stroke:none;stroke-width:1px;stroke-linecap:butt;stroke-linejoin:miter;stroke-opacity:1" />
  <path
     id="path3103"
     d="M 190.95898 82.509766 L 196.05859 137.41016 L 201.16016 82.509766 L 190.95898 82.509766 z M 1022.6289 95.769531 L 1011.832 101.91797 L 1016.8555 173.70898 L 1022.6289 95.769531 z M 831.22266 133.5625 L 820.43164 139.76758 L 890.55664 173.70898 L 831.22266 133.5625 z M 342.75781 143.10938 L 337.35938 152.10938 L 385.6582 173.70898 L 342.75781 143.10938 z M 133.06055 246.60938 L 67.359375 278.70898 L 72.759766 287.70898 L 133.06055 246.60938 z M 448.6582 283.20898 L 443.55859 356.10742 L 454.05859 356.10742 L 448.6582 283.20898 z M 953.85547 283.20898 L 948.75586 338.4082 L 959.25586 338.4082 L 953.85547 283.20898 z M 890.55664 611.40625 L 885.45508 666.60547 L 895.95508 666.60547 L 890.55664 611.40625 z M 190.95898 842.50977 L 196.05859 897.41016 L 201.16016 842.50977 L 190.95898 842.50977 z M 1022.6289 855.76953 L 1011.832 861.91797 L 1016.8555 933.70898 L 1022.6289 855.76953 z M 831.22266 893.5625 L 820.43164 899.76758 L 890.55664 933.70898 L 831.22266 893.5625 z M 342.75781 903.10938 L 337.35938 912.10938 L 385.6582 933.70898 L 342.75781 903.10938 z M 133.06055 1006.6094 L 67.359375 1038.709 L 72.759766 1047.709 L 133.06055 1006.6094 z M 448.6582 1043.209 L 443.55859 1116.1074 L 454.05859 1116.1074 L 448.6582 1043.209 z M 953.85547 1043.209 L 948.75586 1098.4082 L 959.25586 1098.4082 L 953.85547 1043.209 z M 890.55664 1371.4062 L 885.45508 1426.6055 L 895.95508 1426.6055 L 890.55664 1371.4062 z "
     style="fill:#000000;fill-opacity:1;fill-rule:nonzero;stroke:none;stroke-width:3;stroke-miterlimit:4;stroke-dasharray:none" />
  <path
     d="m 832.05612,1384.306 h -9 m 9,-9 h -9 m 9,-8.9999 h -9 m 9,-8.9999 h -9 m 9,-9 h -9 m 9,-8.9999 h -9 M 1147.6544,983.20878 h -9 m 9,-8.99994 h -9 m 9,-8.99993 h -9 m 9,-8.99994 h -9 m 9,-8.99994 h -9 m 9,-8.99994 h -9 m -311.09828,396.59721 62.99965,36.5998 63.29966,-36.5998 M 1143.1544,933.70913 v -72.89949 l -62.9997,-36.29975 -63.2996,36.29975 m -189.29898,36.59974 -63.2997,36.29975 -62.9996,-36.29975 m 189.29895,254.99822 45.89975,-26.3998 m -172.1991,99.2993 v -72.8995 l -62.9996,-36.2998 v -72.8994 l -62.9997,-36.5998 v -72.89947 l 62.9997,-36.29975 m 315.59828,36.29975 -45.29977,-26.09982 m 45.29977,26.09982 v 72.89947 l -62.99967,36.5998 -63.29966,-36.5998 v -72.89947 l 45.89975,-26.39982 m 126.29928,53.09963 -45.8997,-26.69981 m 126.2993,0 -45.2998,26.39981 M 701.25682,897.40938 v -72.89949 m 126.2993,437.39691 62.99965,-36.5997 m 63.29966,109.4992 v -72.8995 l -63.29966,-36.5997 m -126.29935,0 63.2997,36.5997 m -52.7997,86.9994 52.7997,-14.0999 m -80.6996,1.2 -33.8998,-59.0996 51.2997,-51.5996 m 63.2997,36.5997 v 72.8995 m 126.29931,0 62.99967,36.5998 m -123.89935,-222.8985 -47.69974,-27.2998 m 43.19977,35.0998 -47.30759,-27.2676 m 302.00621,-195.33087 63.2996,36.59974 62.9997,-36.59974 m -69.8996,-110.39923 4.5,7.79995 m -12.3,-3.29998 4.5,7.79994 m -12.2999,-3.29997 4.4999,7.79994 m -12.2999,-3.29998 4.5,7.79995 m -12.3,-3.29998 4.5,7.79995 m -12.2999,-3.29998 4.5,7.79995 m -12.3,-3.29998 4.5,7.79995 m -12.2999,-3.29998 4.4999,7.79994 m 61.4997,175.19878 h -8.9999 m 8.9999,-8.9999 h -8.9999 m 8.9999,-9 h -8.9999 m 8.9999,-8.9999 h -8.9999 m 8.9999,-9 h -8.9999 m 8.9999,-8.99989 h -8.9999 m 8.9999,-8.99993 h -8.9999 m 8.9999,-8.99994 h -8.9999 M 133.05992,787.91015 l 45.5997,26.39981 m 143.6992,10.19993 v 55.19961 m -62.6996,132.2991 4.4999,-7.5 m 3.3,12 4.5,-7.5 m 3.3,11.9999 4.5,-7.4999 m 3.2999,11.9999 4.5,-7.5 m 3.3,12 4.5,-7.5 m 3.2999,11.9999 4.5,-7.4999 m -89.3995,5.9999 45.5998,-26.3998 v -72.89947 l -63.2997,-36.29975 -62.9996,36.29975 v 72.89947 l 45.5997,26.3998 m 166.4991,2.4 -4.5,-7.7999 m 12.3,3.2999 -4.5,-7.7999 m 12.2999,3.3 -4.5,-7.8 m 12.3,3.3 -4.5,-7.7999 m 12.2999,3.2999 -4.4999,-7.7999 m 12.2999,3.3 -4.5,-7.8 m 132.2993,-16.19986 v -55.19961 l -63.2997,-36.29975 -62.9996,36.29975 v 72.89947 l 62.9996,36.5998 45.8998,-26.3999 m 22.1999,-80.69939 -4.5,-7.79995 m 12.2999,3.29998 -4.5,-7.79994 m 12.3,3.29997 -4.5,-7.79994 m 12.3,3.29997 -4.5,-7.79994 m 12.2999,3.29998 -4.5,-7.79995 m 12.3,3.29998 -4.5,-7.79995 m 41.6998,7.19995 4.4999,-7.79994 m 3.3,12.29991 4.5,-7.79995 m 3.3,12.29992 4.4999,-7.79995 m 3.3,12.29992 4.5,-7.79995 m 3.3,12.29992 4.5,-7.79995 m 3.3,12.29991 4.4999,-7.79994 m 186.599,284.69803 h 9 m -9,8.9999 h 9 m -9,9 h 9 m -9,8.9999 h 9 m -9,8.9999 h 9 m -9,9 h 9 m 112.79935,73.4994 v -65.0995 m -362.69805,-221.6984 -4.5,-7.5 m 12.3,3 -4.5,-7.5 m 12.2999,3 -4.4999,-7.4999 m 12.2999,2.9999 -4.5,-7.4999 m 12.2999,3 -4.4999,-7.5 m 12.2999,3 -4.5,-7.4999 m 12.3,2.9999 -4.5,-7.4999 m 12.2999,3 -4.5,-7.5 m 122.9994,220.1985 v -68.9995 m 130.79927,1.5 h 8.99995 m -8.99995,8.9999 h 8.99995 m -8.99995,8.9999 h 8.99995 m -8.99995,9 h 8.99995 m -8.99995,8.9999 h 8.99995 m -8.99995,8.9999 h 8.99995 m -8.99995,9 h 8.99995 m -8.99995,8.9999 h 8.99995 M 692.25682,1116.1078 v -68.9995 m 16.7999,-155.69888 56.3997,32.69977 M 89.433317,913.4495 l 4.4999,-7.49995 m 3.3,11.99992 4.500003,-7.49995 m 3.3,11.99991 4.5,-7.49994 m 3.2999,11.99991 4.5,-7.49994 m 3.3,11.99991 4.5,-7.49995 m 3.2999,11.99992 4.5,-7.49995 m 699.1231,-304.14342 h -9 m 9,-8.99994 h -9 m 9,-8.99993 h -9 m 9,-8.99994 h -9 m 9,-8.99994 h -9 m 9,-8.99993 h -9 M 1147.6544,223.20878 h -9 m 9,-8.99994 h -9 m 9,-8.99993 h -9 m 9,-8.99994 h -9 m 9,-8.99994 h -9 m 9,-8.99994 h -9 m -311.09828,396.59723 62.99965,36.59974 63.29966,-36.59974 M 1143.1544,173.70913 v -72.89949 l -62.9997,-36.29975 -63.2996,36.29975 m -189.29898,36.59974 -63.2997,36.29975 -62.9996,-36.29975 m 189.29895,254.99821 45.89975,-26.39981 m -172.1991,99.2993 v -72.89949 l -62.9996,-36.29974 v -72.89949 l -62.9997,-36.59974 v -72.89949 l 62.9997,-36.29975 m 315.59828,36.29975 -45.29977,-26.09982 m 45.29977,26.09982 v 72.89949 l -62.99967,36.59974 -63.29966,-36.59974 v -72.89949 l 45.89975,-26.39982 m 126.29928,53.09963 -45.8997,-26.69981 m 126.2993,0 -45.2998,26.39981 M 701.25682,137.40938 V 64.50989 m 126.2993,437.39694 62.99965,-36.59975 m 63.29966,109.49924 v -72.89949 l -63.29966,-36.59975 m -126.29935,0 63.2997,36.59975 m -52.7997,86.99939 52.7997,-14.0999 m -80.6996,1.19999 -33.8998,-59.09959 51.2997,-51.59964 m 63.2997,36.59975 v 72.89949 m 126.29931,0 62.99967,36.59974 M 892.95575,388.50762 845.25601,361.20781 m 43.19977,35.09976 -47.30759,-27.26753 m 302.00621,-195.33091 63.2996,36.59974 62.9997,-36.59974 62.9997,36.59974 M 1199.5541,63.3099 l 4.5,7.79995 m -12.3,-3.29998 4.5,7.79994 m -12.2999,-3.29997 4.4999,7.79994 m -12.2999,-3.29998 4.5,7.79995 m -12.3,-3.29998 4.5,7.79995 m -12.2999,-3.29998 4.5,7.79995 m -12.3,-3.29998 4.5,7.79995 m -12.2999,-3.29998 4.4999,7.79994 m 61.4997,175.19878 h -8.9999 m 8.9999,-8.99994 h -8.9999 m 8.9999,-8.99994 h -8.9999 m 8.9999,-8.99993 h -8.9999 m 8.9999,-8.99994 h -8.9999 m 8.9999,-8.99994 h -8.9999 m 8.9999,-8.99993 h -8.9999 m 8.9999,-8.99994 h -8.9999 M 133.05992,27.91015 l 45.5997,26.39981 m 143.6992,10.19993 v 55.19961 m -62.6996,132.29908 4.4999,-7.49995 m 3.3,11.99992 4.5,-7.49995 m 3.3,11.99991 4.5,-7.49994 m 3.2999,11.99991 4.5,-7.49994 m 3.3,11.99991 4.5,-7.49995 m 3.2999,11.99992 4.5,-7.49995 m -89.3995,5.99996 45.5998,-26.39981 v -72.89949 l -63.2997,-36.29975 -62.9996,36.29975 v 72.89949 l 45.5997,26.39981 m 166.4991,2.39998 -4.5,-7.79994 m 12.3,3.29998 -4.5,-7.79995 m 12.2999,3.29998 -4.5,-7.79995 m 12.3,3.29998 -4.5,-7.79995 m 12.2999,3.29998 -4.4999,-7.79995 m 12.2999,3.29998 -4.5,-7.79994 m 132.2993,-16.19989 v -55.19961 l -63.2997,-36.29975 -62.9996,36.29975 v 72.89949 l 62.9996,36.59974 45.8998,-26.39982 m 22.1999,-80.69943 -4.5,-7.79995 m 12.2999,3.29998 -4.5,-7.79994 m 12.3,3.29997 -4.5,-7.79994 m 12.3,3.29997 -4.5,-7.79994 m 12.2999,3.29998 -4.5,-7.79995 m 12.3,3.29998 -4.5,-7.79995 m 41.6998,7.19995 4.4999,-7.79994 m 3.3,12.29991 4.5,-7.79995 m 3.3,12.29992 4.4999,-7.79995 m 3.3,12.29992 4.5,-7.79995 m 3.3,12.29992 4.5,-7.79995 m 3.3,12.29991 4.4999,-7.79994 m 186.599,284.698 h 9 m -9,8.99994 h 9 m -9,8.99994 h 9 m -9,8.99994 h 9 m -9,8.99993 h 9 m -9,8.99994 h 9 m 112.79935,73.49948 V 505.8068 m -362.69805,-221.69845 -4.5,-7.49994 m 12.3,2.99997 -4.5,-7.49994 m 12.2999,2.99998 -4.4999,-7.49995 m 12.2999,2.99998 -4.5,-7.49995 m 12.2999,2.99998 -4.4999,-7.49995 m 12.2999,2.99998 -4.5,-7.49995 m 12.3,2.99998 -4.5,-7.49995 m 12.2999,2.99998 -4.5,-7.49994 m 122.9994,220.19845 v -68.99951 m 130.79927,1.49999 h 8.99995 m -8.99995,8.99993 h 8.99995 m -8.99995,8.99994 h 8.99995 m -8.99995,8.99994 h 8.99995 m -8.99995,8.99993 h 8.99995 m -8.99995,8.99994 h 8.99995 m -8.99995,8.99994 h 8.99995 m -8.99995,8.99994 h 8.99995 M 692.25682,356.10785 v -68.99952 m 16.7999,-155.69891 56.3997,32.69977 M 89.433321,153.4495 l 4.4999,-7.49995 m 3.3,11.99992 4.499999,-7.49995 m 3.3,11.99991 4.5,-7.49994 m 3.2999,11.99991 4.5,-7.49994 m 3.3,11.99991 4.5,-7.49995 m 3.2999,11.99992 4.5,-7.49995"
     style="fill:none;stroke:#000000;stroke-width:2.99998379px;stroke-linejoin:miter;stroke-opacity:1"
     id="path4185" />
</svg>
