<?xml version="1.0" encoding="utf-8"?>
<!-- Generator: Adobe Illustrator 27.0.0, SVG Export Plug-In . SVG Version: 6.00 Build 0)  -->
<svg version="1.1" id="Слой_1" xmlns="http://www.w3.org/2000/svg" xmlns:xlink="http://www.w3.org/1999/xlink" x="0px" y="0px"
	 viewBox="0 0 527.67 265.3" style="enable-background:new 0 0 527.67 265.3;" xml:space="preserve">
<g>
	<polygon points="311.09,118.28 358.72,88.87 358.74,88.9 359.81,88.22 392.53,107.13 393.73,105.05 366.2,89.14 365.65,50.11 
		363.25,50.15 363.78,87.74 362.12,86.78 362.13,86.77 360.48,85.83 360.38,85.77 360.37,85.77 359.73,85.41 359.09,85.82 
		355.78,87.87 355.25,50.27 352.86,50.31 353.4,89.34 309.76,116.29 272.5,102.84 271.69,105.1 308.7,118.46 308.7,174.32 
		271.95,185.39 272.64,187.68 309.76,176.51 342.61,194.15 343.74,192.03 311.09,174.5 	"/>
	<rect x="319.09" y="123.65" width="2.4" height="45.56"/>
	<rect x="227.41" y="133.11" transform="matrix(0.5875 -0.8092 0.8092 0.5875 -9.0766 250.8188)" width="28.12" height="2.4"/>
	<rect x="374.51" y="172.65" transform="matrix(0.8657 -0.5006 0.5006 0.8657 -34.9451 217.4663)" width="26.52" height="2.4"/>
	<polygon points="410.85,135.85 408.45,135.85 408.45,172.52 375.69,191.45 376.89,193.53 409.65,174.6 442.41,193.53 
		443.61,191.45 410.85,172.52 	"/>
	<polygon points="159.99,224.07 104.82,247.41 104.81,247.39 104.65,247.46 104.65,247.29 104.65,193.69 104.65,191.69 
		104.65,190.99 103.96,190.6 71.89,172.09 70.69,174.17 101.11,191.72 101.1,191.73 102.25,192.39 102.25,193.69 102.25,247.29 
		102.25,249.29 102.25,251.12 104.03,250.35 160.92,226.28 	"/>
	<polygon points="254.01,247.29 254.01,247.46 253.85,247.39 253.84,247.41 198.68,224.07 197.75,226.28 254.64,250.35 
		256.41,251.12 256.41,249.29 256.41,247.29 256.41,211.89 254.01,211.89 	"/>
	<polygon points="262.57,199.21 262.49,199.21 248.13,176.85 244.21,176.85 244.21,205.49 247.81,205.49 247.81,183.13 
		247.89,183.13 262.29,205.49 266.17,205.49 266.17,176.85 262.57,176.85 	"/>
	<polygon points="367.17,209.57 367.09,209.57 352.69,187.21 348.81,187.21 348.81,215.85 352.41,215.85 352.41,193.49 
		352.49,193.49 366.85,215.85 370.77,215.85 370.77,187.21 367.17,187.21 	"/>
	<polygon points="221.43,146.75 221.44,146.74 239.84,172.39 241.79,170.99 222.74,144.43 223.41,143.53 223.39,143.51 
		242.26,117.56 240.32,116.15 220.28,143.71 220.28,143.71 219.77,144.39 	"/>
	<polygon points="247.73,89.29 247.81,89.29 262.21,111.65 266.09,111.65 266.09,83.01 262.49,83.01 262.49,105.37 262.41,105.37 
		248.05,83.01 244.13,83.01 244.13,111.65 247.73,111.65 	"/>
	<path d="M186.37,203.93c-3.12-1.8-7.04-1.8-7.04-1.8c-3.88,0-7.04,1.84-7.04,1.84c-3.12,1.84-4.88,5.2-4.88,5.2
		c-1.8,3.4-1.8,7.8-1.8,7.8c0,4.32,1.8,7.68,1.8,7.68c1.76,3.36,4.88,5.24,4.88,5.24c3.12,1.84,7.04,1.84,7.04,1.84
		c3.92,0,7.04-1.8,7.04-1.8c3.08-1.84,4.88-5.2,4.88-5.2c1.76-3.36,1.76-7.8,1.76-7.8c0-4.48-1.76-7.8-1.76-7.8
		C189.45,205.77,186.37,203.93,186.37,203.93z M187.85,223.17c-1.24,2.6-3.48,3.96-3.48,3.96c-2.2,1.36-5.08,1.36-5.08,1.36
		c-2.8,0-5.04-1.36-5.04-1.36c-2.2-1.36-3.44-3.96-3.44-3.96c-1.28-2.6-1.28-6.12-1.28-6.12c0-3.6,1.24-6.24,1.24-6.24
		c1.24-2.68,3.44-4.04,3.44-4.04c2.24-1.4,5.08-1.4,5.08-1.4c2.92,0,5.12,1.4,5.12,1.4c2.24,1.4,3.44,4.04,3.44,4.04
		c1.24,2.64,1.24,6.2,1.24,6.2C189.09,220.57,187.85,223.17,187.85,223.17z"/>
	<polygon points="466.93,209.57 466.85,209.57 452.49,187.21 448.57,187.21 448.57,215.85 452.17,215.85 452.17,193.49 
		452.25,193.49 466.65,215.85 470.53,215.85 470.53,187.21 466.93,187.21 	"/>
	<polygon points="492.41,198.97 478.33,198.97 478.33,187.21 474.53,187.21 474.53,215.85 478.33,215.85 478.33,202.37 
		492.41,202.37 492.41,215.85 496.21,215.85 496.21,187.21 492.41,187.21 	"/>
	<path d="M503.61,219.85c0.44-0.76,1.12-1.44,1.12-1.44c0.68-0.68,1.76-1.56,1.76-1.56l1.84-1.56c2.52-2.08,3.8-3.92,3.8-3.92
		c1.28-1.84,1.28-3.72,1.28-3.72c0-1.52-0.76-2.76-0.76-2.76c-0.76-1.28-2.16-2-2.16-2c-1.4-0.72-3.32-0.72-3.32-0.72
		c-1.84,0-3.24,0.68-3.24,0.68c-1.4,0.68-2.24,1.96-2.24,1.96c-0.88,1.28-1.04,3.04-1.04,3.04l2.56,0.4c0.12-2,1.12-3.04,1.12-3.04
		c1.04-1.04,2.8-1.04,2.8-1.04c1.08,0,1.92,0.48,1.92,0.48c0.88,0.44,1.36,1.2,1.36,1.2c0.48,0.8,0.48,1.76,0.48,1.76
		c0,1.36-1.04,2.84-1.04,2.84c-1.08,1.52-3.36,3.4-3.36,3.4l-1.6,1.32c-2.36,2-3.52,3.64-3.52,3.64c-1.16,1.68-1.16,3.4-1.16,3.4
		h13.28v-2.36H503.61z"/>
	<polygon points="402.29,107.09 402.37,107.09 416.77,129.45 420.65,129.45 420.65,100.81 417.05,100.81 417.05,123.17 
		416.97,123.17 402.61,100.81 398.69,100.81 398.69,129.45 402.29,129.45 	"/>
	<polygon points="442.49,112.57 428.45,112.57 428.45,100.81 424.65,100.81 424.65,129.45 428.45,129.45 428.45,115.97 
		442.49,115.97 442.49,129.45 446.33,129.45 446.33,100.81 442.49,100.81 	"/>
	<path d="M351.89,41.93c3.16,1.88,7.08,1.88,7.08,1.88c3.88,0,7-1.84,7-1.84c3.12-1.84,4.88-5.2,4.88-5.2
		c1.76-3.36,1.76-7.8,1.76-7.8c0-4.44-1.76-7.8-1.76-7.8c-1.76-3.36-4.88-5.16-4.88-5.16c-3.12-1.84-7-1.84-7-1.84
		c-3.92,0-7.04,1.84-7.04,1.84c-3.16,1.84-4.92,5.24-4.92,5.24c-1.8,3.36-1.8,7.76-1.8,7.76c0,4.36,1.8,7.72,1.8,7.72
		C348.77,40.09,351.89,41.93,351.89,41.93z M350.37,22.85c1.24-2.64,3.44-4.04,3.44-4.04c2.24-1.4,5.12-1.4,5.12-1.4
		c2.88,0,5.08,1.44,5.08,1.44c2.24,1.4,3.48,4,3.48,4c1.2,2.64,1.2,6.2,1.2,6.2c0,3.56-1.24,6.16-1.24,6.16
		c-1.24,2.6-3.48,3.96-3.48,3.96c-2.2,1.4-5.04,1.4-5.04,1.4c-2.84,0-5.08-1.4-5.08-1.4c-2.2-1.36-3.44-3.96-3.44-3.96
		c-1.24-2.56-1.24-6.12-1.24-6.12C349.17,25.49,350.37,22.85,350.37,22.85z"/>
	<path d="M60.61,149.65c-3.12-1.84-7.04-1.84-7.04-1.84c-3.88,0-7.04,1.84-7.04,1.84c-3.12,1.84-4.88,5.24-4.88,5.24
		c-1.8,3.36-1.8,7.76-1.8,7.76c0,4.36,1.8,7.72,1.8,7.72c1.76,3.36,4.88,5.2,4.88,5.2c3.12,1.88,7.04,1.88,7.04,1.88
		c3.92,0,7.04-1.84,7.04-1.84c3.08-1.84,4.88-5.2,4.88-5.2c1.76-3.36,1.76-7.76,1.76-7.76c0-4.48-1.76-7.84-1.76-7.84
		C63.69,151.45,60.61,149.65,60.61,149.65z M62.09,168.85c-1.24,2.6-3.48,3.96-3.48,3.96c-2.2,1.4-5.08,1.4-5.08,1.4
		c-2.8,0-5.04-1.4-5.04-1.4c-2.2-1.36-3.44-3.92-3.44-3.92c-1.28-2.6-1.28-6.16-1.28-6.16c0-3.6,1.24-6.24,1.24-6.24
		c1.24-2.64,3.44-4.04,3.44-4.04c2.24-1.4,5.08-1.4,5.08-1.4c2.92,0,5.12,1.44,5.12,1.44c2.24,1.4,3.44,4,3.44,4
		c1.24,2.64,1.24,6.2,1.24,6.2C63.33,166.25,62.09,168.85,62.09,168.85z"/>
	<polygon points="32.05,160.09 17.97,160.09 17.97,148.33 14.17,148.33 14.17,176.93 17.97,176.93 17.97,163.45 32.05,163.45 
		32.05,176.93 35.85,176.93 35.85,148.33 32.05,148.33 	"/>
</g>
</svg>
