<?xml version="1.0" encoding="UTF-8" standalone="no"?>
<svg
   xmlns:dc="http://purl.org/dc/elements/1.1/"
   xmlns:cc="http://creativecommons.org/ns#"
   xmlns:rdf="http://www.w3.org/1999/02/22-rdf-syntax-ns#"
   xmlns:svg="http://www.w3.org/2000/svg"
   xmlns="http://www.w3.org/2000/svg"
   xmlns:xlink="http://www.w3.org/1999/xlink"
   id="svg889"
   width="720"
   height="810"
   version="1.1">
  <path
     d="m 130.34666,333.88168 q 0,-7.60416 4.08334,-11.89583 4.08333,-4.3125 10.54166,-4.3125 4.22917,0 7.625,2.02084 3.39584,2.02083 5.16667,5.64583 1.79167,3.60416 1.79167,8.1875 0,4.64583 -1.875,8.3125 -1.875,3.66666 -5.3125,5.5625 -3.4375,1.875 -7.41667,1.875 -4.3125,0 -7.70833,-2.08334 -3.39584,-2.08333 -5.14584,-5.6875 -1.75,-3.60416 -1.75,-7.625 z m 4.16667,0.0625 q 0,5.52084 2.95833,8.70834 2.97917,3.16666 7.45834,3.16666 4.5625,0 7.5,-3.20833 2.95833,-3.20833 2.95833,-9.10417 0,-3.72916 -1.27083,-6.5 -1.25,-2.79166 -3.6875,-4.3125 -2.41667,-1.54166 -5.4375,-1.54166 -4.29167,0 -7.39584,2.95833 -3.08333,2.9375 -3.08333,9.83333 z"
     fill="#000"
     id="path910" />
  <path
     d="m 68.494186,607.63666 v -30.54167 h 4.145833 l 16.041666,23.97917 v -23.97917 h 3.875 v 30.54167 h -4.145833 l -16.041666,-24 v 24 z"
     fill="#000"
     id="path919" />
  <path
     d="m 19.060816,607.63666 v -30.54167 h 4.041667 v 12.54167 h 15.874999 v -12.54167 h 4.041666 v 30.54167 H 38.977482 V 593.24083 H 23.102483 v 14.39583 z"
     fill="#000"
     id="path922" />
  <path
     d="m 63.14478,616.34092 v 2.81576 H 47.373296 q -0.03255,-1.05795 0.341797,-2.03451 0.602213,-1.61133 1.920573,-3.17383 1.334635,-1.5625 3.841145,-3.61328 3.889974,-3.1901 5.257162,-5.04557 1.367187,-1.87174 1.367187,-3.5319 0,-1.74154 -1.253255,-2.92969 -1.236979,-1.20443 -3.238932,-1.20443 -2.115886,0 -3.385417,1.26954 -1.269531,1.26953 -1.285807,3.51562 l -3.011068,-0.30924 q 0.309245,-3.36914 2.327474,-5.12696 2.018229,-1.77409 5.419922,-1.77409 3.434245,0 5.436198,1.9043 2.001953,1.9043 2.001953,4.72005 0,1.4323 -0.585938,2.81576 -0.585937,1.38346 -1.953125,2.91341 -1.350911,1.52995 -4.508463,4.19922 -2.636719,2.21354 -3.385417,3.01107 -0.748697,0.78125 -1.236979,1.57877 z"
     fill="#000"
     id="path925" />
  <path
     id="path2318-4-7-5"
     style="fill:none;stroke:#000;stroke-width:3.2;stroke-linecap:square;stroke-linejoin:miter;stroke-miterlimit:10;stroke-dasharray:none;stroke-opacity:1"
     d="m 602.04403,586.40235 -0.96,-1.66276 m 9.5939,-2.58298 -1.6,-2.77128 m 10.3938,-1.19733 -2.56,-4.43406 m 11.3539,0.46544 -3.52,-6.09682 m 12.3138,2.1282 -4.48,-7.75958 m -158.5372,-115.86125 -0.96,1.66276 m 9.5938,2.58298 -1.6,2.77128 m 10.3939,1.19733 -2.56,4.43406 m 11.3538,-0.46544 -3.52,6.09682 m 12.3139,-2.1282 -4.48,7.75958 m 97.2395,-327.91816 -0.96,-1.66276 m 9.5939,-2.58298 -1.6,-2.77128 m 10.3938,-1.19733 -2.56,-4.43406 m 11.3538,0.46544 -3.52,-6.09682 m 12.3139,2.1282 -4.48,-7.75958 m -176.0432,23.91117 0.96,-1.66276 m -9.5938,-2.58298 1.6,-2.77128 m -10.3939,-1.19733 2.56,-4.43406 m -11.3538,0.46544 3.52,-6.09682 m -12.31386,2.1282 4.48,-7.75958 m 30.5354,106.53043 0.96,1.66276 m -9.5938,2.58298 1.6,2.77128 m -10.3939,1.19733 2.56,4.43406 m -11.3538,-0.46544 3.52,6.09682 m -12.31386,-2.1282 4.48,7.75958 m 104.1555,461.61053 h -1.92 m 2.56,9.6 h -3.2 m 4.16,9.6 h -5.12 m 6.08,9.6 h -7.04 m 8,9.6 h -8.96 m 5.44,-207.8072 h -1.92 m 2.56,-9.6 h -3.2 m 4.16,-9.6 h -5.12 m 6.08,-9.6 h -7.04 m 8,-9.6 h -8.96 M 401.88416,321.00186 h -1.92 m 2.56,-9.6 h -3.2 m 4.16,-9.6 h -5.12 m 6.08,-9.6 h -7.04 m 8,-9.6 h -8.96 m -190.07997,90.15478 -45.44,-26.24 m 50.24,17.92003 -45.44,-26.24 m 87.04,5.12 -43.84,25.28 v 73.92 l -64,37.12 v 73.92 l -44.48,25.6 m 300.48,122.24 -44.48,-25.6 m 129.6,-97.6 42.88,-24.64 64,37.12 v 73.92 l -64,36.8 -64,-36.8 v -52.48 m -128,-243.52 -43.92026,-25.09727 m 43.92026,25.09727 v 73.92 l 64,37.12 64,-37.12 v -73.92 l -64,-36.8 -64,36.8 M 656.92413,257.87669 v 52.16 m -148.8,-64.32 -43.2,-24.96 v -73.92 l 64,-36.8 64,36.8 v 73.92 l -42.88,24.96" />
  <path
     id="path1427-7"
     fill="#000"
     d="m 593.16141,662.61491 -1.43946,3.6836 41.77149,31.07812 8.06445,-13.43945 z m -71.89578,-607.0591 5.6601,54.59961 3.9863,0.0996 6.004,-54.69922 z m 72.5293,163.40039 -2.002,3.44922 66.7305,45.76953 V 250.2355 Z m -87.9629,117.29492 -42.6446,31.13672 1.2852,4.46094 49.4238,-22.16016 z m -296.66213,104.1875 -1.43946,3.6836 41.77149,31.07812 8.06445,-13.43945 z m 193.66601,38.28711 -3.90039,0.70313 -5.66992,54.36719 h 15.65234 z m 61.22462,184.06641 -72.85157,34.85742 15.55469,8.95312 59.28518,-40.35351 z" />
  <use
     height="100%"
     width="100%"
     transform="translate(128,148.16)"
     xlink:href="#path910"
     y="0"
     x="0" />
  <use
     height="100%"
     width="100%"
     transform="translate(320.32,254.88)"
     xlink:href="#path910"
     y="0"
     x="0" />
  <use
     height="100%"
     width="100%"
     transform="translate(384.32,439.84)"
     xlink:href="#path910"
     y="0"
     x="0" />
  <use
     height="100%"
     width="100%"
     transform="translate(512.32,369.92)"
     xlink:href="#path910"
     y="0"
     x="0" />
  <use
     height="100%"
     width="100%"
     transform="translate(512.32,222.08)"
     xlink:href="#path910"
     y="0"
     x="0" />
  <use
     height="100%"
     width="100%"
     transform="translate(384.32,144.16)"
     xlink:href="#path910"
     y="0"
     x="0" />
  <use
     height="100%"
     width="100%"
     transform="translate(384.32)"
     xlink:href="#path910"
     y="0"
     x="0" />
  <use
     height="100%"
     width="100%"
     transform="translate(256.32,-75.92)"
     xlink:href="#path910"
     y="0"
     x="0" />
  <use
     height="100%"
     width="100%"
     transform="translate(384.32,-73.92)"
     xlink:href="#path910"
     y="0"
     x="0" />
  <use
     height="100%"
     width="100%"
     transform="translate(512.32)"
     xlink:href="#path910"
     y="0"
     x="0" />
  <use
     height="100%"
     width="100%"
     transform="translate(512.32,-221.76)"
     xlink:href="#path910"
     y="0"
     x="0" />
  <use
     height="100%"
     width="100%"
     transform="translate(256.32,-221.76)"
     xlink:href="#path910"
     y="0"
     x="0" />
  <use
     height="100%"
     width="100%"
     transform="translate(241.4854,-293.17023)"
     xlink:href="#path922"
     y="0"
     x="0" />
  <use
     height="100%"
     width="100%"
     transform="translate(320.32,-37.12)"
     xlink:href="#path922"
     y="0"
     x="0" />
  <use
     height="100%"
     width="100%"
     transform="translate(273.6,-110.72)"
     xlink:href="#path922"
     y="0"
     x="0" />
  <use
     height="100%"
     width="100%"
     transform="translate(256,73.92)"
     xlink:href="#path922"
     y="0"
     x="0" />
  <use
     height="100%"
     width="100%"
     transform="translate(529.92,180.96)"
     xlink:href="#path922"
     y="0"
     x="0" />
  <use
     height="100%"
     width="100%"
     transform="translate(657.92,111.04)"
     xlink:href="#path922"
     y="0"
     x="0" />
  <use
     height="100%"
     width="100%"
     transform="translate(657.92,-36.8)"
     xlink:href="#path922"
     y="0"
     x="0" />
  <use
     height="100%"
     width="100%"
     transform="translate(657.92,-258.88)"
     xlink:href="#path922"
     y="0"
     x="0" />
  <use
     height="100%"
     width="100%"
     transform="translate(529.92,-258.88)"
     xlink:href="#path922"
     y="0"
     x="0" />
  <use
     height="100%"
     width="100%"
     transform="translate(657.92,-480.64)"
     xlink:href="#path922"
     y="0"
     x="0" />
  <use
     height="100%"
     width="100%"
     transform="translate(528.64,-556.2125)"
     id="use926-51"
     xlink:href="#path922"
     y="0"
     x="0" />
  <use
     height="100%"
     width="100%"
     transform="translate(338.24,-480.64)"
     xlink:href="#path922"
     y="0"
     x="0" />
  <use
     height="100%"
     width="100%"
     transform="translate(320.32,-37.12)"
     xlink:href="#path925"
     y="0"
     x="0" />
  <use
     height="100%"
     width="100%"
     transform="translate(256,73.92)"
     xlink:href="#path925"
     y="0"
     x="0" />
  <use
     height="100%"
     width="100%"
     transform="translate(528.64,-556.2125)"
     xlink:href="#path925"
     y="0"
     x="0" />
  <use
     height="100%"
     width="100%"
     transform="translate(256,73.92)"
     xlink:href="#path919"
     y="0"
     x="0" />
  <use
     height="100%"
     width="100%"
     transform="translate(320.32,-37.12)"
     xlink:href="#path919"
     y="0"
     x="0" />
  <use
     height="100%"
     width="100%"
     transform="translate(448.32,-556.2125)"
     xlink:href="#path919"
     y="0"
     x="0" />
  <use
     height="100%"
     width="100%"
     transform="translate(192,-258.88)"
     xlink:href="#path919"
     y="0"
     x="0" />
</svg>
