<?xml version="1.0" encoding="iso-8859-1"?>
<!-- Generator: Adobe Illustrator 19.1.0, SVG Export Plug-In . SVG Version: 6.00 Build 0)  -->
<svg version="1.1" id="&#x421;&#x43B;&#x43E;&#x439;_1"
	 xmlns="http://www.w3.org/2000/svg" xmlns:xlink="http://www.w3.org/1999/xlink" x="0px" y="0px" viewBox="0 0 575.461 293.528"
	 style="enable-background:new 0 0 575.461 293.528;" xml:space="preserve">
<g>
	<rect x="211.154" y="128.93" transform="matrix(-0.866 -0.5 0.5 -0.866 371.6248 359.436)" width="45.628" height="2"/>
	<path d="M320.161,67.793h-2l0,40.018l-1.952-1.127l-1.732-1l-0.5-0.288l-0.5,0.288l-3.684,2.127l0-40.018h-2l0,41.173
		l-42.467,24.518l-1.232,0.712l-49.383-28.512l-0.5-0.288l-0.5,0.288l-48.151,27.8l-1.232,0.712l-34.486-19.911l-0.999,1.733
		l34.485,19.91l0,55.022v1.423l-32.59,18.816l0.999,1.733l31.359-18.105l1.232-0.712l47.651,27.512l1.732,1l0.499,0.288l0.5-0.288
		l48.151-27.8l1.232-0.712l33.924,19.586l0.999-1.733l-33.923-19.586v-1.423v-55.023l47.651-27.511l1.232-0.712l32.591,18.817
		l0.999-1.733l-27.406-15.823L320.161,67.793z M263.093,190.951v1.423l-47.651,27.511l-1.232,0.712l-48.883-28.223l0-55.023v-1.423
		l48.883-28.223l47.651,27.512l1.232,0.711V190.951z"/>
	<rect x="232.968" y="175.557" transform="matrix(-0.4996 -0.8663 0.8663 -0.4996 179.008 500.1522)" width="2" height="45.628"/>
	<rect x="173.695" y="141.336" width="2" height="45.628"/>
	<rect x="312.976" y="240.593" width="2" height="38.757"/>
	<polygon points="527.916,112.57 526.74,114.187 555.293,134.933 555.293,134.933 556.324,135.682 538.974,189.08 537.7,189.08 
		484.1,189.08 482.827,189.08 465.476,135.682 495.061,114.187 493.884,112.57 464.235,134.112 414.237,105.682 413.739,105.399 
		413.243,105.685 411.511,106.685 380.153,124.79 381.152,126.522 412.51,108.417 413.746,107.704 463.47,135.977 480.531,188.488 
		481.149,190.39 481.373,191.08 482.1,191.08 484.1,191.08 537.7,191.08 539.7,191.08 540.426,191.082 540.651,190.39 
		541.269,188.488 558.451,135.609 558.676,134.919 558.088,134.491 	"/>
	<polygon points="511.9,45.843 511.9,44.421 513.132,43.709 561.283,15.91 560.284,14.177 510.401,42.977 509.9,43.264 
		509.9,43.843 509.9,45.843 509.9,80.483 511.9,80.483 	"/>
	<rect x="97.582" y="79.196" transform="matrix(0.5 0.866 -0.866 0.5 122.0591 -51.0206)" width="15.265" height="2"/>
	<rect x="88.603" y="84.38" transform="matrix(-0.5 -0.866 0.866 -0.5 70.4126 211.412)" width="15.265" height="2"/>
	<rect x="123.7" y="69.305" transform="matrix(0.8663 0.4995 -0.4995 0.8663 55.845 -51.8063)" width="2" height="18.227"/>
	<rect x="132.679" y="74.489" transform="matrix(0.8663 0.4995 -0.4995 0.8663 59.6351 -55.5984)" width="2" height="18.227"/>
	<path d="M104.747,99.724c0,3.828,2.305,6.113,7.5,7.441l3.613,0.938c3.789,0.977,5.449,2.442,5.449,4.824
		c0,2.774-2.773,4.785-6.582,4.785c-4.023,0-6.914-2.012-7.246-5.058h-3.535c0.332,4.98,4.473,8.223,10.449,8.223
		c6.484,0,10.547-3.223,10.547-8.379c0-4.043-2.363-6.289-8.203-7.754l-2.949-0.781c-3.828-0.996-5.391-2.266-5.391-4.395
		c0-2.754,2.539-4.648,6.191-4.648c3.672,0,6.113,1.856,6.426,4.883h3.516c-0.156-4.726-4.219-8.047-9.824-8.047
		C108.849,91.755,104.747,95.037,104.747,99.724z"/>
	<path d="M313.977,63.277c7.988,0,12.988-5.605,12.988-14.551s-5-14.57-12.988-14.57c-7.988,0-12.988,5.625-12.988,14.57
		S305.988,63.277,313.977,63.277z M313.977,37.398c5.762,0,9.375,4.375,9.375,11.328c0,6.934-3.613,11.309-9.375,11.309
		c-5.762,0-9.375-4.375-9.375-11.309C304.602,41.773,308.215,37.398,313.977,37.398z"/>
	<polygon points="371.633,142.919 371.457,142.919 356.028,120.79 352.61,120.79 352.61,148.974 356.086,148.974 356.086,126.923 
		356.262,126.923 371.692,148.974 375.11,148.974 375.11,120.79 371.633,120.79 	"/>
	<polygon points="371.594,165.162 356.125,165.162 356.125,152.974 352.61,152.974 352.61,181.158 356.125,181.158 356.125,168.326 
		371.594,168.326 371.594,181.158 375.11,181.158 375.11,152.974 371.594,152.974 	"/>
	<path d="M313.976,206.956c-7.988,0-12.988,5.625-12.988,14.57s5,14.551,12.988,14.551c7.988,0,12.988-5.605,12.988-14.551
		S321.965,206.956,313.976,206.956z M313.976,232.835c-5.762,0-9.375-4.375-9.375-11.309c0-6.953,3.613-11.328,9.375-11.328
		c5.762,0,9.375,4.375,9.375,11.328C323.351,228.46,319.738,232.835,313.976,232.835z"/>
	<polygon points="503.127,93.015 503.303,93.015 518.732,115.066 522.15,115.066 522.15,86.883 518.674,86.883 518.674,109.012 
		518.498,109.012 503.068,86.883 499.65,86.883 499.65,115.066 503.127,115.066 	"/>
	<polygon points="122.217,229.319 122.041,229.319 106.612,207.19 103.194,207.19 103.194,235.373 106.67,235.373 106.67,213.322 
		106.846,213.322 122.276,235.373 125.694,235.373 125.694,207.19 122.217,207.19 	"/>
	<polygon points="78.54,219.377 63.071,219.377 63.071,207.19 59.555,207.19 59.555,235.373 63.071,235.373 63.071,222.541 
		78.54,222.541 78.54,235.373 82.055,235.373 82.055,207.19 78.54,207.19 	"/>
	<path d="M89.583,239.387l4.99-5.154c3.295-3.404,4.293-5.045,4.293-7.246c0-3.022-2.776-5.414-6.303-5.414
		c-3.719,0-6.508,2.57-6.508,6.016v0.014h2.379v-0.014c0-2.201,1.75-3.869,4.061-3.869c2.174,0,3.91,1.518,3.91,3.418
		c0,1.641-0.629,2.693-3.281,5.482l-6.945,7.315v1.695h13.016v-2.188h-9.611V239.387z"/>
	<polygon points="64.561,136.505 65.061,136.216 98.907,116.675 97.908,114.943 64.561,134.195 15.178,105.684 14.179,107.416 
		64.062,136.216 	"/>
	<path d="M85.645,70.993c7.988,0,12.988-5.605,12.988-14.551s-5-14.57-12.988-14.57c-7.988,0-12.988,5.625-12.988,14.57
		S77.656,70.993,85.645,70.993z M85.645,45.114c5.762,0,9.375,4.375,9.375,11.328c0,6.934-3.613,11.309-9.375,11.309
		c-5.762,0-9.375-4.375-9.375-11.309C76.27,49.489,79.883,45.114,85.645,45.114z"/>
	<path d="M143.245,70.994c7.988,0,12.988-5.605,12.988-14.551s-5-14.57-12.988-14.57c-7.988,0-12.988,5.625-12.988,14.57
		S135.256,70.994,143.245,70.994z M143.245,45.115c5.762,0,9.375,4.375,9.375,11.328c0,6.934-3.613,11.309-9.375,11.309
		c-5.762,0-9.375-4.375-9.375-11.309C133.87,49.49,137.483,45.115,143.245,45.115z"/>
</g>
</svg>
