<?xml version="1.0" encoding="utf-8"?>
<!-- Generator: Adobe Illustrator 16.0.0, SVG Export Plug-In . SVG Version: 6.00 Build 0)  -->
<!DOCTYPE svg PUBLIC "-//W3C//DTD SVG 1.1//EN" "http://www.w3.org/Graphics/SVG/1.1/DTD/svg11.dtd">
<svg version="1.1" id="Слой_1" xmlns="http://www.w3.org/2000/svg" xmlns:xlink="http://www.w3.org/1999/xlink" x="0px" y="0px"
	 width="560.807px" height="325.729px" viewBox="0 0 560.807 325.729" enable-background="new 0 0 560.807 325.729"
	 xml:space="preserve">
<g>
	<rect x="162.259" y="196.185" width="2.398" height="45.633"/>
	<rect x="241.288" y="196.185" width="2.4" height="45.633"/>
	<rect x="185.581" y="32.961" transform="matrix(0.5 0.866 -0.866 0.5 133.7767 -163.3929)" width="45.627" height="2.399"/>
	<rect x="117.139" y="32.96" transform="matrix(0.5 -0.866 0.866 0.5 40.3897 138.2801)" width="45.627" height="2.401"/>
	<rect x="151.358" y="92.234" width="45.629" height="2.398"/>
	<path d="M301.606,163.443L301.606,163.443l1.133-0.654l1.133,0.654v-0.001l28.625,16.524l1.195-2.078l-24.57-14.188v-38.666h-2.398
		v37.281l-3.383-1.953l-0.602-0.348l-0.602,0.348l-3.383,1.953v-37.281h-2.398v38.666l-43.5,25.115l-48.684-28.109v-56.584
		l28.292-49.004h34.292v-2.4h-34.292L204.013,3.435l-0.346-0.6h-0.693h-2h-53.6h-2l-0.693-0.002l-0.348,0.602l-28.799,49.883
		l-0.346,0.6l0.346,0.6l1,1.732l0,0l26.8,46.419l-0.001,0l1,1.73l0.346,0.602h0.695h2h54.398v55.707l-48.682,28.108l-43.5-25.113
		v-38.668h-2.4v37.282l-1.652-0.954l0,0l-1.732-1l-0.598-0.348l-0.6,0.348l-1.732,1l0,0l-1.652,0.954v-37.282h-2.4v38.668
		l-24.572,14.186l1.199,2.078l28.624-16.525l0.001,0.002l1.132-0.655l1.132,0.655l0.001-0.002l47.549,27.451v56.219l-49.281,28.449
		l1.197,2.078l49.285-28.451l32.354,18.678l1.199-2.078l-32.354-18.678v-56.215l48.684-28.107l48.682,28.105v56.219l-32.352,18.676
		l1.197,2.078l32.355-18.678l49.281,28.451l0.602,0.352l0.602-0.352l30.352-17.523l-1.195-2.078l-29.758,17.176l-48.684-28.104
		v-56.215L301.606,163.443z M146.066,102.601l-0.653-1.131l0,0l-27.455-47.553l27.455-47.551l0,0l0.653-1.131h1.308h53.6h1.306
		l0.653,1.131l0,0l27.455,47.551l-28.107,48.684h-54.906H146.066z"/>
	<rect x="1.093" y="168.965" transform="matrix(-0.866 -0.5 0.5 -0.866 -50.3328 326.8434)" width="35.053" height="2.399"/>
	<polygon points="401.372,163.442 401.372,163.443 402.505,162.789 403.638,163.443 403.638,163.443 451.786,191.24 
		452.989,189.162 404.84,161.364 404.841,161.363 403.106,160.363 402.505,160.017 401.903,160.363 371.552,177.888 
		372.747,179.966 	"/>
	<polygon points="210.669,284.755 196.177,261.513 191.587,261.513 191.587,290.208 195.298,290.208 195.298,266.982 
		210.005,290.208 214.36,290.208 214.36,261.513 210.669,261.513 	"/>
	<polygon points="210.435,306.06 195.513,306.06 195.513,294.208 191.587,294.208 191.587,322.896 195.513,322.896 195.513,309.482 
		210.435,309.482 210.435,322.896 214.36,322.896 214.36,294.208 210.435,294.208 	"/>
	<path d="M352.505,174.724c-4.844,0-8.5,1.773-10.977,5.312c-1.93,2.758-2.891,6.078-2.891,9.961c0,4.297,1.125,7.852,3.383,10.664
		c2.523,2.914,5.992,4.375,10.406,4.375c4.727,0,8.367-1.664,10.922-5c2.172-2.836,3.258-6.398,3.258-10.688
		c0-3.953-0.953-7.203-2.852-9.742C361.317,176.349,357.567,174.724,352.505,174.724z M360.325,197.88
		c-1.531,2.453-4.008,3.68-7.43,3.68c-3.609,0-6.211-1.094-7.82-3.273s-2.414-4.859-2.414-8.039c0-3.969,0.938-6.977,2.812-9.008
		c1.875-2.039,4.297-3.062,7.266-3.062c3.062,0,5.469,1.031,7.234,3.086c1.766,2.062,2.648,4.773,2.648,8.148
		C362.622,192.599,361.856,195.419,360.325,197.88z"/>
	<path d="M291.646,93.636c-1.93,2.76-2.891,6.08-2.891,9.961c0,4.297,1.125,7.852,3.383,10.664
		c2.523,2.916,5.992,4.375,10.406,4.375c4.727,0,8.367-1.668,10.922-5c2.172-2.84,3.258-6.4,3.258-10.684
		c0-3.959-0.953-7.207-2.852-9.746c-2.438-3.256-6.188-4.883-11.25-4.883C297.778,88.324,294.122,90.093,291.646,93.636z
		 M310.091,94.867c1.766,2.057,2.648,4.771,2.648,8.145c0,3.189-0.766,6.012-2.297,8.467c-1.531,2.453-4.008,3.682-7.43,3.682
		c-3.609,0-6.211-1.092-7.82-3.271c-1.609-2.182-2.414-4.861-2.414-8.037c0-3.973,0.938-6.977,2.812-9.014
		c1.875-2.039,4.297-3.057,7.266-3.057C305.919,91.781,308.325,92.808,310.091,94.867z"/>
	<path d="M53.206,174.724c-4.844,0-8.502,1.773-10.977,5.312c-1.926,2.758-2.891,6.078-2.891,9.961
		c0,4.297,1.127,7.852,3.379,10.664c2.527,2.914,5.996,4.375,10.41,4.375c4.727,0,8.367-1.664,10.918-5
		c2.176-2.836,3.262-6.398,3.262-10.688c0-3.953-0.949-7.203-2.852-9.742C62.022,176.349,58.272,174.724,53.206,174.724z
		 M61.028,197.88c-1.529,2.453-4.006,3.68-7.432,3.68c-3.605,0-6.213-1.094-7.822-3.273c-1.607-2.18-2.412-4.859-2.412-8.039
		c0-3.969,0.938-6.977,2.812-9.008c1.875-2.039,4.297-3.062,7.266-3.062c3.061,0,5.473,1.031,7.236,3.086
		c1.766,2.062,2.646,4.773,2.646,8.148C63.323,192.599,62.56,195.419,61.028,197.88z"/>
	<path d="M103.011,118.636c4.727,0,8.367-1.668,10.92-5c2.174-2.84,3.26-6.4,3.26-10.684c0-3.959-0.949-7.207-2.85-9.746
		c-2.436-3.256-6.186-4.883-11.25-4.883c-4.846,0-8.504,1.77-10.979,5.312c-1.926,2.76-2.891,6.08-2.891,9.961
		c0,4.297,1.127,7.852,3.381,10.664C95.128,117.177,98.597,118.636,103.011,118.636z M96.06,94.837
		c1.875-2.039,4.295-3.057,7.266-3.057c3.059,0,5.471,1.027,7.236,3.086c1.764,2.057,2.645,4.771,2.645,8.145
		c0,3.189-0.764,6.012-2.293,8.467c-1.531,2.453-4.008,3.682-7.434,3.682c-3.605,0-6.213-1.092-7.82-3.271
		c-1.609-2.182-2.412-4.861-2.412-8.037C93.247,99.878,94.185,96.875,96.06,94.837z"/>
	<path d="M286.028,68.654c3.867,0,6.938-1.23,9.219-3.691c1.898-2.043,3.023-4.576,3.359-7.598h-3.789
		c-0.391,1.889-0.984,3.412-1.781,4.57c-1.492,2.201-3.672,3.301-6.539,3.301c-3.109,0-5.455-1.045-7.021-3.135
		c-1.57-2.09-2.355-4.814-2.355-8.174c0-4.102,0.871-7.145,2.609-9.131c1.738-1.984,4.018-2.979,6.846-2.979
		c2.32,0,4.117,0.541,5.398,1.621c1.281,1.082,2.141,2.547,2.57,4.395h3.789c-0.219-2.434-1.336-4.609-3.344-6.523
		c-2-1.914-4.82-2.871-8.453-2.871c-4.26,0-7.6,1.473-10.021,4.414c-2.238,2.709-3.359,6.18-3.359,10.41
		c0,5.574,1.492,9.695,4.473,12.363C279.894,67.646,282.694,68.654,286.028,68.654z"/>
	<rect x="302.075" y="39.22" width="3.516" height="28.691"/>
	<path d="M352.505,232.326c-4.844,0-8.5,1.766-10.977,5.312c-1.93,2.758-2.891,6.078-2.891,9.961c0,4.297,1.125,7.852,3.383,10.664
		c2.523,2.914,5.992,4.375,10.406,4.375c4.727,0,8.367-1.672,10.922-5c2.172-2.844,3.258-6.406,3.258-10.688
		c0-3.961-0.953-7.203-2.852-9.742C361.317,233.951,357.567,232.326,352.505,232.326z M360.325,255.474
		c-1.531,2.461-4.008,3.688-7.43,3.688c-3.609,0-6.211-1.094-7.82-3.273s-2.414-4.859-2.414-8.039c0-3.969,0.938-6.977,2.812-9.016
		c1.875-2.031,4.297-3.055,7.266-3.055c3.062,0,5.469,1.031,7.234,3.086s2.648,4.773,2.648,8.148
		C362.622,250.201,361.856,253.021,360.325,255.474z"/>
	<polygon points="454.724,247.763 452.989,246.763 452.388,246.419 451.786,246.763 402.505,275.212 372.747,258.037 
		371.552,260.115 401.903,277.638 402.505,277.99 403.106,277.638 404.841,276.638 404.84,276.637 452.388,249.189 484.739,267.865 
		485.942,265.787 454.723,247.764 	"/>
	<polygon points="509.966,284.755 495.474,261.513 490.888,261.513 490.888,290.208 494.599,290.208 494.599,266.982 
		509.302,290.208 513.661,290.208 513.661,261.513 509.966,261.513 	"/>
	<polygon points="536.505,273.373 521.583,273.373 521.583,261.513 517.661,261.513 517.661,290.208 521.583,290.208 
		521.583,276.787 536.505,276.787 536.505,290.208 540.435,290.208 540.435,261.513 536.505,261.513 	"/>
	<path d="M548.903,291.81c0.508-0.445,1.211-0.914,2.102-1.406l1.875-1.039c1.648-0.922,2.797-1.703,3.43-2.352
		c1.109-1.117,1.656-2.453,1.656-4.023c0-1.484-0.516-2.836-1.547-4.047c-1.039-1.211-2.68-1.82-4.922-1.82
		c-2.695,0-4.578,0.953-5.641,2.844c-0.602,1.078-0.922,2.469-0.945,4.172h2.5c0.039-1.211,0.227-2.156,0.578-2.844
		c0.641-1.273,1.812-1.914,3.5-1.914c1.133,0,2.047,0.336,2.734,1.008c0.68,0.672,1.023,1.57,1.023,2.711
		c0,0.977-0.375,1.844-1.125,2.602c-0.469,0.484-1.297,1.062-2.469,1.75l-2.625,1.516c-1.766,1.023-2.945,2.156-3.547,3.406
		c-0.609,1.25-0.961,2.711-1.047,4.398h13.438v-2.32h-10.695C547.419,293.482,547.989,292.599,548.903,291.81z"/>
</g>
</svg>
