<?xml version="1.0" encoding="utf-8"?>
<!-- Generator: Adobe Illustrator 27.6.1, SVG Export Plug-In . SVG Version: 6.00 Build 0)  -->
<svg version="1.1" id="Слой_1" xmlns="http://www.w3.org/2000/svg" xmlns:xlink="http://www.w3.org/1999/xlink" x="0px" y="0px"
	 viewBox="0 0 528.39 720.94" style="enable-background:new 0 0 528.39 720.94;" xml:space="preserve">
<g>
	<rect x="112.09" y="638.68" transform="matrix(0.8661 -0.4998 0.4998 0.8661 -302.333 150.9629)" width="37.13" height="2.4"/>
	<polygon points="165.65,566.69 165.65,564.76 165.65,562.76 165.65,562.06 164.96,561.67 161.65,559.76 194.61,540.72 
		193.41,538.64 159.25,558.38 131.69,542.48 130.49,544.56 162.11,562.79 162.1,562.81 163.25,563.46 163.25,564.76 163.25,598.92 
		165.65,598.92 165.65,569.46 199.81,549.76 198.61,547.68 	"/>
	<polygon points="113.37,512.76 115.77,512.76 115.77,477.05 159.25,451.95 193.21,471.56 194.41,469.48 161.65,450.56 
		164.96,448.65 165.65,448.26 165.65,447.56 165.65,445.56 165.65,443.64 198.41,462.56 199.61,460.48 165.65,440.87 165.65,410.2 
		163.25,410.2 163.25,445.56 163.25,446.86 162.1,447.52 162.11,447.53 114.63,474.94 68.68,443.05 94.53,398.28 92.45,397.08 
		64.69,445.16 36.93,397.08 34.85,398.28 63.05,447.12 14.17,475.32 15.37,477.4 59.71,451.82 113.37,477.12 	"/>
	<rect x="133.11" y="189" transform="matrix(0.4995 -0.8663 0.8663 0.4995 -116.2449 222.3668)" width="2.4" height="45.57"/>
	<rect x="73.89" y="223.16" width="2.4" height="45.6"/>
	<rect x="111.52" y="278.96" transform="matrix(0.8661 -0.4998 0.4998 0.8661 -122.0488 104.6365)" width="45.59" height="2.4"/>
	<polygon points="259.81,417.24 268.61,417.24 268.29,414.84 260.13,414.84 	"/>
	<polygon points="258.53,426.84 269.89,426.84 269.57,424.44 258.85,424.44 	"/>
	<polygon points="262.69,395.64 262.37,398.04 266.05,398.04 265.73,395.64 	"/>
	<polygon points="261.09,407.64 267.33,407.64 267.01,405.24 261.41,405.24 	"/>
	<rect x="362.77" y="410.2" width="2.4" height="16.16"/>
	<polygon points="453.93,269.8 452.73,267.72 413.25,290.52 414.45,292.6 	"/>
	<rect x="432.39" y="189" transform="matrix(0.4994 -0.8664 0.8664 0.4994 33.5644 481.654)" width="2.4" height="45.57"/>
	<rect x="373.17" y="223.16" width="2.4" height="45.6"/>
	<path d="M363.37,275.8l0.43,0.25l1.28,0.75l0,0l47.56,27.46v54.91v1.31l-32.76,18.94l1.2,2.08l31.64-18.29l0,0l1.22-0.71l0.5-0.29
		l0,0l0.6-0.35v-0.69v-2v-54.91l47.56-27.46l0,0l1.28-0.75l0.43-0.25l0,0l0.6-0.35v-0.69v-2v-53.6v-2v-0.69l-0.6-0.35l0,0
		l-0.43-0.25l-1.29-0.75l0,0l-47.56-27.46v-56.22l32.76-18.89l-1.2-2.08l-32.76,18.89l-48.68-28.11v-1.31v-53.6v-1.31l47.56-27.46
		l0,0l1.12-0.65l1.12,0.65l0,0l47.56,27.46v1.31v34.4h2.4v-34.4v-2v-0.69l-0.6-0.35l0,0l-0.43-0.25l-1.28-0.75l0,0l-48.16-27.81l0,0
		l-0.6-0.35l-0.6,0.35l0,0l-48.16,27.81l0,0l-1.28,0.75l-0.43,0.25l0,0l-0.6,0.35v0.69v2v53.6v2v0.69l0.6,0.35l0,0l0.43,0.25
		l1.29,0.75l0,0l47.56,27.46v56.21l-47.56,27.46l0,0l-1.29,0.75l-0.43,0.25l0,0l-0.6,0.35v0.69v2v53.6v2v0.69L363.37,275.8
		L363.37,275.8z M365.17,272.76v-53.6v-1.31l48.68-28.11l48.68,28.11v1.31v53.6v1.31l-48.68,28.11l-48.68-28.11V272.76z"/>
	<polygon points="414.45,119.8 442.61,103.56 441.42,101.48 413.26,117.72 	"/>
	<rect x="432.39" y="16.2" transform="matrix(0.4994 -0.8664 0.8664 0.4994 183.2689 395.157)" width="2.4" height="45.57"/>
	<rect x="373.17" y="50.36" width="2.4" height="45.6"/>
	<polygon points="448.02,461.28 415.05,480.29 415.05,478.36 415.05,476.36 415.05,475.67 412.74,474.32 412.73,474.33 
		411.05,473.36 444.01,454.32 442.81,452.24 408.65,471.98 381.09,456.08 379.9,458.16 412.65,477.05 412.65,478.36 412.65,531.96 
		412.65,533.27 379.89,552.2 381.1,554.28 412.73,536 412.74,536 415.05,534.65 415.05,533.96 415.05,531.96 415.05,483.05 
		449.21,463.36 	"/>
	<polygon points="424.13,542.56 426.13,543.96 428.61,539.6 426.45,538.6 	"/>
	<polygon points="454.77,551.92 452.57,550.92 447.89,559.04 449.85,560.44 	"/>
	<polygon points="437.33,543.72 435.17,542.68 432.05,548.08 434.05,549.44 	"/>
	<polygon points="418.21,538.44 419.89,535.52 417.73,534.48 416.21,537.08 	"/>
	<polygon points="441.97,554.92 446.05,547.84 443.85,546.8 439.97,553.56 	"/>
	<polygon points="457.77,565.92 463.49,556.04 461.29,555 455.81,564.56 	"/>
	<polygon points="365.17,583 362.77,583 362.77,618.36 362.77,619.67 331.45,637.76 332.65,639.84 358.78,624.75 392.73,644.36 
		393.93,642.28 361.18,623.36 362.85,622.4 362.85,622.4 364.4,621.5 364.58,621.4 364.58,621.4 365.17,621.05 365.17,620.36 
		365.17,618.36 365.17,616.44 397.93,635.36 399.13,633.28 365.17,613.67 	"/>
	<rect x="312.89" y="670.12" width="2.4" height="36.64"/>
	<polygon points="514.22,535 513.01,532.92 462.85,561.88 433.89,612.04 435.97,613.24 463.73,565.16 491.49,613.24 493.57,612.04 
		465.37,563.2 	"/>
	<path d="M171.49,607.16c-3.12-1.84-7.04-1.84-7.04-1.84c-3.88,0-7.04,1.84-7.04,1.84c-3.12,1.84-4.88,5.2-4.88,5.2
		c-1.8,3.4-1.8,7.8-1.8,7.8c0,4.36,1.8,7.72,1.8,7.72c1.76,3.36,4.88,5.2,4.88,5.2c3.12,1.84,7.04,1.84,7.04,1.84
		c3.92,0,7.04-1.8,7.04-1.8c3.08-1.84,4.88-5.2,4.88-5.2c1.76-3.36,1.76-7.8,1.76-7.8c0-4.48-1.76-7.8-1.76-7.8
		C174.57,608.96,171.49,607.16,171.49,607.16z M172.97,626.36c-1.24,2.6-3.48,3.96-3.48,3.96c-2.2,1.36-5.08,1.36-5.08,1.36
		c-2.8,0-5.04-1.36-5.04-1.36c-2.2-1.36-3.44-3.96-3.44-3.96c-1.28-2.56-1.28-6.12-1.28-6.12c0-3.6,1.24-6.24,1.24-6.24
		c1.24-2.64,3.44-4.04,3.44-4.04c2.24-1.4,5.08-1.4,5.08-1.4c2.92,0,5.12,1.4,5.12,1.4c2.24,1.4,3.44,4.04,3.44,4.04
		c1.24,2.64,1.24,6.2,1.24,6.2C174.21,623.76,172.97,626.36,172.97,626.36z"/>
	<path d="M221.37,520.76c-3.12-1.84-7.04-1.84-7.04-1.84c-3.88,0-7.04,1.84-7.04,1.84c-3.12,1.84-4.88,5.2-4.88,5.2
		c-1.8,3.4-1.8,7.8-1.8,7.8c0,4.36,1.8,7.72,1.8,7.72c1.76,3.36,4.88,5.2,4.88,5.2c3.12,1.84,7.04,1.84,7.04,1.84
		c3.92,0,7.04-1.8,7.04-1.8c3.08-1.84,4.88-5.2,4.88-5.2c1.76-3.36,1.76-7.8,1.76-7.8c0-4.48-1.76-7.8-1.76-7.8
		C224.45,522.56,221.37,520.76,221.37,520.76z M222.85,539.96c-1.24,2.6-3.48,3.96-3.48,3.96c-2.2,1.36-5.08,1.36-5.08,1.36
		c-2.8,0-5.04-1.36-5.04-1.36c-2.2-1.36-3.44-3.96-3.44-3.96c-1.28-2.56-1.28-6.12-1.28-6.12c0-3.6,1.24-6.24,1.24-6.24
		c1.24-2.68,3.44-4.04,3.44-4.04c2.24-1.4,5.08-1.4,5.08-1.4c2.92,0,5.12,1.4,5.12,1.4c2.24,1.4,3.44,4.04,3.44,4.04
		c1.24,2.64,1.24,6.2,1.24,6.2C224.09,537.36,222.85,539.96,222.85,539.96z"/>
	<polygon points="125.53,547.8 125.53,519.16 121.93,519.16 121.93,541.52 121.85,541.52 107.49,519.16 103.57,519.16 103.57,547.8 
		107.17,547.8 107.17,525.44 107.25,525.44 121.65,547.8 	"/>
	<polygon points="95.77,530.92 81.69,530.92 81.69,519.16 77.89,519.16 77.89,547.8 81.69,547.8 81.69,534.32 95.77,534.32 
		95.77,547.8 99.57,547.8 99.57,519.16 95.77,519.16 	"/>
	<path d="M221.37,463.16c-3.12-1.84-7.04-1.84-7.04-1.84c-3.88,0-7.04,1.84-7.04,1.84c-3.12,1.84-4.88,5.2-4.88,5.2
		c-1.8,3.4-1.8,7.8-1.8,7.8c0,4.36,1.8,7.72,1.8,7.72c1.76,3.36,4.88,5.2,4.88,5.2c3.12,1.84,7.04,1.84,7.04,1.84
		c3.92,0,7.04-1.8,7.04-1.8c3.08-1.84,4.88-5.2,4.88-5.2c1.76-3.36,1.76-7.8,1.76-7.8c0-4.48-1.76-7.8-1.76-7.8
		C224.45,464.96,221.37,463.16,221.37,463.16z M222.85,482.36c-1.24,2.6-3.48,3.96-3.48,3.96c-2.2,1.36-5.08,1.36-5.08,1.36
		c-2.8,0-5.04-1.36-5.04-1.36c-2.2-1.36-3.44-3.96-3.44-3.96c-1.28-2.56-1.28-6.12-1.28-6.12c0-3.6,1.24-6.24,1.24-6.24
		c1.24-2.68,3.44-4.04,3.44-4.04c2.24-1.4,5.08-1.4,5.08-1.4c2.92,0,5.12,1.4,5.12,1.4c2.24,1.4,3.44,4.04,3.44,4.04
		c1.24,2.64,1.24,6.2,1.24,6.2C224.09,479.76,222.85,482.36,222.85,482.36z"/>
	<polygon points="171.73,397.52 157.37,375.16 153.45,375.16 153.45,403.8 157.05,403.8 157.05,381.44 157.13,381.44 171.53,403.8 
		175.41,403.8 175.41,375.16 171.81,375.16 171.81,397.52 	"/>
	<polygon points="149.45,403.8 149.45,375.16 145.65,375.16 145.65,386.92 131.57,386.92 131.57,375.16 127.77,375.16 127.77,403.8 
		131.57,403.8 131.57,390.32 145.65,390.32 145.65,403.8 	"/>
	<path d="M65.81,276.79l46.41,26.8l-0.01,0.01l2.36,1.34l0.82-0.48l49.05-28.32l45.44,26.24l3.21,58.11l-32.72,18.91l1.2,2.08
		l32.76-18.93L263.61,391l0,0l0.6,0.35l0.6-0.35l48.16-27.81l0,0l1.12-0.65l1.12,0.65l0,0l31.64,18.29l1.2-2.08l-33.36-19.28v0
		l-0.6-0.35l-0.6,0.35l0,0l-48.16,27.81l0-0.01l-1.12,0.65l-1.12-0.65l0,0.01l-47.51-27.43l4.55-54.98l-7.31-4.22l-47.17-27.24
		v-54.91v-2v-0.7l-0.69-0.39l-49.56-28.62l-0.82-0.48l-2.36,1.34l0.01,0.01l-46.41,26.8l0-0.01l-2.32,1.35v0.69v2v53.6v2v0.69
		L65.81,276.79L65.81,276.79z M65.89,272.76v-53.6v-1.31l48.68-28.1l1.12,0.65l0-0.01l46.41,26.8l-0.01,0.01l1.15,0.66v1.3v54.91
		l-47.56,27.46l0-0.01l-1.12,0.65l-48.68-28.11V272.76z"/>
	<path d="M271.25,434.36c-3.12-1.84-7-1.84-7-1.84c-3.92,0-7.04,1.84-7.04,1.84c-3.16,1.84-4.92,5.2-4.92,5.2
		c-1.8,3.4-1.8,7.8-1.8,7.8c0,4.36,1.8,7.72,1.8,7.72c1.76,3.36,4.88,5.2,4.88,5.2c3.12,1.84,7.08,1.84,7.08,1.84
		c3.88,0,7-1.8,7-1.8c3.08-1.84,4.88-5.2,4.88-5.2c1.76-3.36,1.76-7.8,1.76-7.8c0-4.48-1.76-7.8-1.76-7.8
		C274.33,436.16,271.25,434.36,271.25,434.36z M272.73,453.56c-1.24,2.6-3.48,3.96-3.48,3.96c-2.2,1.36-5.04,1.36-5.04,1.36
		c-2.84,0-5.08-1.36-5.08-1.36c-2.2-1.36-3.44-3.96-3.44-3.96c-1.28-2.56-1.28-6.12-1.28-6.12c0-3.6,1.24-6.24,1.24-6.24
		c1.24-2.68,3.44-4.04,3.44-4.04c2.24-1.4,5.12-1.4,5.12-1.4c2.88,0,5.08,1.4,5.08,1.4c2.24,1.4,3.44,4.04,3.44,4.04
		c1.24,2.64,1.24,6.2,1.24,6.2C273.97,450.96,272.73,453.56,272.73,453.56z"/>
	<polygon points="303.57,461.64 303.57,433 299.77,433 299.77,444.76 285.73,444.76 285.73,433 281.89,433 281.89,461.64 
		285.73,461.64 285.73,448.16 299.77,448.16 299.77,461.64 	"/>
	<polygon points="356.57,381.44 356.65,381.44 371.05,403.8 374.93,403.8 374.93,375.16 371.37,375.16 371.37,397.52 371.29,397.52 
		356.89,375.16 353.01,375.16 353.01,403.8 356.57,403.8 	"/>
	<polygon points="356.57,439.04 356.65,439.04 371.05,461.4 374.93,461.4 374.93,432.76 371.37,432.76 371.37,455.12 371.29,455.12 
		356.89,432.76 353.01,432.76 353.01,461.4 356.57,461.4 	"/>
	<polygon points="349.01,461.4 349.01,432.76 345.17,432.76 345.17,444.52 331.13,444.52 331.13,432.76 327.33,432.76 327.33,461.4 
		331.13,461.4 331.13,447.92 345.17,447.92 345.17,461.4 	"/>
	<polygon points="452.77,87.16 452.77,115.8 456.37,115.8 456.37,93.44 456.45,93.44 470.81,115.8 474.73,115.8 474.73,87.16 
		471.13,87.16 471.13,109.52 471.05,109.52 456.65,87.16 	"/>
	<path d="M470.77,434.36c-3.08-1.84-7-1.84-7-1.84c-3.92,0-7.04,1.84-7.04,1.84c-3.16,1.84-4.92,5.2-4.92,5.2
		c-1.76,3.4-1.76,7.8-1.76,7.8c0,4.36,1.76,7.72,1.76,7.72c1.76,3.36,4.92,5.2,4.92,5.2c3.12,1.84,7.04,1.84,7.04,1.84
		c3.92,0,7-1.8,7-1.8c3.12-1.84,4.88-5.2,4.88-5.2c1.8-3.36,1.8-7.8,1.8-7.8c0-4.48-1.8-7.8-1.8-7.8
		C473.89,436.16,470.77,434.36,470.77,434.36z M472.25,453.56c-1.24,2.6-3.44,3.96-3.44,3.96c-2.24,1.36-5.08,1.36-5.08,1.36
		c-2.84,0-5.04-1.36-5.04-1.36c-2.24-1.36-3.48-3.96-3.48-3.96c-1.24-2.56-1.24-6.12-1.24-6.12c0-3.6,1.24-6.24,1.24-6.24
		c1.2-2.68,3.44-4.04,3.44-4.04c2.2-1.4,5.08-1.4,5.08-1.4c2.88,0,5.12,1.4,5.12,1.4c2.2,1.4,3.44,4.04,3.44,4.04
		c1.24,2.64,1.24,6.2,1.24,6.2C473.53,450.96,472.25,453.56,472.25,453.56z"/>
	<polygon points="356.57,554.24 356.65,554.24 371.05,576.6 374.93,576.6 374.93,547.96 371.37,547.96 371.37,570.32 371.29,570.32 
		356.89,547.96 353.01,547.96 353.01,576.6 356.57,576.6 	"/>
	<polygon points="345.17,576.6 349.01,576.6 349.01,547.96 345.17,547.96 345.17,559.72 331.13,559.72 331.13,547.96 327.33,547.96 
		327.33,576.6 331.13,576.6 331.13,563.12 345.17,563.12 	"/>
	<path d="M420.89,635.96c-3.12-1.84-7-1.84-7-1.84c-3.92,0-7.04,1.84-7.04,1.84c-3.16,1.84-4.92,5.2-4.92,5.2
		c-1.76,3.4-1.76,7.8-1.76,7.8c0,4.36,1.76,7.72,1.76,7.72c1.76,3.36,4.92,5.2,4.92,5.2c3.12,1.84,7.04,1.84,7.04,1.84
		c3.88,0,7-1.8,7-1.8c3.12-1.84,4.88-5.2,4.88-5.2c1.8-3.36,1.8-7.8,1.8-7.8c0-4.48-1.8-7.8-1.8-7.8
		C424.01,637.76,420.89,635.96,420.89,635.96z M422.37,655.16c-1.24,2.6-3.44,3.96-3.44,3.96c-2.24,1.36-5.08,1.36-5.08,1.36
		c-2.84,0-5.04-1.36-5.04-1.36c-2.24-1.36-3.48-3.96-3.48-3.96c-1.24-2.56-1.24-6.12-1.24-6.12c0-3.6,1.2-6.24,1.2-6.24
		c1.24-2.64,3.48-4.04,3.48-4.04c2.2-1.4,5.08-1.4,5.08-1.4c2.88,0,5.08,1.4,5.08,1.4c2.24,1.4,3.48,4.04,3.48,4.04
		c1.2,2.64,1.2,6.2,1.2,6.2C423.61,652.56,422.37,655.16,422.37,655.16z"/>
	<path d="M321.13,635.96c-3.12-1.84-7-1.84-7-1.84c-3.92,0-7.04,1.84-7.04,1.84c-3.16,1.84-4.92,5.2-4.92,5.2
		c-1.8,3.4-1.8,7.8-1.8,7.8c0,4.36,1.8,7.72,1.8,7.72c1.76,3.36,4.88,5.2,4.88,5.2c3.12,1.84,7.08,1.84,7.08,1.84
		c3.88,0,7-1.8,7-1.8c3.12-1.84,4.88-5.2,4.88-5.2c1.76-3.36,1.76-7.8,1.76-7.8c0-4.48-1.76-7.8-1.76-7.8
		C324.25,637.76,321.13,635.96,321.13,635.96z M322.61,655.16c-1.24,2.6-3.48,3.96-3.48,3.96c-2.2,1.36-5.04,1.36-5.04,1.36
		c-2.84,0-5.08-1.36-5.08-1.36c-2.2-1.36-3.44-3.96-3.44-3.96c-1.24-2.56-1.24-6.12-1.24-6.12c0-3.6,1.2-6.24,1.2-6.24
		c1.24-2.64,3.44-4.04,3.44-4.04c2.24-1.4,5.12-1.4,5.12-1.4c2.88,0,5.08,1.4,5.08,1.4c2.24,1.4,3.48,4.04,3.48,4.04
		c1.2,2.64,1.2,6.2,1.2,6.2C323.85,652.56,322.61,655.16,322.61,655.16z"/>
</g>
</svg>
