<?xml version="1.0" encoding="UTF-8" standalone="no"?>
<!-- Created with Inkscape (http://www.inkscape.org/) -->
<svg
   xmlns:svg="http://www.w3.org/2000/svg"
   xmlns="http://www.w3.org/2000/svg"
   version="1.0"
   width="616.84998"
   height="420"
   id="svg2">
  <defs
     id="defs4" />
  <g
     transform="translate(-17.250037,-359.08781)"
     id="layer1">
    <path
       d="M 472.60883,768.36666 C 471.96437,767.97377 471.16235,767.07606 470.8265,766.3718 C 470.29574,765.25878 470.28458,765.04787 470.74136,764.75889 C 471.63353,764.19465 472.05983,764.37293 472.52939,765.50657 C 473.06222,766.79309 473.85717,767.28828 475.38916,767.28828 C 477.50496,767.28828 478.92249,764.87089 477.91286,762.98434 C 477.48371,762.18247 475.39201,761.42925 474.52186,761.76317 C 474.02598,761.95346 473.9219,761.83684 474.0182,761.19855 C 474.1038,760.63169 474.55312,760.25265 475.54004,759.91503 C 477.66915,759.18652 478.17458,757.85735 476.83279,756.51549 C 475.49647,755.17916 472.75516,756.00066 472.11202,757.93017 C 472.0064,758.24693 471.68318,758.32052 471.14618,758.1501 C 470.12655,757.82649 470.36964,756.78013 471.80857,755.29894 C 473.23558,753.83014 475.79491,753.59674 477.52328,754.77781 C 479.50575,756.1326 479.87401,758.63613 478.29028,759.99216 C 477.63505,760.55317 477.65299,760.60998 478.83874,761.7283 C 482.62286,765.29712 477.14601,771.13306 472.60883,768.36666 z M 435.42363,762.81799 C 433.16166,762.01127 431.97983,760.82282 430.58485,757.95188 C 429.7528,756.2396 429.62425,755.5231 429.61871,752.56548 C 429.61147,748.79453 430.3503,746.52886 432.23485,744.54285 C 434.37759,742.28472 438.357,741.26147 441.59243,742.13662 C 443.46797,742.64397 445.72518,744.67386 446.48255,746.5344 L 447.02416,747.86464 L 445.67953,748.23636 C 444.94001,748.44074 444.29394,748.48846 444.24375,748.34244 C 443.87926,747.281 442.53324,745.61883 441.55525,745.02265 C 438.95765,743.43884 434.97986,744.66324 433.38266,747.53818 C 432.6015,748.94432 432.48495,749.59701 432.48495,752.56548 C 432.48495,755.53403 432.6015,756.18664 433.38266,757.59278 C 434.58181,759.7513 436.80052,760.93436 439.24462,760.71867 C 441.40376,760.52815 442.64332,759.64068 443.79636,757.45977 C 444.66058,755.825 444.74095,755.77019 445.95087,755.99104 C 446.64213,756.11728 447.25933,756.27116 447.32245,756.33313 C 447.70249,756.70616 445.63057,760.32462 444.46629,761.32125 C 442.16922,763.28747 438.461,763.90121 435.42363,762.81799 z M 450.61907,752.56548 L 450.61907,742.15186 L 452.05547,742.15186 L 453.49178,742.15186 L 453.49178,746.46096 L 453.49178,750.77007 L 458.87818,750.77007 L 464.26458,750.77007 L 464.26458,746.46096 L 464.26458,742.15186 L 465.70098,742.15186 L 467.13729,742.15186 L 467.13729,752.56548 L 467.13729,762.97918 L 465.70098,762.97918 L 464.26458,762.97918 L 464.26458,758.13147 L 464.26458,753.28368 L 458.87818,753.28368 L 453.49178,753.28368 L 453.49178,758.13147 L 453.49178,762.97918 L 452.05547,762.97918 L 450.61907,762.97918 L 450.61907,752.56548 z M 423.35203,727.87791 C 418.93541,720.22477 415.30535,713.93658 415.28517,713.90412 C 415.26503,713.8717 403.05694,717.30395 388.15615,721.53145 C 371.97149,726.12314 360.97572,729.07521 360.84505,728.86383 C 360.52197,728.34108 359.29212,723.47166 359.45213,723.34873 C 359.52755,723.29084 372.59734,719.57008 388.49615,715.08044 L 417.40306,706.91737 L 447.7439,717.32527 C 464.43139,723.0496 478.14664,727.6713 478.22215,727.59579 C 478.44924,727.36871 446.15756,671.41882 445.79692,671.41462 C 445.6134,671.41247 430.82248,675.61208 412.92812,680.74711 C 395.03374,685.88212 380.1558,690.07531 379.86608,690.06533 C 379.57637,690.05534 365.20004,685.95951 347.91874,680.96346 C 330.63744,675.96737 316.44641,671.92022 316.38313,671.96971 C 316.31986,672.01923 322.82392,681.99462 330.83659,694.13729 C 338.84926,706.27995 345.40509,716.30095 345.40509,716.4062 C 345.40509,716.68762 337.78894,721.00986 337.60943,720.83035 C 337.52543,720.74636 331.89271,709.34473 325.09223,695.49333 L 312.72772,670.30901 L 312.72772,653.80299 L 312.72772,637.29696 L 313.8013,637.29696 L 314.87487,637.29696 L 314.96835,653.33373 L 315.06182,669.37049 L 347.20056,678.6425 C 364.87686,683.74207 379.61436,687.91774 379.95058,687.92173 C 380.41646,687.92722 428.13674,674.35168 443.16792,669.93754 L 445.59177,669.22574 L 445.59177,653.26133 L 445.59177,637.29696 L 446.48948,637.29696 L 447.38727,637.29696 L 447.38727,653.2627 L 447.38727,669.22847 L 448.73383,669.5885 C 468.57484,674.89304 480.91358,678.24452 481.0299,678.36083 C 481.11072,678.44166 481.07762,678.90302 480.95646,679.38607 L 480.736,680.26434 L 464.89372,676.02282 C 456.18044,673.69001 448.9957,671.83706 448.92758,671.90518 C 448.82335,672.00946 480.94083,728.06581 481.3248,728.44985 C 481.39677,728.52182 488.69128,726.79253 497.5348,724.60692 C 509.52137,721.64453 513.68437,720.74398 513.89059,721.06859 C 514.76852,722.45002 514.56307,722.52099 497.74987,726.64381 C 488.71422,728.85952 481.07439,730.66979 480.77233,730.66664 C 480.47035,730.66348 466.58529,727.5115 449.91673,723.66226 C 433.2481,719.81302 419.55345,716.72034 419.4841,716.78964 C 419.41479,716.85898 422.45024,722.27344 426.22957,728.82188 C 431.91155,738.6668 433.02464,740.82016 432.65923,741.26039 C 432.41629,741.55313 432.02956,741.79276 431.79978,741.79276 C 431.57008,741.79276 427.76864,735.53106 423.35203,727.87791 z M 344.4331,740.93516 C 342.14666,740.18771 340.18573,738.43425 339.05025,736.12193 C 338.16207,734.31328 338.04371,733.67113 338.04371,730.66087 C 338.04371,727.6476 338.1616,727.00945 339.05405,725.1921 C 341.21489,720.79163 345.69819,718.94317 350.63653,720.41644 C 354.44172,721.5517 356.78566,724.87827 357.14705,729.65631 C 357.64802,736.28035 354.07003,740.93585 348.20455,741.29179 C 346.87791,741.37231 345.31957,741.22498 344.4331,740.93516 z M 351.41439,737.6176 C 353.15132,736.23301 354.04482,734.40657 354.28591,731.74778 C 354.65552,727.67146 353.13843,724.38022 350.29453,723.08878 C 346.58224,721.4029 342.42855,723.29939 341.2671,727.21044 C 339.35389,733.65289 342.55412,739.17138 348.00302,738.82599 C 349.63398,738.7226 350.34348,738.47127 351.41439,737.6176 z M 523.62004,729.44424 C 521.33359,728.69672 519.37267,726.94333 518.23718,724.63101 C 517.34902,722.82236 517.23063,722.18022 517.23063,719.16995 C 517.23063,716.15667 517.34856,715.51849 518.24096,713.70112 C 520.40186,709.3007 524.88516,707.4522 529.82348,708.92552 C 533.62869,710.06076 535.97257,713.38732 536.33397,718.16532 C 536.83494,724.78943 533.25697,729.44493 527.39146,729.80088 C 526.06484,729.88139 524.50651,729.73398 523.62004,729.44424 z M 530.60133,726.12668 C 532.33824,724.74209 533.23172,722.91566 533.47281,720.25679 C 533.84245,716.18051 532.32539,712.88929 529.48147,711.59781 C 525.76917,709.91198 521.61548,711.80842 520.45405,715.71947 C 518.54086,722.1619 521.74103,727.68039 527.18993,727.33499 C 528.82093,727.23161 529.53042,726.98028 530.60133,726.12668 z M 540.03296,719.16995 L 540.03296,708.75629 L 541.46935,708.75629 L 542.90574,708.75629 L 542.90574,713.06539 L 542.90574,717.37446 L 548.29214,717.37446 L 553.67846,717.37446 L 553.67846,713.06539 L 553.67846,708.75629 L 555.11486,708.75629 L 556.55125,708.75629 L 556.55125,719.16995 L 556.55125,729.58365 L 555.11486,729.58365 L 553.67846,729.58365 L 553.67846,724.73586 L 553.67846,719.88814 L 548.29214,719.88814 L 542.90574,719.88814 L 542.90574,724.73586 L 542.90574,729.58365 L 541.46935,729.58365 L 540.03296,729.58365 L 540.03296,719.16995 z M 526.47266,698.70282 C 525.82821,698.3099 525.02618,697.4122 524.69033,696.70792 C 524.15958,695.59487 524.14841,695.38395 524.6052,695.09506 C 525.49728,694.53078 525.92366,694.70904 526.39314,695.84269 C 526.92606,697.12917 527.72092,697.62443 529.25292,697.62443 C 531.36879,697.62443 532.78625,695.20699 531.77662,693.32046 C 531.34755,692.51864 529.25585,691.76538 528.3857,692.09926 C 527.88973,692.28957 527.78574,692.17298 527.88204,691.53473 C 527.96756,690.96783 528.41695,690.58881 529.40387,690.25116 C 531.53299,689.5227 532.03842,688.19349 530.69663,686.85167 C 529.36031,685.51534 526.619,686.3368 525.97577,688.26631 C 525.87024,688.58306 525.54693,688.65668 525.01002,688.48626 C 523.99038,688.16264 524.23347,687.11625 525.67241,685.6351 C 527.09941,684.16627 529.65875,683.9329 531.38711,685.11399 C 533.36958,686.46873 533.73784,688.97225 532.15411,690.32829 C 531.49888,690.8893 531.51674,690.94611 532.70258,692.06442 C 536.48662,695.63326 531.00985,701.46915 526.47266,698.70282 z M 489.28747,693.15417 C 487.02542,692.34743 485.84366,691.15898 484.44868,688.28803 C 483.61664,686.57574 483.48808,685.85924 483.48247,682.90166 C 483.47531,679.13062 484.21413,676.86496 486.09869,674.87896 C 488.24142,672.62085 492.22076,671.59758 495.45618,672.47276 C 497.33181,672.98009 499.58893,675.01 500.34639,676.87052 L 500.88792,678.20078 L 499.54336,678.57248 C 498.80384,678.77688 498.1577,678.82463 498.10758,678.67855 C 497.7431,677.61715 496.397,675.95502 495.41908,675.35878 C 492.82141,673.77497 488.84369,674.99933 487.24649,677.87437 C 486.46533,679.2805 486.34871,679.93315 486.34871,682.90166 C 486.34871,685.87013 486.46533,686.52281 487.24649,687.92894 C 488.44564,690.08741 490.66428,691.27051 493.10846,691.05484 C 495.26759,690.8643 496.50715,689.97681 497.66012,687.79586 C 498.52434,686.16117 498.60478,686.10637 499.81471,686.32721 C 500.50596,686.4534 501.12316,686.60731 501.18628,686.66929 C 501.56632,687.04234 499.4944,690.66081 498.33012,691.65736 C 496.03305,693.6236 492.32483,694.2374 489.28747,693.15417 z M 504.84201,682.90166 L 504.84201,672.48798 L 506.27832,672.48798 L 507.71472,672.48798 L 507.71472,676.79709 L 507.71472,681.1062 L 513.10112,681.1062 L 518.48744,681.1062 L 518.48744,676.79709 L 518.48744,672.48798 L 519.92383,672.48798 L 521.36022,672.48798 L 521.36022,682.90166 L 521.36022,693.31533 L 519.92383,693.31533 L 518.48744,693.31533 L 518.48744,688.46758 L 518.48744,683.61984 L 513.10112,683.61984 L 507.71472,683.61984 L 507.71472,688.46758 L 507.71472,693.31533 L 506.27832,693.31533 L 504.84201,693.31533 L 504.84201,682.90166 z M 265.7718,686.49369 C 265.12737,686.10077 264.32533,685.20307 263.98949,684.49879 C 263.45871,683.38574 263.44757,683.17482 263.90435,682.88592 C 264.79647,682.32165 265.22277,682.49991 265.69235,683.63356 C 266.22523,684.92004 267.02011,685.4153 268.55211,685.4153 C 270.66795,685.4153 272.08544,682.99786 271.0758,681.11133 C 270.64668,680.30951 268.55502,679.55625 267.68488,679.89013 C 267.18893,680.08045 267.08491,679.96385 267.1812,679.3256 C 267.26674,678.7587 267.7161,678.37968 268.70305,678.04203 C 270.83211,677.31357 271.33758,675.98436 269.99577,674.64254 C 268.65944,673.30621 265.91813,674.12767 265.27496,676.05718 C 265.16938,676.37393 264.84613,676.44755 264.30918,676.27713 C 263.2895,675.95351 263.53259,674.90712 264.97156,673.42597 C 266.39855,671.95714 268.95794,671.72377 270.68627,672.90485 C 272.66874,674.2596 273.03699,676.76312 271.45325,678.11916 C 270.79801,678.68017 270.81594,678.73698 272.00172,679.85529 C 275.78581,683.42413 270.30899,689.26002 265.7718,686.49369 z M 228.22754,680.94504 C 225.96552,680.1383 224.78375,678.94984 223.38873,676.0789 C 222.5567,674.36661 222.42818,673.65011 222.42256,670.69253 C 222.41538,666.92149 223.15421,664.65583 225.03873,662.66983 C 227.18147,660.41172 231.16085,659.38845 234.39629,660.26363 C 236.27184,660.77095 238.52902,662.80087 239.28646,664.66139 L 239.82803,665.99165 L 238.48344,666.36335 C 237.74391,666.56774 237.0978,666.6155 237.04765,666.46942 C 236.68315,665.40802 235.33709,663.74589 234.35917,663.14965 C 231.76152,661.56584 227.78377,662.7902 226.18653,665.66524 C 225.40535,667.07137 225.2888,667.72402 225.2888,670.69253 C 225.2888,673.661 225.40535,674.31368 226.18653,675.71981 C 227.38569,677.87828 229.60436,679.06138 232.04853,678.84571 C 234.20766,678.65518 235.44721,677.76768 236.60021,675.58674 C 237.46443,673.95204 237.54484,673.89724 238.75476,674.11808 C 239.44601,674.24427 240.06322,674.39818 240.12633,674.46015 C 240.50636,674.83321 238.43444,678.45168 237.27017,679.44823 C 234.97307,681.41447 231.26487,682.02828 228.22754,680.94504 z M 243.78205,670.69253 L 243.78205,660.27885 L 245.21842,660.27885 L 246.65479,660.27885 L 246.65479,664.58796 L 246.65479,668.89707 L 252.04116,668.89707 L 257.42755,668.89707 L 257.42755,664.58796 L 257.42755,660.27885 L 258.86392,660.27885 L 260.30028,660.27885 L 260.30028,670.69253 L 260.30028,681.1062 L 258.86392,681.1062 L 257.42755,681.1062 L 257.42755,676.25845 L 257.42755,671.41071 L 252.04116,671.41071 L 246.65479,671.41071 L 246.65479,676.25845 L 246.65479,681.1062 L 245.21842,681.1062 L 243.78205,681.1062 L 243.78205,670.69253 z M 226.91681,657.85498 C 226.92347,657.70686 227.71407,649.82927 228.67369,640.34925 C 229.63332,630.86922 230.39544,623.09491 230.36728,623.07304 C 230.22203,622.96018 195.36271,602.8787 194.66896,602.50823 C 193.92699,602.11201 192.44626,602.88592 178.18675,611.12256 C 163.52547,619.59132 162.48861,620.12967 162.03485,619.50912 C 161.76816,619.14439 161.54996,618.73575 161.54996,618.60098 C 161.54996,618.46621 168.21561,614.5204 176.36251,609.83249 C 184.50941,605.14458 191.3199,601.17381 191.49694,601.00856 C 191.6782,600.83935 191.2468,600.4353 190.50944,600.08368 C 189.34093,599.52644 189.20005,599.31188 189.20005,598.08942 C 189.20005,597.33598 189.12766,596.71956 189.03919,596.71956 C 188.95071,596.71956 182.14848,600.60759 173.92311,605.3596 C 159.98583,613.41159 158.93439,613.95541 158.47563,613.3494 C 158.20487,612.99178 158.02107,612.56959 158.06716,612.41128 C 158.11326,612.25291 165.09661,608.10999 173.58574,603.20476 L 189.0205,594.28618 L 189.11532,582.93463 L 189.21014,571.58311 L 190.278,571.58311 L 191.34587,571.58311 L 191.44001,584.95337 L 191.53415,598.32363 L 211.46376,609.85274 C 228.82157,619.89407 231.49047,621.33133 232.14587,620.99049 C 232.55975,620.77528 241.56818,615.58985 252.1646,609.46733 L 271.43084,598.33547 L 271.43149,574.5816 L 271.43214,550.82777 L 292.07992,538.90574 L 312.72772,526.9837 L 312.71698,503.76847 L 312.70624,480.55327 L 292.07925,468.70323 L 271.45221,456.8532 L 271.3524,433.01987 L 271.25259,409.18655 L 251.38007,397.70866 L 231.50755,386.23078 L 223.55043,390.81502 C 201.00448,403.80417 203.1668,402.65771 202.62123,401.9116 C 202.3496,401.54013 202.12736,401.14166 202.12736,401.02611 C 202.12736,400.91056 205.80357,398.69671 210.29671,396.10645 C 214.78985,393.51619 221.39378,389.70176 224.97212,387.62994 L 231.47819,383.86298 L 252.44266,395.98093 L 273.40714,408.09889 L 273.51455,431.9374 L 273.62197,455.77592 L 293.08506,466.97477 C 303.78977,473.13414 312.7935,478.26758 313.09338,478.38243 C 313.48494,478.53239 316.46063,475.09413 323.65094,466.18383 C 329.15773,459.35975 333.77174,453.7094 333.90428,453.62748 C 334.03678,453.54557 335.56411,454.90403 337.29831,456.64628 L 340.45135,459.81402 L 327.66936,470.1255 L 314.88734,480.43697 L 314.79505,504.31307 L 314.70273,528.18921 L 294.1447,540.0595 L 273.58669,551.92982 L 273.58669,575.67817 L 273.58669,599.42647 L 253.11844,611.23761 C 239.57638,619.05199 232.65093,623.24184 232.65239,623.61943 C 232.6536,623.93328 233.37977,631.38092 234.26611,640.1697 C 235.15245,648.95848 235.87862,656.59367 235.87983,657.1368 L 235.88202,658.1243 L 231.39337,658.1243 C 228.92461,658.1243 226.91016,658.00311 226.91681,657.85498 z M 502.05436,639.09353 C 501.40998,638.70062 500.60796,637.80293 500.27203,637.09864 C 499.74127,635.9856 499.73019,635.77466 500.18689,635.48578 C 501.07906,634.92149 501.50536,635.09975 501.97492,636.2334 C 502.50783,637.51989 503.30269,638.01514 504.83469,638.01514 C 506.95056,638.01514 508.36802,635.5977 507.35839,633.71118 C 506.92924,632.90936 504.83762,632.15609 503.96747,632.48998 C 503.47151,632.6803 503.36743,632.5637 503.46381,631.92545 C 503.54933,631.35855 503.99864,630.97953 504.98565,630.64187 C 507.11468,629.91342 507.62019,628.58421 506.27832,627.24239 C 504.942,625.90606 502.20069,626.72752 501.55755,628.65703 C 501.45193,628.97379 501.12871,629.0474 500.59179,628.87697 C 499.57207,628.55336 499.81517,627.50696 501.25418,626.02582 C 502.6811,624.55698 505.24052,624.32361 506.96881,625.5047 C 508.95135,626.85945 509.31954,629.36297 507.73581,630.719 C 507.08058,631.28001 507.09851,631.33682 508.28427,632.45515 C 512.06839,636.02398 506.59154,641.85988 502.05436,639.09353 z M 145.85521,633.56664 C 143.56876,632.81916 141.60782,631.06575 140.47232,628.75341 C 139.58416,626.94477 139.4658,626.3026 139.4658,623.29237 C 139.4658,620.27909 139.5837,619.64091 140.47613,617.82355 C 142.63699,613.42313 147.12028,611.57463 152.05862,613.04795 C 155.86382,614.18317 158.20776,617.50973 158.56912,622.28777 C 159.0701,628.91184 155.49211,633.56733 149.62663,633.92329 C 148.29999,634.0038 146.74165,633.85643 145.85521,633.56664 z M 152.83647,630.24906 C 154.57341,628.86448 155.4669,627.03803 155.708,624.37924 C 156.07763,620.30293 154.56052,617.01171 151.71662,615.72023 C 148.00432,614.0344 143.85065,615.93084 142.68919,619.8419 C 140.77599,626.28429 143.9762,631.80282 149.42509,631.45745 C 151.05606,631.35406 151.76557,631.10274 152.83647,630.24906 z M 310.31936,633.56664 C 308.03291,632.81916 306.07198,631.06575 304.9365,628.75341 C 304.04832,626.94477 303.92996,626.3026 303.92996,623.29237 C 303.92996,620.27909 304.04785,619.64091 304.9403,617.82355 C 307.10114,613.42313 311.58444,611.57463 316.52278,613.04795 C 320.32797,614.18317 322.67191,617.50973 323.0333,622.28777 C 323.53427,628.91184 319.95628,633.56733 314.0908,633.92329 C 312.76417,634.0038 311.20582,633.85643 310.31936,633.56664 z M 317.30065,630.24906 C 319.03757,628.86448 319.93107,627.03803 320.17216,624.37924 C 320.54178,620.30293 319.02469,617.01171 316.18078,615.72023 C 312.46849,614.0344 308.3148,615.93084 307.15336,619.8419 C 305.24014,626.28429 308.44038,631.80282 313.88927,631.45745 C 315.52023,631.35406 316.22973,631.10274 317.30065,630.24906 z M 443.18339,633.56664 C 440.89701,632.81916 438.93602,631.06575 437.80053,628.75341 C 436.91237,626.94477 436.79406,626.3026 436.79406,623.29237 C 436.79406,620.27909 436.91191,619.64091 437.80438,617.82355 C 439.96521,613.42313 444.44851,611.57463 449.38682,613.04795 C 453.19204,614.18317 455.53599,617.50973 455.89732,622.28777 C 456.39836,628.91184 452.82031,633.56733 446.95488,633.92329 C 445.62818,634.0038 444.06986,633.85643 443.18339,633.56664 z M 450.16468,630.24906 C 451.90167,628.86448 452.79514,627.03803 453.03623,624.37924 C 453.40588,620.30293 451.88874,617.01171 449.04481,615.72023 C 445.33259,614.0344 441.17883,615.93084 440.0174,619.8419 C 438.10421,626.28429 441.30445,631.80282 446.75328,631.45745 C 448.38427,631.35406 449.09377,631.10274 450.16468,630.24906 z M 464.86924,633.54488 C 462.60719,632.73815 461.42543,631.5497 460.03038,628.67876 C 459.19833,626.96646 459.06986,626.24997 459.06424,623.29237 C 459.05708,619.52133 459.7959,617.25568 461.68038,615.26968 C 463.82312,613.01157 467.80253,611.98829 471.03795,612.86348 C 472.9135,613.3708 475.1707,615.40071 475.92816,617.26124 L 476.46969,618.5915 L 475.12513,618.96319 C 474.38561,619.16759 473.73947,619.21535 473.68928,619.06927 C 473.32479,618.00787 471.97877,616.34574 471.00085,615.7495 C 468.40318,614.16569 464.42546,615.39005 462.82819,618.26508 C 462.04702,619.67121 461.93048,620.32386 461.93048,623.29237 C 461.93048,626.26084 462.04702,626.91353 462.82819,628.31966 C 464.02734,630.47813 466.24605,631.66123 468.69023,631.44556 C 470.84928,631.25503 472.08892,630.36753 473.24189,628.18658 C 474.10611,626.55189 474.18647,626.49709 475.3964,626.71793 C 476.08766,626.84411 476.70486,626.99802 476.76798,627.06 C 477.14802,627.43307 475.0761,631.05152 473.91182,632.04808 C 471.61474,634.01432 467.90652,634.62812 464.86924,633.54488 z M 480.4237,623.29237 L 480.4237,612.8787 L 481.86009,612.8787 L 483.29649,612.8787 L 483.29649,617.18781 L 483.29649,621.49691 L 488.68281,621.49691 L 494.06921,621.49691 L 494.06921,617.18781 L 494.06921,612.8787 L 495.5056,612.8787 L 496.94192,612.8787 L 496.94192,623.29237 L 496.94192,633.70604 L 495.5056,633.70604 L 494.06921,633.70604 L 494.06921,628.8583 L 494.06921,624.01055 L 488.68281,624.01055 L 483.29649,624.01055 L 483.29649,628.8583 L 483.29649,633.70604 L 481.86009,633.70604 L 480.4237,633.70604 L 480.4237,623.29237 z M 299.49568,619.43213 C 298.75336,618.80462 298.75537,618.79848 300.87466,615.21866 C 302.04197,613.24688 303.13267,611.58837 303.29847,611.53311 C 303.46426,611.47785 303.88687,611.64249 304.2376,611.89895 C 304.82999,612.33209 304.71839,612.63872 302.66758,616.21287 C 301.45331,618.32911 300.41014,620.06054 300.34946,620.06054 C 300.28874,620.06054 299.90454,619.77776 299.49568,619.43213 z M 295.13332,616.18364 L 294.31251,615.51897 L 296.0834,612.51824 C 297.05737,610.86786 298.01593,609.46367 298.21347,609.39781 C 298.41101,609.33195 298.8421,609.48226 299.17142,609.7318 C 299.71455,610.14332 299.59278,610.49534 297.86217,613.51688 L 295.95414,616.84828 L 295.13332,616.18364 z M 290.44391,612.67491 C 290.05152,612.20214 290.14506,611.80096 291.02836,610.16795 C 292.70248,607.0729 292.82853,606.94999 293.85039,607.41558 L 294.73516,607.8187 L 293.22798,610.52051 C 291.67358,613.30699 291.24424,613.63926 290.44391,612.67491 z M 286.07684,609.38628 C 285.55878,608.80132 285.6005,608.59473 286.58657,606.86391 C 287.67426,604.95472 288.05627,604.71492 289.02764,605.33166 C 289.48753,605.62364 289.39913,605.97609 288.423,607.7421 C 287.7942,608.87975 287.13605,609.85845 286.96042,609.91699 C 286.78483,609.97555 286.3872,609.73672 286.07684,609.38628 z M 281.68077,606.07201 C 281.07412,605.40165 281.0809,605.31859 281.84283,604.0858 C 282.481,603.05316 282.79014,602.84592 283.40893,603.03581 C 284.53134,603.38029 284.53921,603.41742 283.78874,604.82326 C 282.80566,606.66483 282.42261,606.89171 281.68077,606.07201 z M 277.32551,602.87253 C 276.71415,602.37677 276.64326,602.11305 276.94161,601.44442 C 277.23398,600.78922 277.49289,600.67083 278.22935,600.85569 C 279.49608,601.17359 279.51063,601.21747 278.74853,602.4191 C 278.10187,603.43874 278.04582,603.45659 277.32551,602.87253 z M 49.239276,601.74796 C 48.594847,601.35504 47.792806,600.45735 47.456963,599.75306 C 46.92619,598.64002 46.915051,598.42909 47.371826,598.1402 C 48.263945,597.57592 48.690252,597.75417 49.159828,598.88783 C 49.69271,600.17431 50.487592,600.66957 52.019591,600.66957 C 54.135423,600.66957 55.552919,598.25213 54.543279,596.36561 C 54.114154,595.56379 52.022501,594.81052 51.152359,595.1444 C 50.65641,595.33472 50.552383,595.21812 50.648682,594.57987 C 50.734219,594.01298 51.183573,593.63396 52.170528,593.2963 C 54.2996,592.56785 54.805063,591.23863 53.463243,589.89681 C 52.126928,588.56048 49.38561,589.38195 48.742443,591.31146 C 48.636853,591.62821 48.313603,591.70182 47.776657,591.53139 C 46.756979,591.20778 47.00008,590.16139 48.439037,588.68025 C 49.866032,587.21141 52.425414,586.97803 54.153751,588.15913 C 56.136221,589.51388 56.504464,592.01739 54.920729,593.37343 C 54.265484,593.93444 54.283419,593.99125 55.469206,595.10957 C 59.253287,598.67841 53.776479,604.5143 49.239276,601.74796 z M 65.199741,596.1993 C 62.937714,595.39257 61.755953,594.20412 60.360927,591.33318 C 59.528896,589.62088 59.400383,588.90439 59.394756,585.94679 C 59.387581,582.17575 60.126408,579.9101 62.010932,577.92411 C 64.153668,575.66599 68.133047,574.64272 71.368481,575.5179 C 73.244037,576.02523 75.501215,578.05514 76.258662,579.91567 L 76.800228,581.24592 L 75.455629,581.61762 C 74.71611,581.82201 74.070002,581.86978 74.019844,581.7237 C 73.655349,580.66229 72.309288,579.00016 71.331355,578.40393 C 68.733708,576.82012 64.75596,578.04448 63.15873,580.91951 C 62.377551,582.32564 62.261,582.97829 62.261,585.94679 C 62.261,588.91526 62.377551,589.56795 63.15873,590.97409 C 64.357888,593.13255 66.576562,594.31565 69.020725,594.09998 C 71.179857,593.90945 72.419412,593.02195 73.572399,590.84101 C 74.436629,589.20632 74.517039,589.15152 75.726951,589.37235 C 76.418205,589.49854 77.035416,589.65245 77.098529,589.71443 C 77.478558,590.08749 75.406641,593.70595 74.242369,594.70251 C 71.945271,596.66875 68.237067,597.28254 65.199741,596.1993 z M 27.249523,585.94679 L 27.249523,575.53313 L 28.685893,575.53313 L 30.122264,575.53313 L 30.122264,579.84223 L 30.122264,584.15133 L 35.50864,584.15133 L 40.895023,584.15133 L 40.895023,579.84223 L 40.895023,575.53313 L 42.331393,575.53313 L 43.767764,575.53313 L 43.767764,585.94679 L 43.767764,596.36047 L 42.331393,596.36047 L 40.895023,596.36047 L 40.895023,591.51273 L 40.895023,586.66498 L 35.50864,586.66498 L 30.122264,586.66498 L 30.122264,591.51273 L 30.122264,596.36047 L 28.685893,596.36047 L 27.249523,596.36047 L 27.249523,585.94679 z M 80.036062,585.22861 L 80.036062,584.15133 L 97.990668,584.15133 L 115.94528,584.15133 L 115.94528,585.22861 L 115.94528,586.30589 L 97.990668,586.30589 L 80.036062,586.30589 L 80.036062,585.22861 z M 119.00543,581.28 C 117.23226,579.9227 115.73535,578.67382 115.67899,578.50472 C 115.62262,578.33563 115.79503,577.8984 116.06213,577.53312 C 116.51756,576.91028 116.76338,577.03108 120.01697,579.47664 C 121.92505,580.91086 123.4862,582.15601 123.4862,582.24369 C 123.4862,582.62124 122.7202,583.7903 122.48607,583.77002 C 122.34489,583.75781 120.7786,582.6373 119.00543,581.28 z M 616.60474,578.76607 C 615.96029,578.37315 615.15826,577.47546 614.82241,576.77117 C 614.29165,575.65813 614.28049,575.4472 614.73727,575.15831 C 615.62944,574.59403 616.05574,574.77228 616.5253,575.90593 C 617.05814,577.19242 617.85308,577.68768 619.38508,577.68768 C 621.50087,577.68768 622.91833,575.27023 621.90877,573.38371 C 621.47963,572.58189 619.38793,571.82862 618.51778,572.16251 C 618.02189,572.35283 617.91782,572.23623 618.01411,571.59798 C 618.09964,571.03108 618.54903,570.65206 619.53595,570.31441 C 621.66506,569.58595 622.1705,568.25674 620.82871,566.91492 C 619.49238,565.5786 616.75107,566.40005 616.10793,568.32956 C 616.00232,568.64632 615.67909,568.71993 615.1421,568.54951 C 614.12246,568.22589 614.36555,567.1795 615.80449,565.69835 C 617.23149,564.22952 619.79082,563.99615 621.51919,565.17724 C 623.50166,566.53198 623.86992,569.0355 622.28619,570.39154 C 621.63096,570.95255 621.6489,571.00936 622.83465,572.12768 C 626.61877,575.69652 621.14193,581.53241 616.60474,578.76607 z M 122.57188,576.57985 C 121.001,575.37807 119.67316,574.28079 119.62113,574.14146 C 119.56909,574.00214 119.75034,573.58207 120.02391,573.20793 C 120.49622,572.562 120.67602,572.6423 123.58874,574.79957 C 126.45257,576.92062 126.63057,577.12764 126.27037,577.91818 C 126.05819,578.38392 125.78185,578.76496 125.6563,578.76496 C 125.53075,578.76496 124.14276,577.78165 122.57188,576.57985 z M 514.60178,569.2465 C 500.71341,565.23696 489.28693,561.89323 489.20972,561.81599 C 488.95054,561.55683 490.58953,556.14215 490.92716,556.14215 C 491.11044,556.14215 502.22401,559.29319 515.62389,563.14445 C 529.02376,566.99571 540.2013,570.14674 540.46303,570.14674 C 540.82382,570.14674 570.38866,524.94793 574.7635,517.7081 L 575.55976,516.39038 L 543.70199,525.50281 L 511.84423,534.61523 L 478.64869,525.20821 C 460.39109,520.03437 445.40002,515.94999 445.33505,516.13183 C 445.27009,516.31368 438.04016,528.98284 429.26854,544.28555 C 420.49699,559.58826 413.36909,572.15752 413.42884,572.21724 C 413.48859,572.27699 424.5737,568.36105 438.06249,563.51511 C 451.55119,558.6692 462.67924,554.79617 462.79147,554.90839 C 463.19953,555.3165 465.296,563.15045 465.05314,563.35965 C 464.73106,563.63695 411.89143,575.25261 410.9394,575.25537 C 410.54439,575.25652 400.96034,572.5416 389.64147,569.22219 L 369.06173,563.18693 L 369.29219,562.26869 C 369.41895,561.76367 369.55249,561.32059 369.58901,561.2841 C 369.62554,561.24758 378.76281,563.88723 389.89409,567.14998 C 406.61155,572.05011 410.20937,572.99869 410.57295,572.60201 C 411.27016,571.84123 442.79181,516.59506 442.62423,516.42751 C 442.5414,516.3447 435.45927,517.86204 426.88607,519.79942 L 411.29849,523.32193 L 411.04106,522.42388 C 410.89947,521.92998 410.83228,521.4772 410.89175,521.4177 C 411.10961,521.19988 444.26738,513.7694 445.00736,513.7726 C 445.4275,513.77442 460.47615,517.95698 478.4487,523.06716 C 505.6378,530.79787 511.19324,532.27467 511.52586,531.8601 C 511.7457,531.58607 515.13639,525.7876 519.06069,518.97465 C 522.98506,512.16168 526.36967,506.58745 526.58212,506.58745 C 526.79458,506.58745 527.22196,506.78944 527.53171,507.03631 C 528.02568,507.42991 527.23928,508.96295 521.14299,519.49114 C 517.31931,526.09441 514.24823,531.55434 514.3182,531.62432 C 514.42597,531.73212 578.03519,513.67568 579.5043,513.12023 C 579.78465,513.01423 576.93665,518.97458 573.17539,526.36549 C 569.41421,533.75636 562.7583,546.85324 558.38454,555.46961 L 550.43226,571.13579 L 559.32697,568.30719 C 564.2191,566.75146 568.66522,565.32572 569.20722,565.13885 C 570.08668,564.83567 570.21693,564.89545 570.41745,565.69418 C 570.541,566.18646 570.55493,566.67641 570.4484,566.78295 C 570.26457,566.96677 540.07083,576.65109 539.92349,576.57349 C 539.88501,576.55317 528.49023,573.25602 514.60178,569.2465 z M 125.99985,571.89664 C 124.7161,570.90702 123.62318,569.98074 123.57114,569.83821 C 123.5191,569.69569 123.70351,569.26866 123.98093,568.88924 C 124.4723,568.21727 124.52112,568.22428 125.871,569.16068 C 126.63312,569.68934 127.8048,570.57999 128.47474,571.13989 C 129.55369,572.0416 129.64452,572.24808 129.27006,572.94777 C 129.03756,573.3822 128.73181,573.72826 128.59063,573.71677 C 128.44946,573.70528 127.2836,572.88622 125.99985,571.89664 z M 579.41954,573.21742 C 577.15757,572.41068 575.97574,571.22223 574.58076,568.35129 C 573.74871,566.63899 573.62016,565.9225 573.61462,562.96491 C 573.60738,559.19387 574.34621,556.92821 576.23077,554.94222 C 578.3735,552.6841 582.35291,551.66083 585.58834,552.53601 C 587.46389,553.04334 589.72109,555.07325 590.47847,556.93378 L 591.02,558.26403 L 589.67544,558.63573 C 588.93592,558.84012 588.28985,558.88788 588.23966,558.7418 C 587.87518,557.6804 586.52915,556.01827 585.55116,555.42203 C 582.95356,553.83822 578.97577,555.06258 577.37857,557.93761 C 576.59741,559.34375 576.48086,559.9964 576.48086,562.96491 C 576.48086,565.93338 576.59741,566.58607 577.37857,567.99219 C 578.57772,570.15066 580.79643,571.33376 583.24054,571.11809 C 585.39967,570.92755 586.63923,570.04006 587.79219,567.85911 C 588.65649,566.22442 588.73686,566.16962 589.94678,566.39047 C 590.63804,566.51665 591.25524,566.67056 591.31836,566.73254 C 591.6984,567.1056 589.62648,570.72406 588.4622,571.72061 C 586.16513,573.68685 582.45691,574.30065 579.41954,573.21742 z M 594.61499,562.96491 L 594.61499,552.55124 L 596.05138,552.55124 L 597.4877,552.55124 L 597.4877,556.86034 L 597.4877,561.16945 L 602.8741,561.16945 L 608.26049,561.16945 L 608.26049,556.86034 L 608.26049,552.55124 L 609.69681,552.55124 L 611.1332,552.55124 L 611.1332,562.96491 L 611.1332,573.37857 L 609.69681,573.37857 L 608.26049,573.37857 L 608.26049,568.53083 L 608.26049,563.68309 L 602.8741,563.68309 L 597.4877,563.68309 L 597.4877,568.53083 L 597.4877,573.37857 L 596.05138,573.37857 L 594.61499,573.37857 L 594.61499,562.96491 z M 353.05132,569.64825 C 350.76487,568.90077 348.80394,567.14736 347.66845,564.83502 C 346.78028,563.02638 346.66192,562.38422 346.66192,559.37398 C 346.66192,556.3607 346.77981,555.72252 347.67226,553.90516 C 349.8331,549.50474 354.3164,547.65624 359.25474,549.12956 C 363.05993,550.26479 365.40386,553.59135 365.76526,558.36939 C 366.26622,564.99345 362.68823,569.64894 356.82275,570.00491 C 355.49612,570.08542 353.93777,569.93804 353.05132,569.64825 z M 360.03261,566.33068 C 361.76954,564.94609 362.66302,563.11964 362.90412,560.46085 C 363.27374,556.38455 361.75664,553.09332 358.91274,551.80185 C 355.20044,550.11602 351.04676,552.01245 349.88531,555.92351 C 347.97211,562.3659 351.17233,567.88443 356.62123,567.53906 C 358.25219,567.43567 358.96169,567.18435 360.03261,566.33068 z M 129.51267,567.17268 C 128.38347,566.33965 127.45431,565.56778 127.44789,565.4574 C 127.44147,565.34702 127.66102,564.94928 127.93578,564.57353 C 128.42023,563.911 128.47724,563.91988 129.82101,564.86705 C 132.87986,567.02315 132.94319,567.0959 132.49351,567.93611 C 132.26561,568.36195 131.96364,568.70517 131.82247,568.69882 C 131.68128,568.69246 130.64188,568.00569 129.51267,567.17268 z M 186.7917,568.21188 C 184.50526,567.4644 182.54432,565.71099 181.40882,563.39865 C 180.52066,561.59002 180.4023,560.94785 180.4023,557.93761 C 180.4023,554.92433 180.52019,554.28616 181.41262,552.46879 C 183.57349,548.06837 188.05678,546.21987 192.99512,547.69319 C 196.80032,548.82842 199.14425,552.15497 199.50561,556.93302 C 200.0066,563.55708 196.4286,568.21257 190.56313,568.56853 C 189.23649,568.64904 187.67814,568.50167 186.7917,568.21188 z M 193.77296,564.89431 C 195.50991,563.50972 196.4034,561.68327 196.6445,559.02448 C 197.01412,554.94818 195.49702,551.65696 192.65312,550.36548 C 188.94082,548.67965 184.78714,550.57609 183.62568,554.48714 C 181.71249,560.92954 184.9127,566.44806 190.36159,566.10269 C 191.99256,565.99931 192.70207,565.74798 193.77296,564.89431 z M 473.70621,566.41642 C 471.41984,565.66894 469.45885,563.91553 468.32336,561.6032 C 467.43519,559.79456 467.31688,559.15239 467.31688,556.14215 C 467.31688,553.12887 467.43473,552.4907 468.3272,550.67333 C 470.48803,546.2729 474.97133,544.42441 479.90965,545.89773 C 483.71486,547.03296 486.05881,550.35951 486.42014,555.13756 C 486.92119,561.76162 483.34314,566.41711 477.47771,566.77307 C 476.15101,566.85358 474.59268,566.70621 473.70621,566.41642 z M 480.6875,563.09885 C 482.42449,561.71426 483.31796,559.88781 483.55906,557.22902 C 483.9287,553.15271 482.41156,549.86149 479.56764,548.57002 C 475.85542,546.88419 471.70173,548.78063 470.54022,552.69167 C 468.62703,559.13408 471.82728,564.6526 477.27611,564.30723 C 478.9071,564.20385 479.6166,563.95252 480.6875,563.09885 z M 133.08368,562.43262 C 131.62162,561.31628 131.43375,561.03342 131.75523,560.43274 C 132.26734,559.47586 132.61628,559.54265 134.45988,560.95033 C 136.02593,562.1461 136.04288,562.1814 135.42032,562.95026 L 134.78656,563.73289 L 133.08368,562.43262 z M 136.51153,557.65864 C 135.38672,556.70949 135.37091,556.65756 135.97289,555.88964 L 136.59306,555.09853 L 137.80579,556.09724 C 138.87439,556.97722 138.96891,557.18863 138.60111,557.87585 C 138.07235,558.86386 137.9212,558.84817 136.51153,557.65864 z M 159.9979,551.8356 C 151.1455,549.8965 143.85163,548.2543 143.7893,548.18629 C 143.72698,548.11825 138.27919,537.91127 131.68312,525.50413 L 119.69026,502.94566 L 104.53104,496.20787 C 96.193467,492.50209 89.278177,489.37644 89.163719,489.26198 C 88.975325,489.07359 92.629025,482.39535 93.302767,481.69663 C 93.458161,481.53548 99.553627,485.74869 106.84825,491.05932 L 120.1112,500.71503 L 131.89772,480.12443 C 138.3803,468.79961 143.78544,459.4722 143.90912,459.39687 C 144.0328,459.32153 153.26391,457.05225 164.4227,454.35403 C 175.58149,451.6558 185.72135,449.19595 186.95573,448.88769 L 189.20005,448.32722 L 189.20005,435.44356 L 189.20005,422.5599 L 190.2816,422.5599 L 191.36314,422.5599 L 191.2691,436.26235 L 191.17506,449.9648 L 168.13892,455.54268 L 145.10278,461.12056 L 133.36482,481.67067 L 121.62686,502.22076 L 133.36361,524.32039 C 140.25979,537.30555 145.34538,546.49109 145.69446,546.59228 C 146.02121,546.68705 153.15619,548.23642 161.54996,550.0354 C 169.94374,551.83438 177.10358,553.39266 177.46072,553.49823 C 178.476,553.79836 178.10318,555.23046 176.99092,555.30282 C 176.49717,555.33492 168.85031,553.77466 159.9979,551.8356 z M 342.72792,554.00527 C 341.98004,553.17889 341.87156,553.40749 345.23805,548.71559 L 347.12271,546.08894 L 347.93372,546.74565 L 348.74469,547.40236 L 346.29543,550.78475 C 344.94834,552.64507 343.74063,554.29215 343.61168,554.44494 C 343.48274,554.59774 343.08504,554.39987 342.72792,554.00527 z M 140.04994,553.0001 C 139.32965,552.39837 139.32415,552.33793 139.92038,551.57755 C 140.52627,550.80483 140.56595,550.80084 141.39056,551.42936 C 142.14773,552.00646 142.18636,552.15807 141.75305,552.8519 C 141.16638,553.79132 141.01305,553.80465 140.04994,553.0001 z M 338.49021,550.12737 C 337.97124,549.54764 338.09416,549.26939 340.07664,546.53644 C 341.25859,544.90706 342.34455,543.57393 342.48992,543.57393 C 342.63528,543.57393 343.04902,543.78953 343.40941,544.05304 C 344.02188,544.50086 343.91656,544.7352 341.79551,547.64395 C 340.54748,549.35546 339.41982,550.75578 339.28955,550.75578 C 339.1593,550.75578 338.7996,550.47299 338.49021,550.12737 z M 267.39235,548.20507 C 266.5828,547.74422 266.59405,547.07081 267.42384,546.31988 C 268.04175,545.76066 268.12599,545.76935 268.74778,546.45644 C 269.39433,547.17085 269.3935,547.20827 268.7163,547.8765 C 268.1935,548.39238 267.86469,548.47396 267.39235,548.20507 z M 334.53862,546.64457 C 334.19517,546.39342 333.91415,546.08209 333.91415,545.9527 C 333.91415,545.28834 337.61564,540.72468 337.98446,540.93432 C 339.29033,541.67656 339.26552,541.83761 337.46331,544.31546 C 335.33989,547.23484 335.34277,547.23258 334.53862,546.64457 z M 262.62639,544.86932 C 261.97091,544.39001 261.99768,544.30817 263.27075,542.89902 L 264.59901,541.42879 L 265.19465,542.33786 C 265.76974,543.21556 265.75521,543.28354 264.77356,544.30817 C 263.60632,545.5265 263.54651,545.54211 262.62639,544.86932 z M 330.24207,542.97978 C 329.68074,542.41845 329.73751,542.24238 331.11169,540.28339 C 332.66139,538.07415 332.83383,537.96843 333.93057,538.55541 C 334.57359,538.89956 334.51207,539.06751 332.97717,541.15883 C 332.07474,542.38839 331.2253,543.43622 331.0895,543.48736 C 330.95372,543.53849 330.57241,543.31011 330.24207,542.97978 z M 60.012043,542.49777 C 59.367614,542.10485 58.565566,541.20715 58.229722,540.50287 C 57.698949,539.38983 57.687818,539.1789 58.144593,538.89001 C 59.036712,538.32573 59.463019,538.50399 59.932587,539.63764 C 60.465469,540.92412 61.260351,541.41938 62.792358,541.41938 C 64.90819,541.41938 66.325686,539.00194 65.316046,537.11541 C 64.886921,536.31359 62.79526,535.56033 61.925118,535.89421 C 61.429169,536.08453 61.325142,535.96794 61.421441,535.32968 C 61.506978,534.76278 61.95634,534.38376 62.943287,534.04611 C 65.072359,533.31765 65.577822,531.98844 64.23601,530.64662 C 62.899687,529.3103 60.158369,530.13175 59.515202,532.06126 C 59.40962,532.37801 59.086362,532.45164 58.549416,532.28121 C 57.529746,531.9576 57.77284,530.9112 59.211796,529.43005 C 60.638799,527.96122 63.198181,527.72785 64.92651,528.90894 C 66.90898,530.26368 67.277223,532.7672 65.693488,534.12324 C 65.03825,534.68425 65.056186,534.74106 66.241965,535.85938 C 70.026046,539.42821 64.549238,545.26411 60.012043,542.49777 z M 258.24166,541.89945 L 257.43986,541.33995 L 259.1099,539.38516 C 260.77548,537.43558 260.78186,537.43224 261.49241,538.14281 C 262.20296,538.85335 262.20079,538.86013 260.6805,540.67595 C 259.8421,541.67735 259.13078,542.48818 259.0998,542.47781 C 259.06881,542.46746 258.68265,542.2072 258.24166,541.89945 z M 326.21228,539.28537 C 325.60519,538.61455 325.62612,538.52478 326.75612,536.95127 C 328.06077,535.13455 328.11036,535.10996 329.06285,535.80645 C 329.70448,536.27561 329.67338,536.38229 328.38273,538.14055 C 327.63888,539.1539 326.98824,539.98301 326.93692,539.98301 C 326.88561,539.98301 326.55951,539.66906 326.21228,539.28537 z M 253.66855,538.77898 C 253.00819,538.29611 253.01051,538.25848 253.75961,537.30616 C 254.18241,536.76868 255.11668,535.67764 255.83578,534.88172 L 257.14322,533.4345 L 257.88096,534.17226 L 258.61868,534.90998 L 256.71932,536.99763 C 255.67466,538.14583 254.71336,539.12783 254.58309,539.17991 C 254.45281,539.23194 254.04127,539.05152 253.66855,538.77898 z M 76.331591,536.94912 C 74.069571,536.14238 72.88781,534.95393 71.492776,532.08299 C 70.660746,530.3707 70.532233,529.65419 70.526606,526.69661 C 70.519431,522.92557 71.258258,520.65991 73.142789,518.67392 C 75.285517,516.4158 79.264897,515.39253 82.500339,516.26771 C 84.375895,516.77504 86.633073,518.80495 87.390512,520.66548 L 87.932077,521.99573 L 86.587487,522.36743 C 85.84796,522.57183 85.201852,522.61958 85.151694,522.4735 C 84.787199,521.4121 83.441138,519.74997 82.463213,519.15373 C 79.865565,517.56992 75.887817,518.79428 74.290588,521.66932 C 73.509401,523.07545 73.392857,523.7281 73.392857,526.69661 C 73.392857,529.66508 73.509401,530.31776 74.290588,531.72389 C 75.489738,533.88236 77.708419,535.06546 80.152582,534.84979 C 82.311714,534.65926 83.551262,533.77176 84.704256,531.59082 C 85.568486,529.95612 85.648889,529.90132 86.858808,530.12217 C 87.550063,530.24835 88.167273,530.40226 88.230387,530.46424 C 88.610408,530.8373 86.538491,534.45576 85.374219,535.45231 C 83.077129,537.41855 79.368916,538.03236 76.331591,536.94912 z M 38.38138,526.69661 L 38.38138,516.28294 L 39.817751,516.28294 L 41.254114,516.28294 L 41.254114,520.59204 L 41.254114,524.90115 L 46.640497,524.90115 L 52.026881,524.90115 L 52.026881,520.59204 L 52.026881,516.28294 L 53.463243,516.28294 L 54.899614,516.28294 L 54.899614,526.69661 L 54.899614,537.11028 L 53.463243,537.11028 L 52.026881,537.11028 L 52.026881,532.26253 L 52.026881,527.41479 L 46.640497,527.41479 L 41.254114,527.41479 L 41.254114,532.26253 L 41.254114,537.11028 L 39.817751,537.11028 L 38.38138,537.11028 L 38.38138,526.69661 z M 395.42418,536.25269 C 393.13773,535.50521 391.17681,533.75179 390.04132,531.43946 C 389.15314,529.63082 389.03479,528.98866 389.03479,525.97842 C 389.03479,522.96514 389.15268,522.32696 390.04513,520.50959 C 392.20596,516.10917 396.68926,514.26067 401.6276,515.73399 C 405.4328,516.86923 407.77674,520.19578 408.13809,524.97383 C 408.63909,531.59789 405.0611,536.25337 399.19562,536.60934 C 397.86895,536.68985 396.31064,536.54248 395.42418,536.25269 z M 402.40543,532.93511 C 404.1424,531.55053 405.03589,529.72407 405.27699,527.06529 C 405.6466,522.98898 404.1295,519.69776 401.28561,518.40629 C 397.57331,516.72045 393.41962,518.61689 392.25817,522.52794 C 390.34497,528.97034 393.54519,534.48887 398.99406,534.14349 C 400.62505,534.04011 401.33455,533.78878 402.40543,532.93511 z M 216.93528,535.67502 C 216.29085,535.2821 215.4888,534.38441 215.15296,533.68012 C 214.62219,532.56708 214.61106,532.35615 215.06783,532.06726 C 215.95995,531.50298 216.38626,531.68123 216.85582,532.81489 C 217.38871,534.10137 218.18359,534.59663 219.71559,534.59663 C 221.83143,534.59663 223.24892,532.17919 222.23928,530.29266 C 221.81016,529.49085 219.7185,528.73758 218.84835,529.07146 C 218.35241,529.26178 218.24838,529.14518 218.34469,528.50693 C 218.43021,527.94004 218.87958,527.56102 219.86652,527.22336 C 221.9956,526.49491 222.50106,525.16569 221.15925,523.82387 C 219.82292,522.48754 217.08161,523.30901 216.43844,525.23851 C 216.33286,525.55527 216.0096,525.62888 215.47266,525.45845 C 214.45298,525.13484 214.69608,524.08845 216.13503,522.60731 C 217.56204,521.13847 220.12142,520.9051 221.84975,522.08619 C 223.83222,523.44094 224.20047,525.94445 222.61673,527.30049 C 221.96149,527.8615 221.97942,527.91831 223.1652,529.03663 C 226.94928,532.60547 221.47247,538.44136 216.93528,535.67502 z M 249.17086,535.67574 L 248.37521,535.07559 L 250.997,532.11958 L 253.61879,529.16357 L 254.2466,529.99487 C 254.95259,530.92969 255.23514,530.45074 251.61909,534.44876 C 250.01019,536.2276 249.94548,536.26006 249.17086,535.67574 z M 322.29497,535.73058 C 321.54096,534.89745 321.55058,534.77643 322.46945,533.53358 C 323.13701,532.63068 323.34184,532.5488 324.08537,532.88757 C 325.14383,533.36983 325.14099,533.4029 323.90087,535.04065 C 322.93032,536.32246 322.8585,536.35331 322.29497,535.73058 z M 369.10517,525.97842 L 369.10517,515.56475 L 370.54154,515.56475 L 371.97791,515.56475 L 371.97791,519.87385 L 371.97791,524.18297 L 377.36429,524.18297 L 382.75067,524.18297 L 382.75067,519.87385 L 382.75067,515.56475 L 384.18704,515.56475 L 385.62341,515.56475 L 385.62341,525.97842 L 385.62341,536.3921 L 384.18704,536.3921 L 382.75067,536.3921 L 382.75067,531.54435 L 382.75067,526.69661 L 377.36429,526.69661 L 371.97791,526.69661 L 371.97791,531.54435 L 371.97791,536.3921 L 370.54154,536.3921 L 369.10517,536.3921 L 369.10517,525.97842 z M 244.59359,532.56137 C 243.78942,532.00029 243.78993,531.99939 246.72209,528.71998 C 248.33517,526.91587 249.75927,525.39544 249.88677,525.34125 C 250.01427,525.2871 250.39338,525.5464 250.72925,525.91752 C 251.31294,526.56252 251.21178,526.73733 248.43834,529.8763 C 246.84248,531.68246 245.50554,533.15179 245.46737,533.14141 C 245.42919,533.13107 245.036,532.87004 244.59359,532.56137 z M 317.96056,531.96686 C 317.39229,531.55132 317.37197,531.39342 317.79874,530.71004 C 318.34981,529.82764 318.58832,529.77259 319.5741,530.30017 C 320.22552,530.64881 320.23268,530.72681 319.68872,531.55699 C 319.0212,532.57574 318.84909,532.61657 317.96056,531.96686 z M 233.25484,530.12636 C 230.99281,529.31963 229.81105,528.13118 228.41601,525.26024 C 227.58398,523.54794 227.45548,522.83145 227.44985,519.87385 C 227.44267,516.10281 228.1815,513.83716 230.06603,511.85117 C 232.20875,509.59305 236.18813,508.56978 239.42358,509.44496 C 241.29913,509.95229 243.55631,511.9822 244.31376,513.84273 L 244.85532,515.17298 L 243.51072,515.54468 C 242.7712,515.74907 242.12509,515.79684 242.07493,515.65076 C 241.71044,514.58935 240.36438,512.92722 239.38645,512.33099 C 236.7888,510.74717 232.81105,511.97153 231.21382,514.84657 C 230.43264,516.2527 230.31609,516.90535 230.31609,519.87385 C 230.31609,522.84233 230.43264,523.49501 231.21382,524.90115 C 232.41298,527.05961 234.63166,528.24272 237.07582,528.02704 C 239.23495,527.83651 240.47451,526.94902 241.62749,524.76807 C 242.49172,523.13337 242.57213,523.07857 243.78205,523.29941 C 244.4733,523.4256 245.09051,523.57951 245.15362,523.64149 C 245.53364,524.01455 243.46174,527.63301 242.29746,528.62957 C 240.00037,530.59581 236.29216,531.2096 233.25484,530.12636 z M 195.30462,519.87385 L 195.30462,509.46019 L 196.74099,509.46019 L 198.17735,509.46019 L 198.17735,513.76929 L 198.17735,518.0784 L 203.56373,518.0784 L 208.95012,518.0784 L 208.95012,513.76929 L 208.95012,509.46019 L 210.38649,509.46019 L 211.82285,509.46019 L 211.82285,519.87385 L 211.82285,530.28753 L 210.38649,530.28753 L 208.95012,530.28753 L 208.95012,525.43979 L 208.95012,520.59204 L 203.56373,520.59204 L 198.17735,520.59204 L 198.17735,525.43979 L 198.17735,530.28753 L 196.74099,530.28753 L 195.30462,530.28753 L 195.30462,519.87385 z M 90.153707,519.81493 C 88.906708,517.63632 87.938005,515.81066 88.001033,515.75791 C 88.064062,515.70516 88.460518,515.48288 88.882045,515.26391 C 89.595561,514.89325 89.800682,515.12878 91.854081,518.67693 C 93.067171,520.77309 94.015022,522.50762 93.960406,522.53143 C 93.905791,522.55524 93.537078,522.84502 93.141046,523.17539 C 92.440616,523.7597 92.359174,523.6681 90.153707,519.81493 z M 96.085537,518.8865 C 95.625152,518.1458 94.736698,516.63546 94.111181,515.53021 L 92.973883,513.52069 L 93.912765,513.09291 C 94.429151,512.85763 94.883701,512.71155 94.922882,512.76833 C 95.476009,513.56974 98.349759,518.83964 98.349759,519.05254 C 98.349759,519.21177 98.028648,519.54252 97.63618,519.78764 C 96.998702,520.18577 96.83334,520.08968 96.085537,518.8865 z M 99.81996,514.20268 C 98.354462,511.64612 98.301786,511.46061 98.91414,511.01287 C 99.271729,510.75138 99.681094,510.53747 99.823848,510.53747 C 100.02247,510.53747 102.30013,514.23938 102.94145,515.60454 C 102.99811,515.72516 102.66905,516.06985 102.21021,516.37049 C 101.39009,516.90786 101.34957,516.87113 99.81996,514.20268 z M 104.53864,511.26692 C 103.3782,509.15417 103.37381,509.1281 104.11272,508.73263 C 105.04938,508.23134 105.43599,508.53858 106.60888,510.71615 C 107.49054,512.35303 107.49413,512.39207 106.80956,512.89652 C 106.42619,513.17905 106.02221,513.40826 105.91183,513.40593 C 105.80145,513.40359 105.18351,512.44105 104.53864,511.26692 z M 109.43789,508.54486 C 108.69884,507.14383 108.65639,506.87968 109.12252,506.58264 C 110.07475,505.97578 110.52899,506.19834 111.25915,507.62957 C 111.98158,509.04565 111.93583,509.23256 110.69471,509.93563 C 110.45905,510.06914 109.93751,509.49204 109.43789,508.54486 z M 114.19545,505.64648 C 113.84063,504.86772 113.84569,504.61938 114.22121,504.38116 C 115.35856,503.65975 116.74371,504.73256 116.06551,505.80958 C 115.46465,506.76377 114.67307,506.69475 114.19545,505.64648 z M 527.10564,493.30104 L 527.10564,482.88737 L 528.63179,482.8965 L 530.15794,482.90564 L 535.45359,490.8863 L 540.74923,498.86697 L 540.75023,490.87716 L 540.75115,482.88737 L 542.18755,482.88737 L 543.62394,482.88737 L 543.62394,493.30104 L 543.62394,503.71471 L 542.09779,503.70556 L 540.57164,503.69644 L 535.276,495.71577 L 529.98036,487.73511 L 529.97936,495.72491 L 529.97843,503.71471 L 528.54204,503.71471 L 527.10564,503.71471 L 527.10564,493.30104 z M 393.96767,501.56127 C 393.32324,501.16836 392.5212,500.27066 392.18535,499.56638 C 391.65457,498.45335 391.64344,498.24241 392.10021,497.95351 C 392.99234,497.38925 393.41865,497.5675 393.8882,498.70114 C 394.42109,499.98764 395.21598,500.48288 396.74797,500.48288 C 398.86381,500.48288 400.28129,498.06546 399.27167,496.17893 C 398.84256,495.37711 396.75088,494.62383 395.88073,494.95773 C 395.38479,495.14805 395.28076,495.03144 395.37706,494.39317 C 395.4626,493.82628 395.91197,493.44728 396.8989,493.1096 C 399.02799,492.38116 399.53345,491.05193 398.19163,489.71011 C 396.8553,488.3738 394.114,489.19527 393.47083,491.12476 C 393.36525,491.44152 393.042,491.51514 392.50505,491.34472 C 391.48537,491.02109 391.72848,489.9747 393.16743,488.49356 C 394.59443,487.02473 397.15378,486.79134 398.88213,487.97242 C 400.8646,489.32719 401.23285,491.8307 399.64911,493.18673 C 398.99388,493.74777 399.01179,493.80455 400.19759,494.92288 C 403.98167,498.49173 398.50487,504.32761 393.96767,501.56127 z M 615.52744,496.53398 C 614.88307,496.14107 614.08097,495.24337 613.74512,494.5391 C 613.21436,493.42606 613.20327,493.21512 613.65998,492.92622 C 614.55214,492.36196 614.97844,492.54022 615.448,493.67385 C 615.98092,494.96036 616.77578,495.45559 618.30778,495.45559 C 620.42358,495.45559 621.84111,493.03817 620.83148,491.15163 C 620.40233,490.34982 618.31071,489.59654 617.44056,489.93045 C 616.94459,490.12076 616.84052,490.00415 616.9369,489.36589 C 617.02242,488.79899 617.47173,488.41999 618.45866,488.08231 C 620.58777,487.35387 621.09328,486.02464 619.75141,484.68283 C 618.41509,483.34651 615.67378,484.16797 615.03063,486.09748 C 614.92502,486.41423 614.60179,486.48785 614.06488,486.31743 C 613.04516,485.9938 613.28826,484.94741 614.72719,483.46627 C 616.15419,481.99744 618.71361,481.76405 620.4419,482.94514 C 622.42437,484.29991 622.79262,486.80341 621.2089,488.15945 C 620.55367,488.72048 620.5716,488.77726 621.75736,489.8956 C 625.54148,493.46444 620.06463,499.30033 615.52744,496.53398 z M 356.4234,496.01261 C 354.16138,495.20587 352.97961,494.01744 351.5846,491.14648 C 350.75255,489.43418 350.62404,488.71772 350.61843,485.7601 C 350.61125,481.98908 351.35009,479.72342 353.23459,477.73742 C 355.37734,475.47931 359.35673,474.45605 362.59214,475.33122 C 364.46772,475.83855 366.72489,477.86844 367.48233,479.72899 L 368.02391,481.05925 L 366.67929,481.43092 C 365.93978,481.63533 365.29366,481.68308 365.2435,481.53702 C 364.87902,480.47562 363.53297,478.81348 362.55501,478.21723 C 359.95738,476.63343 355.97964,477.8578 354.3824,480.73282 C 353.60123,482.13894 353.48467,482.79161 353.48467,485.7601 C 353.48467,488.7286 353.60123,489.38127 354.3824,490.78739 C 355.58155,492.94587 357.80024,494.12898 360.24439,493.9133 C 362.40351,493.72276 363.6431,492.83525 364.79607,490.65434 C 365.6603,489.01963 365.74069,488.96481 366.95062,489.18567 C 367.64188,489.31184 368.25908,489.46577 368.32221,489.52773 C 368.70224,489.90079 366.63031,493.51925 365.46602,494.51583 C 363.16895,496.48205 359.46075,497.09586 356.4234,496.01261 z M 371.97791,485.7601 L 371.97791,475.34643 L 373.41428,475.34643 L 374.85065,475.34643 L 374.85065,479.65554 L 374.85065,483.96465 L 380.23703,483.96465 L 385.62341,483.96465 L 385.62341,479.65554 L 385.62341,475.34643 L 387.05978,475.34643 L 388.49615,475.34643 L 388.49615,485.7601 L 388.49615,496.17378 L 387.05978,496.17378 L 385.62341,496.17378 L 385.62341,491.32603 L 385.62341,486.47829 L 380.23703,486.47829 L 374.85065,486.47829 L 374.85065,491.32603 L 374.85065,496.17378 L 373.41428,496.17378 L 371.97791,496.17378 L 371.97791,485.7601 z M 578.34233,490.98532 C 576.08028,490.17858 574.89852,488.99015 573.50347,486.1192 C 572.67142,484.4069 572.54294,483.69042 572.53733,480.73282 C 572.53017,476.9618 573.26899,474.69614 575.15347,472.71013 C 577.29621,470.45202 581.27562,469.42876 584.51104,470.30394 C 586.38659,470.81127 588.64379,472.84116 589.40125,474.7017 L 589.94278,476.03197 L 588.59814,476.40363 C 587.85863,476.60805 587.21256,476.65579 587.16237,476.50973 C 586.79788,475.44833 585.45186,473.78619 584.47386,473.18994 C 581.87627,471.60614 577.89855,472.83051 576.30128,475.70552 C 575.52011,477.11166 575.40357,477.76432 575.40357,480.73282 C 575.40357,483.70131 575.52011,484.35397 576.30128,485.7601 C 577.50043,487.91859 579.71914,489.10169 582.16332,488.886 C 584.32237,488.69547 585.56201,487.80796 586.71498,485.62705 C 587.5792,483.99234 587.65956,483.93753 588.86949,484.15838 C 589.56074,484.28455 590.17795,484.43848 590.24107,484.50044 C 590.6211,484.87351 588.54919,488.49197 587.38491,489.48853 C 585.08783,491.45476 581.37961,492.06856 578.34233,490.98532 z M 593.89679,480.73282 L 593.89679,470.31915 L 595.33318,470.31915 L 596.7695,470.31915 L 596.7695,474.62825 L 596.7695,478.93735 L 602.1559,478.93735 L 607.5423,478.93735 L 607.5423,474.62825 L 607.5423,470.31915 L 608.97869,470.31915 L 610.41501,470.31915 L 610.41501,480.73282 L 610.41501,491.14648 L 608.97869,491.14648 L 607.5423,491.14648 L 607.5423,486.29874 L 607.5423,481.451 L 602.1559,481.451 L 596.7695,481.451 L 596.7695,486.29874 L 596.7695,491.14648 L 595.33318,491.14648 L 593.89679,491.14648 L 593.89679,480.73282 z M 76.191338,489.57072 C 73.904894,488.82323 71.943955,487.06981 70.808457,484.75749 C 69.920295,482.94884 69.801935,482.30667 69.801935,479.29645 C 69.801935,476.28317 69.919833,475.64497 70.81226,473.82762 C 72.973124,469.42721 77.456419,467.57869 82.394757,469.05201 C 86.199953,470.18726 88.543892,473.51383 88.905253,478.29185 C 89.406236,484.91591 85.828238,489.57141 79.962764,489.92737 C 78.636117,490.00788 77.077776,489.86052 76.191338,489.57072 z M 83.172603,486.25316 C 84.909547,484.86856 85.803043,483.04212 86.044136,480.38331 C 86.413757,476.30702 84.896661,473.01578 82.052755,471.72432 C 78.340448,470.03849 74.186776,471.93494 73.025322,475.84597 C 71.112132,482.28839 74.312342,487.80691 79.76123,487.46152 C 81.392191,487.35814 82.101713,487.10682 83.172603,486.25316 z M 265.7718,489.35214 C 265.12737,488.95923 264.32533,488.06153 263.98949,487.35725 C 263.45871,486.24422 263.44757,486.03328 263.90435,485.74438 C 264.79647,485.18012 265.22277,485.35837 265.69235,486.49201 C 266.22523,487.77851 267.02011,488.27375 268.55211,488.27375 C 270.66795,488.27375 272.08544,485.85633 271.0758,483.9698 C 270.64668,483.16798 268.55502,482.4147 267.68488,482.7486 C 267.18893,482.93892 267.08491,482.82231 267.1812,482.18404 C 267.26674,481.61715 267.7161,481.23815 268.70305,480.90047 C 270.83211,480.17202 271.33758,478.8428 269.99577,477.50098 C 268.65944,476.16467 265.91813,476.98614 265.27496,478.91563 C 265.16938,479.23239 264.84613,479.30601 264.30918,479.13559 C 263.2895,478.81196 263.53259,477.76556 264.97156,476.28443 C 266.39855,474.8156 268.95794,474.58221 270.68627,475.76329 C 272.66874,477.11806 273.03699,479.62157 271.45325,480.9776 C 270.79801,481.53864 270.81594,481.59542 272.00172,482.71375 C 275.78581,486.2826 270.30899,492.1185 265.7718,489.35214 z M 547.45047,489.27693 C 547.33655,488.84118 547.31476,488.4132 547.40213,488.32587 C 547.60312,488.12481 568.43868,482.529 568.98783,482.52858 C 569.66731,482.52807 569.82019,484.28256 569.15787,484.47953 C 566.9183,485.14558 548.2896,490.06921 548.00925,490.06921 C 547.81588,490.06921 547.56448,489.71268 547.45047,489.27693 z M 49.51323,479.29645 L 49.51323,468.88278 L 50.949601,468.88278 L 52.385971,468.88278 L 52.385971,473.19188 L 52.385971,477.50098 L 57.772355,477.50098 L 63.15873,477.50098 L 63.15873,473.19188 L 63.15873,468.88278 L 64.595101,468.88278 L 66.031471,468.88278 L 66.031471,479.29645 L 66.031471,489.71011 L 64.595101,489.71011 L 63.15873,489.71011 L 63.15873,484.86238 L 63.15873,480.01463 L 57.772355,480.01463 L 52.385971,480.01463 L 52.385971,484.86238 L 52.385971,489.71011 L 50.949601,489.71011 L 49.51323,489.71011 L 49.51323,479.29645 z M 346.19744,489.45465 C 345.631,489.34621 345.42797,489.10921 345.54716,488.69559 C 345.64249,488.36483 345.89706,486.80147 346.11283,485.22147 C 346.71568,480.80768 346.74293,480.73282 347.74605,480.73282 C 348.40668,480.73282 348.63693,480.92433 348.63693,481.4738 C 348.63693,482.85227 347.47121,489.71048 347.24526,489.66122 C 347.12192,489.63432 346.65039,489.54136 346.19744,489.45465 z M 341.00622,488.02622 C 340.26354,487.83213 340.23859,487.28859 340.79087,483.33624 C 341.19895,480.41586 341.21938,480.37372 342.22767,480.37372 C 342.79026,480.37372 343.24763,480.49492 343.24412,480.64304 C 343.24056,480.79116 343.00108,482.44748 342.71191,484.32374 C 342.42273,486.19999 342.18325,487.8563 342.1797,488.00443 C 342.17291,488.28852 342.02076,488.29135 341.00622,488.02622 z M 335.7782,486.49887 C 334.78416,486.25895 334.82718,486.44173 335.13973,483.7851 C 335.5073,480.66059 335.63629,480.37372 336.67338,480.37372 C 337.58562,480.37372 337.58788,480.38168 337.34043,482.69239 C 336.96141,486.23182 336.75503,486.73465 335.7782,486.49887 z M 330.413,485.0078 C 329.54719,484.68436 329.47696,484.28119 329.8334,481.68067 C 330.04533,480.1344 330.13658,480.01463 331.1026,480.01463 L 332.14343,480.01463 L 331.89487,481.89987 C 331.47947,485.0503 331.33544,485.35239 330.413,485.0078 z M 228.22754,483.80348 C 225.96552,482.99674 224.78375,481.80831 223.38873,478.93735 C 222.5567,477.22505 222.42818,476.50859 222.42256,473.55097 C 222.41538,469.77995 223.15421,467.51429 225.03873,465.52829 C 227.18147,463.27018 231.16085,462.24692 234.39629,463.12209 C 236.27184,463.62943 238.52902,465.65931 239.28646,467.51986 L 239.82803,468.85012 L 238.48344,469.22179 C 237.74391,469.4262 237.0978,469.47395 237.04765,469.32789 C 236.68315,468.26649 235.33709,466.60435 234.35917,466.0081 C 231.76152,464.4243 227.78377,465.64867 226.18653,468.52369 C 225.40535,469.92981 225.2888,470.58248 225.2888,473.55097 C 225.2888,476.51947 225.40535,477.17214 226.18653,478.57826 C 227.38569,480.73674 229.60436,481.91985 232.04853,481.70416 C 234.20766,481.51363 235.44721,480.62613 236.60021,478.44521 C 237.46443,476.8105 237.54484,476.75568 238.75476,476.97654 C 239.44601,477.10271 240.06322,477.25664 240.12633,477.3186 C 240.50636,477.69166 238.43444,481.31012 237.27017,482.3067 C 234.97307,484.27293 231.26487,484.88673 228.22754,483.80348 z M 243.78205,473.55097 L 243.78205,463.1373 L 245.21842,463.1373 L 246.65479,463.1373 L 246.65479,467.44641 L 246.65479,471.75552 L 252.04116,471.75552 L 257.42755,471.75552 L 257.42755,467.44641 L 257.42755,463.1373 L 258.86392,463.1373 L 260.30028,463.1373 L 260.30028,473.55097 L 260.30028,483.96465 L 258.86392,483.96465 L 257.42755,483.96465 L 257.42755,479.1169 L 257.42755,474.26916 L 252.04116,474.26916 L 246.65479,474.26916 L 246.65479,479.1169 L 246.65479,483.96465 L 245.21842,483.96465 L 243.78205,483.96465 L 243.78205,473.55097 z M 325.02662,483.57244 C 324.43972,483.35246 324.21867,482.97972 324.21867,482.21012 C 324.21867,480.60509 324.56702,480.01463 325.51391,480.01463 C 326.25134,480.01463 326.36815,480.18017 326.33742,481.18168 C 326.27253,483.29785 325.93523,483.913 325.02662,483.57244 z M 319.07169,481.92979 C 318.94001,481.79813 318.83228,481.23255 318.83228,480.67297 C 318.83228,479.94129 319.00878,479.65708 319.46069,479.66104 C 320.59123,479.67093 321.04393,480.20073 320.78919,481.21575 C 320.56321,482.11614 319.64132,482.49942 319.07169,481.92979 z M 522.83572,472.42433 C 520.4442,468.26877 518.48744,464.76044 518.48744,464.62805 C 518.48744,464.35931 519.94577,463.3811 520.07779,463.56128 C 520.14907,463.65862 528.40055,477.9661 528.76758,478.62876 C 528.83763,478.75528 528.51002,479.11105 528.03945,479.41935 L 527.18393,479.97989 L 522.83572,472.42433 z M 217.8131,470.16042 C 217.19841,469.69445 217.28992,469.44298 219.37472,465.86908 C 221.4421,462.32506 221.64063,462.09941 222.36178,462.47411 C 222.78664,462.69488 223.1862,462.91903 223.2497,462.97223 C 223.42867,463.12218 218.95626,470.67972 218.69619,470.66682 C 218.56962,470.66053 218.17223,470.43266 217.8131,470.16042 z M 492.71795,467.80662 C 492.07358,467.41371 491.27155,466.51601 490.9357,465.81173 C 490.40487,464.69869 490.39378,464.48776 490.85056,464.19886 C 491.74265,463.63459 492.16895,463.81285 492.63851,464.94649 C 493.17142,466.23298 493.96629,466.72822 495.49829,466.72822 C 497.61416,466.72822 499.03162,464.3108 498.02199,462.42427 C 497.59284,461.62245 495.50121,460.86917 494.63107,461.20308 C 494.1351,461.39339 494.03111,461.27679 494.1274,460.63852 C 494.21293,460.07163 494.66232,459.69262 495.64924,459.35495 C 497.77828,458.6265 498.28378,457.29728 496.94192,455.95547 C 495.6056,454.61914 492.86429,455.44061 492.22114,457.37011 C 492.11561,457.68687 491.7923,457.76049 491.25539,457.59007 C 490.23567,457.26643 490.47876,456.22004 491.91777,454.7389 C 493.34478,453.27007 495.90411,453.03668 497.63248,454.21778 C 499.61495,455.57254 499.98321,458.07604 498.3994,459.43208 C 497.74417,459.99312 497.76211,460.0499 498.94794,461.16823 C 502.73199,464.73708 497.25522,470.57297 492.71795,467.80662 z M 213.38075,466.81001 L 212.60456,466.18958 L 214.363,463.13906 C 215.33015,461.46126 216.25155,460.04516 216.41054,459.99216 C 216.56955,459.93916 217.00162,460.11661 217.37072,460.3865 C 218.0094,460.85352 217.95106,461.03576 216.16216,464.16181 C 215.12836,465.96834 214.25427,467.44281 214.21974,467.43842 C 214.1852,467.43403 213.80766,467.15125 213.38075,466.81001 z M 208.86035,463.46763 C 208.51472,463.26632 208.23193,462.92879 208.23193,462.71757 C 208.23193,462.41748 210.4269,458.4807 210.98357,457.78236 C 211.04851,457.70091 211.49775,457.81474 211.9819,458.03534 L 212.86217,458.43641 L 211.35501,461.13821 C 210.52607,462.62419 209.76705,463.83856 209.6683,463.83682 C 209.56955,463.83508 209.20597,463.66895 208.86035,463.46763 z M 508.67847,462.25795 C 506.41642,461.45122 505.23467,460.26278 503.83961,457.39183 C 503.00756,455.67953 502.87909,454.96306 502.87347,452.00545 C 502.86631,448.23443 503.60514,445.96877 505.48962,443.98276 C 507.63235,441.72465 511.61176,440.7014 514.84719,441.57657 C 516.72274,442.0839 518.97994,444.11379 519.73739,445.97433 L 520.27893,447.3046 L 518.93429,447.67627 C 518.19485,447.88068 517.5487,447.92843 517.49851,447.78236 C 517.13403,446.72097 515.788,445.05883 514.81009,444.46258 C 512.21241,442.87877 508.2347,444.10315 506.63742,446.97816 C 505.85626,448.38429 505.73971,449.03695 505.73971,452.00545 C 505.73971,454.97395 505.85626,455.62661 506.63742,457.03274 C 507.83657,459.19122 510.05528,460.37432 512.49946,460.15864 C 514.65852,459.96811 515.89816,459.0806 517.05112,456.89968 C 517.91534,455.26497 517.99571,455.21016 519.20563,455.43101 C 519.89689,455.55719 520.51409,455.71112 520.57721,455.77308 C 520.95725,456.14614 518.88533,459.7646 517.72105,460.76117 C 515.42398,462.7274 511.71576,463.3412 508.67847,462.25795 z M 470.7282,452.00545 L 470.7282,441.59178 L 472.16459,441.59178 L 473.60099,441.59178 L 473.60099,445.90089 L 473.60099,450.20999 L 478.98731,450.20999 L 484.37371,450.20999 L 484.37371,445.90089 L 484.37371,441.59178 L 485.8101,441.59178 L 487.24649,441.59178 L 487.24649,452.00545 L 487.24649,462.41912 L 485.8101,462.41912 L 484.37371,462.41912 L 484.37371,457.57138 L 484.37371,452.72363 L 478.98731,452.72363 L 473.60099,452.72363 L 473.60099,457.57138 L 473.60099,462.41912 L 472.16459,462.41912 L 470.7282,462.41912 L 470.7282,452.00545 z M 203.94717,459.75527 C 203.61268,459.35222 203.75998,458.82868 204.65319,457.246 C 205.68685,455.41447 205.84725,455.28001 206.55805,455.6494 C 206.98493,455.87124 207.3852,456.09532 207.44753,456.14735 C 207.50986,456.19939 207.05005,457.14705 206.42574,458.25326 C 205.26556,460.309 204.69413,460.65529 203.94717,459.75527 z M 344.07401,457.61153 C 341.78757,456.86403 339.82664,455.11062 338.69116,452.79829 C 337.80298,450.98965 337.68462,450.34748 337.68462,447.33725 C 337.68462,444.32397 337.80251,443.68579 338.69496,441.86842 C 340.8558,437.46802 345.33909,435.6195 350.27744,437.09282 C 354.08263,438.22807 356.42657,441.55464 356.78796,446.33267 C 357.28893,452.95671 353.71094,457.61221 347.84545,457.96818 C 346.51882,458.04869 344.96047,457.90132 344.07401,457.61153 z M 351.0553,454.29397 C 352.79223,452.90936 353.68573,451.08293 353.92682,448.42411 C 354.29643,444.34783 352.77934,441.05659 349.93544,439.76512 C 346.22315,438.07929 342.06945,439.97574 340.90801,443.88678 C 338.9948,450.32919 342.19503,455.84771 347.64393,455.50232 C 349.27489,455.39894 349.98438,455.14762 351.0553,454.29397 z M 360.48697,447.33725 L 360.48697,436.92358 L 361.92334,436.92358 L 363.3597,436.92358 L 363.3597,441.23269 L 363.3597,445.54179 L 368.74608,445.54179 L 374.13247,445.54179 L 374.13247,441.23269 L 374.13247,436.92358 L 375.56883,436.92358 L 377.0052,436.92358 L 377.0052,447.33725 L 377.0052,457.75093 L 375.56883,457.75093 L 374.13247,457.75093 L 374.13247,452.90318 L 374.13247,448.05544 L 368.74608,448.05544 L 363.3597,448.05544 L 363.3597,452.90318 L 363.3597,457.75093 L 361.92334,457.75093 L 360.48697,457.75093 L 360.48697,447.33725 z M 199.48241,456.5025 C 198.83299,456.01064 198.83765,455.95323 199.63454,454.62868 C 200.08669,453.87716 200.48847,453.21583 200.52741,453.15906 C 200.56634,453.10228 201.00243,453.24002 201.4965,453.46513 L 202.39481,453.87443 L 201.5122,455.45358 C 200.54071,457.19178 200.45261,457.2373 199.48241,456.5025 z M 139.83161,455.96288 C 139.21012,455.27615 139.21734,455.22799 140.04527,454.53846 C 141.14582,453.62188 141.24743,453.62951 141.71886,454.66417 C 142.03886,455.3665 141.99413,455.63426 141.4789,456.10054 C 140.67648,456.82672 140.60821,456.82101 139.83161,455.96288 z M 195.05653,453.18891 C 194.38489,452.74099 194.32766,452.53724 194.66531,451.79621 C 195.10752,450.82565 195.59592,450.71352 196.49116,451.37704 C 197.05833,451.79741 197.05699,451.88582 196.47002,452.76975 C 195.89098,453.64172 195.78334,453.67364 195.05653,453.18891 z M 136.20617,452.33381 C 135.53569,451.59295 135.54199,451.57328 136.77883,450.54791 C 137.46666,449.97768 138.19255,449.50678 138.39192,449.50146 C 138.74268,449.49212 139.81216,450.91345 139.58045,451.08103 C 139.51739,451.12664 138.88492,451.59573 138.17495,452.12344 L 136.88411,453.08292 L 136.20617,452.33381 z M 132.64106,448.41233 C 132.28249,448.01612 132.05546,447.63944 132.13654,447.57526 C 132.21762,447.51109 133.08943,446.85451 134.0739,446.11619 L 135.86384,444.7738 L 136.50211,445.56203 C 137.13243,446.34044 137.11713,446.36763 135.27573,447.74149 C 134.25017,448.50666 133.38451,449.13271 133.35204,449.13271 C 133.31957,449.13271 132.99962,448.80854 132.64106,448.41233 z M 129.0898,444.86524 C 128.77283,444.51498 128.5135,444.12537 128.5135,443.99941 C 128.5135,443.87346 129.59982,442.94804 130.92756,441.94291 C 133.14575,440.26371 133.37884,440.16631 133.80029,440.74269 C 134.53325,441.74505 134.35839,442.03516 131.94778,443.81623 C 129.78574,445.41366 129.6359,445.46866 129.0898,444.86524 z M 125.14536,440.92137 C 124.56485,440.27992 124.67488,440.14916 127.69312,437.89335 L 130.84759,435.53573 L 131.32456,436.44095 C 131.58689,436.93882 131.74848,437.38755 131.68365,437.43814 C 130.01732,438.73833 126.06729,441.59178 125.93377,441.59178 C 125.83383,441.59178 125.47905,441.2901 125.14536,440.92137 z M 121.50122,437.27164 C 121.14704,436.88029 120.9236,436.50493 121.00468,436.43753 C 121.08577,436.37012 122.7329,435.13551 124.66499,433.69396 C 128.00799,431.19971 128.20281,431.10589 128.69336,431.75394 C 128.97688,432.12848 129.21397,432.52288 129.22026,432.63037 C 129.23044,432.80462 123.66969,437.06873 122.57943,437.72271 C 122.33389,437.86999 121.86531,437.67397 121.50122,437.27164 z M 112.81873,433.19327 C 110.5323,432.44578 108.57135,430.69236 107.43585,428.38004 C 106.54769,426.57139 106.42933,425.92922 106.42933,422.91899 C 106.42933,419.90571 106.54723,419.26752 107.43966,417.45017 C 109.60052,413.04976 114.08381,411.20124 119.02215,412.67456 C 122.82736,413.80981 125.17129,417.13638 125.53266,421.9144 C 126.03363,428.53845 122.45563,433.19395 116.59016,433.54992 C 115.26352,433.63043 113.70517,433.48307 112.81873,433.19327 z M 119.8,429.87571 C 121.53694,428.49111 122.43044,426.66466 122.67153,424.00586 C 123.04116,419.92957 121.52406,416.63833 118.68015,415.34686 C 114.96785,413.66103 110.81417,415.55748 109.65271,419.46851 C 107.73952,425.91093 110.93974,431.42945 116.38863,431.08407 C 118.01959,430.98068 118.72911,430.72936 119.8,429.87571 z M 86.140627,422.91899 L 86.140627,412.50532 L 87.576989,412.50532 L 89.01336,412.50532 L 89.01336,416.81443 L 89.01336,421.12353 L 94.399746,421.12353 L 99.786121,421.12353 L 99.786121,416.81443 L 99.786121,412.50532 L 101.22249,412.50532 L 102.65886,412.50532 L 102.65886,422.91899 L 102.65886,433.33266 L 101.22249,433.33266 L 99.786121,433.33266 L 99.786121,428.48492 L 99.786121,423.63718 L 94.399746,423.63718 L 89.01336,423.63718 L 89.01336,428.48492 L 89.01336,433.33266 L 87.576989,433.33266 L 86.140627,433.33266 L 86.140627,422.91899 z M 182.01821,409.63259 L 182.01821,399.21891 L 183.54435,399.22805 L 185.07049,399.23719 L 190.36612,407.21785 L 195.66175,415.19851 L 195.66272,407.20872 L 195.66371,399.21891 L 197.10008,399.21891 L 198.53645,399.21891 L 198.53645,409.63259 L 198.53645,420.04626 L 197.01031,420.03712 L 195.48417,420.02798 L 190.18854,412.04732 L 184.89291,404.06666 L 184.89193,412.05645 L 184.89095,420.04626 L 183.45458,420.04626 L 182.01821,420.04626 L 182.01821,409.63259 z M 276.81628,405.85794 C 276.38819,405.05806 276.4118,404.89678 277.02492,404.43228 C 277.6524,403.9569 277.78989,403.99808 278.51386,404.87823 L 279.31144,405.84793 L 278.51386,406.29117 C 277.42247,406.89765 277.36483,406.88295 276.81628,405.85794 z M 281.30928,402.7486 C 280.36609,401.32338 280.34975,401.22792 280.97109,400.7736 C 281.89733,400.09631 281.94183,400.11912 283.21215,401.92134 L 284.35765,403.54648 L 283.43745,403.89635 C 282.93134,404.08877 282.46843,404.24621 282.40878,404.24621 C 282.34914,404.24621 281.85435,403.57228 281.30928,402.7486 z M 341.89932,401.73368 C 341.25489,401.34077 340.45286,400.44307 340.117,399.73879 C 339.58622,398.62575 339.57509,398.41482 340.03186,398.12592 C 340.92399,397.56165 341.3503,397.73991 341.81985,398.87355 C 342.35274,400.16004 343.14763,400.65528 344.67962,400.65528 C 346.79546,400.65528 348.21294,398.23786 347.20332,396.35133 C 346.77421,395.54951 344.68253,394.79624 343.81238,395.13014 C 343.31644,395.32045 343.21241,395.20385 343.30871,394.56558 C 343.39425,393.99869 343.84362,393.61968 344.83055,393.28201 C 346.95964,392.55356 347.4651,391.22434 346.12328,389.88253 C 344.78695,388.5462 342.04565,389.36767 341.40248,391.29717 C 341.2969,391.61393 340.97365,391.68755 340.4367,391.51713 C 339.41702,391.19349 339.66013,390.1471 341.09908,388.66596 C 342.52608,387.19713 345.08547,386.96374 346.81378,388.14484 C 348.79625,389.49959 349.1645,392.0031 347.58076,393.35914 C 346.92553,393.92018 346.94344,393.97695 348.12924,395.09529 C 351.91332,398.66414 346.43652,404.50003 341.89932,401.73368 z M 285.89456,399.74267 L 284.39446,397.48313 L 285.26152,396.915 C 286.11623,396.35496 286.14927,396.37729 287.57813,398.48137 C 288.37535,399.65535 289.02764,400.7604 289.02764,400.93704 C 289.02764,401.11367 288.66022,401.42559 288.21118,401.6302 C 287.46451,401.9704 287.2664,401.80899 285.89456,399.74267 z M 172.14318,395.21599 C 168.98317,392.62812 165.94556,390.13092 165.39294,389.66667 C 164.53459,388.94556 164.44703,388.71258 164.79206,388.06787 C 165.01421,387.65279 165.41079,387.39561 165.67336,387.49637 C 165.93593,387.59713 169.15706,390.14012 172.83144,393.14747 C 179.19777,398.35809 179.48397,398.64648 178.91405,399.27624 C 178.58511,399.63972 178.21983,399.93352 178.10232,399.92915 C 177.98481,399.92478 175.30319,397.80385 172.14318,395.21599 z M 290.46764,396.66677 C 288.57357,393.88302 288.52344,393.74946 289.18966,393.26231 C 289.57105,392.98343 289.98954,392.75526 290.11964,392.75526 C 290.24974,392.75526 291.25678,394.10852 292.35746,395.76249 L 294.35876,398.76973 L 293.47177,399.17387 C 292.9839,399.39615 292.55199,399.5749 292.51191,399.5711 C 292.47181,399.56729 291.55188,398.26035 290.46764,396.66677 z M 295.04628,393.56322 C 292.84971,390.32471 292.71415,390.01493 293.23936,389.43366 C 293.55163,389.08803 293.91905,388.80525 294.05583,388.80525 C 294.19261,388.80525 295.39916,390.44935 296.73706,392.4588 C 299.00703,395.86817 299.1261,396.14418 298.51866,396.58837 C 298.16061,396.85017 297.76719,397.06436 297.64435,397.06436 C 297.5215,397.06436 296.35237,395.48885 295.04628,393.56322 z M 304.71415,396.18501 C 302.45212,395.37828 301.27035,394.18984 299.87535,391.31889 C 299.0433,389.60659 298.91478,388.89012 298.90917,385.93251 C 298.90199,382.16149 299.64083,379.89583 301.52534,377.90982 C 303.66808,375.65171 307.64747,374.62846 310.88288,375.50363 C 312.75846,376.01096 315.01564,378.04085 315.77307,379.90139 L 316.31465,381.23166 L 314.97003,381.60333 C 314.23052,381.80774 313.58441,381.85549 313.53424,381.70942 C 313.16976,380.64803 311.82371,378.98589 310.84575,378.38964 C 308.24812,376.80583 304.27039,378.03021 302.67314,380.90522 C 301.89197,382.31135 301.77541,382.96401 301.77541,385.93251 C 301.77541,388.90101 301.89197,389.55367 302.67314,390.9598 C 303.87229,393.11828 306.09098,394.30138 308.53514,394.0857 C 310.69425,393.89517 311.93384,393.00766 313.08681,390.82674 C 313.95104,389.19203 314.03144,389.13722 315.24136,389.35807 C 315.93262,389.48425 316.54983,389.63818 316.61296,389.70014 C 316.99298,390.0732 314.92105,393.69165 313.75677,394.68823 C 311.4597,396.65446 307.75149,397.26826 304.71415,396.18501 z M 134.7032,395.62912 C 134.05877,395.2362 133.25672,394.3385 132.92088,393.63423 C 132.39011,392.52119 132.37897,392.31025 132.83575,392.02135 C 133.72787,391.45709 134.15417,391.63534 134.62374,392.76898 C 135.15663,394.05548 135.9515,394.55072 137.48351,394.55072 C 139.59934,394.55072 141.01684,392.1333 140.0072,390.24677 C 139.57808,389.44495 137.48642,388.69167 136.61627,389.02558 C 136.12033,389.21589 136.0163,389.09928 136.1126,388.46101 C 136.19814,387.89412 136.64749,387.51512 137.63444,387.17744 C 139.76351,386.449 140.26898,385.11977 138.92716,383.77796 C 137.59084,382.44164 134.84952,383.26311 134.20636,385.19261 C 134.10077,385.50936 133.77752,385.58298 133.24058,385.41256 C 132.2209,385.08893 132.46399,384.04254 133.90295,382.5614 C 135.32995,381.09257 137.88934,380.85918 139.61766,382.04027 C 141.60013,383.39503 141.96838,385.89853 140.38465,387.25457 C 139.7294,387.81561 139.74734,387.87239 140.93312,388.99072 C 144.7172,392.55957 139.24039,398.39547 134.7032,395.62912 z M 319.90956,385.93251 L 319.90956,375.51884 L 321.34593,375.51884 L 322.7823,375.51884 L 322.7823,379.82795 L 322.7823,384.13705 L 328.16868,384.13705 L 333.55506,384.13705 L 333.55506,379.82795 L 333.55506,375.51884 L 334.99143,375.51884 L 336.4278,375.51884 L 336.4278,385.93251 L 336.4278,396.34618 L 334.99143,396.34618 L 333.55506,396.34618 L 333.55506,391.49844 L 333.55506,386.65069 L 328.16868,386.65069 L 322.7823,386.65069 L 322.7823,391.49844 L 322.7823,396.34618 L 321.34593,396.34618 L 319.90956,396.34618 L 319.90956,385.93251 z M 151.02275,390.08045 C 148.76073,389.27371 147.57896,388.08528 146.18393,385.21432 C 145.3519,383.50202 145.22339,382.78556 145.21776,379.82795 C 145.21059,376.05692 145.94942,373.79127 147.83394,371.80526 C 149.97667,369.54715 153.95605,368.52389 157.19149,369.39906 C 159.06705,369.90639 161.32423,371.93629 162.08167,373.79683 L 162.62324,375.1271 L 161.27864,375.49876 C 160.53911,375.70317 159.89301,375.75092 159.84285,375.60486 C 159.47836,374.54347 158.13229,372.88132 157.15437,372.28507 C 154.55672,370.70127 150.57897,371.92564 148.98174,374.80065 C 148.20055,376.20679 148.08401,376.85945 148.08401,379.82795 C 148.08401,382.79644 148.20055,383.44911 148.98174,384.85523 C 150.1809,387.01372 152.39957,388.19682 154.84374,387.98114 C 157.00287,387.7906 158.24242,386.90309 159.39541,384.72218 C 160.25964,383.08747 160.34004,383.03265 161.54996,383.2535 C 162.24122,383.37968 162.85843,383.53361 162.92154,383.59557 C 163.30156,383.96863 161.22965,387.58709 160.06537,388.58367 C 157.76828,390.54989 154.06008,391.16369 151.02275,390.08045 z M 113.07253,379.82795 L 113.07253,369.41427 L 114.50891,369.41427 L 115.94528,369.41427 L 115.94528,373.72338 L 115.94528,378.03249 L 121.33165,378.03249 L 126.71803,378.03249 L 126.71803,373.72338 L 126.71803,369.41427 L 128.15441,369.41427 L 129.59077,369.41427 L 129.59077,379.82795 L 129.59077,390.24162 L 128.15441,390.24162 L 126.71803,390.24162 L 126.71803,385.39387 L 126.71803,380.54613 L 121.33165,380.54613 L 115.94528,380.54613 L 115.94528,385.39387 L 115.94528,390.24162 L 114.50891,390.24162 L 113.07253,390.24162 L 113.07253,379.82795 z"
       id="path2453"
       style="fill:#000000" />
  </g>
</svg>
