<?xml version="1.0" encoding="utf-8"?>
<!-- Generator: Adobe Illustrator 27.0.0, SVG Export Plug-In . SVG Version: 6.00 Build 0)  -->
<svg version="1.1" id="Слой_1" xmlns="http://www.w3.org/2000/svg" xmlns:xlink="http://www.w3.org/1999/xlink" x="0px" y="0px"
	 viewBox="0 0 648.03 599.62" style="enable-background:new 0 0 648.03 599.62;" xml:space="preserve">
<style type="text/css">
	.st0{fill:none;}
</style>
<path class="st0" d="z"/>
<g>
	<polygon points="119.8,527.61 134.84,550.11 138.72,550.11 138.72,521.48 135.09,521.48 135.09,543.96 120.05,521.48 
		116.17,521.48 116.17,550.11 119.8,550.11 	"/>
	<polygon points="134.99,568.57 120.11,568.57 120.11,556.82 116.32,556.82 116.32,585.45 120.11,585.45 120.11,571.95 
		134.99,571.95 134.99,585.45 138.78,585.45 138.78,556.82 134.99,556.82 	"/>
	<rect x="84.99" y="442.65" transform="matrix(0.866 -0.5 0.5 0.866 -207.4773 113.3632)" width="45.63" height="2.4"/>
	<path d="M35.03,522.87c-2.12-1.26-4.51-1.89-7.15-1.89c-4.04,0-7.33,1.34-9.88,4.04c-2.55,2.69-3.83,6.41-3.83,11.16
		c0,2.52,0.55,4.9,1.64,7.15c1.09,2.25,2.7,4.03,4.82,5.33c2.12,1.3,4.53,1.95,7.23,1.95c2.49,0,4.8-0.59,6.95-1.77
		c2.15-1.18,3.81-2.91,4.98-5.21c1.17-2.29,1.76-4.89,1.76-7.79c0-2.86-0.56-5.43-1.67-7.68C38.77,525.89,37.16,524.13,35.03,522.87
		z M34.89,544.35c-1.84,2.01-4.19,3.01-7.04,3.01c-2.8,0-5.13-0.99-6.98-2.98c-1.86-1.99-2.78-4.7-2.78-8.16
		c0-4.31,0.97-7.39,2.9-9.23c1.93-1.84,4.24-2.77,6.92-2.77c1.89,0,3.59,0.48,5.11,1.44s2.67,2.3,3.46,4.04s1.18,3.77,1.18,6.1
		C37.65,539.5,36.73,542.35,34.89,544.35z"/>
	<path d="M353.97,260.46c2.12,1.3,4.53,1.95,7.23,1.95c2.48,0,4.8-0.59,6.95-1.77s3.81-2.91,4.98-5.21s1.76-4.89,1.76-7.79
		c0-2.87-0.56-5.43-1.67-7.69s-2.73-4.02-4.85-5.28c-2.12-1.26-4.51-1.89-7.15-1.89c-4.04,0-7.33,1.34-9.88,4.03
		c-2.55,2.69-3.83,6.41-3.83,11.16c0,2.51,0.55,4.9,1.64,7.15S351.85,259.16,353.97,260.46z M354.31,238.81
		c1.93-1.84,4.24-2.76,6.93-2.76c1.89,0,3.59,0.48,5.11,1.44c1.52,0.96,2.67,2.3,3.46,4.04c0.79,1.74,1.18,3.77,1.18,6.1
		c0,3.69-0.92,6.53-2.77,8.54c-1.84,2.01-4.19,3.01-7.04,3.01c-2.8,0-5.13-0.99-6.98-2.98s-2.78-4.7-2.78-8.15
		C351.42,243.73,352.38,240.66,354.31,238.81z"/>
	<polygon points="463.54,286.6 448.51,264.12 444.62,264.12 444.62,292.76 448.25,292.76 448.25,270.26 463.29,292.76 
		467.18,292.76 467.18,264.12 463.54,264.12 	"/>
	<polygon points="492.33,275.88 477.45,275.88 477.45,264.12 473.66,264.12 473.66,292.76 477.45,292.76 477.45,279.26 
		492.33,279.26 492.33,292.76 496.12,292.76 496.12,264.12 492.33,264.12 	"/>
	<path d="M437,283.58l-0.5-2.35l-30.54,6.49l-25.92-28.78l-1.78,1.61l24.99,27.75l-9,1.91l-21.91-24.33l-1.78,1.61l22.47,24.96
		l-12.16,51.69l-52.43,17.04l4.66-55.9h-12l4.62,55.42l-48.5-28l-51.08,29.49v57.6l-47.3,27.31l4.62-55.42h-12l4.62,55.42l-48.5-28
		l-51.08,29.49v51.61l-33.92,19.59l1.2,2.08l32.72-18.89v4.6l3.98,2.3l-32.72,18.89l1.2,2.08l33.92-19.59l23.79,13.73l1.2-2.08
		l-28.97-16.73v-56.21l48.68-28.11l48.68,28.11v56.21l-29.19,16.85l1.2,2.08l29.19-16.85l49.88,28.8l51.08-29.49v-57.6l48.82-28.19
		l55.1,17.9l34.88-48.01l-33.97-46.76l22.99-54.79L437,283.58z M227.33,534.28l-48.68-28.11v-56.21l48.68-28.11l48.68,28.11v56.21
		L227.33,534.28z M278.7,447.02l4.51-34.64h-12l4.51,34.64l-47.19-27.25v-56.21l48.68-28.11l48.68,28.11v56.21L278.7,447.02z
		 M414.25,391.67l-32.83,45.19l-53.12-17.26v-55.86l53.12-17.26L414.25,391.67z"/>
	<polygon points="184.88,562.04 169.99,562.04 169.99,550.28 166.21,550.28 166.21,578.91 169.99,578.91 169.99,565.42 
		184.88,565.42 184.88,578.91 188.67,578.91 188.67,550.28 184.88,550.28 	"/>
	<polygon points="171.45,543.78 183.45,543.78 183.02,541.38 171.87,541.38 	"/>
	<polygon points="173.63,531.54 181.26,531.54 180.83,529.14 174.06,529.14 	"/>
	<polygon points="176.25,516.9 175.82,519.3 179.07,519.3 178.65,516.9 	"/>
	<polygon points="284.64,389.24 269.76,389.24 269.76,377.48 265.97,377.48 265.97,406.11 269.76,406.11 269.76,392.62 
		284.64,392.62 284.64,406.11 288.43,406.11 288.43,377.48 284.64,377.48 	"/>
	<polygon points="334.53,475.64 319.64,475.64 319.64,463.88 315.85,463.88 315.85,492.51 319.64,492.51 319.64,479.01 
		334.53,479.01 334.53,492.51 338.31,492.51 338.31,463.88 334.53,463.88 	"/>
	<polygon points="321.09,457.38 333.09,457.38 332.67,454.98 321.52,454.98 	"/>
	<polygon points="323.28,445.14 330.91,445.14 330.48,442.74 323.71,442.74 	"/>
	<polygon points="325.89,430.5 325.47,432.9 328.72,432.9 328.29,430.5 	"/>
	<polygon points="234.76,475.64 219.88,475.64 219.88,463.88 216.09,463.88 216.09,492.51 219.88,492.51 219.88,479.01 
		234.76,479.01 234.76,492.51 238.55,492.51 238.55,463.88 234.76,463.88 	"/>
	<polygon points="232.9,454.98 221.76,454.98 221.33,457.38 233.33,457.38 	"/>
	<polygon points="230.71,442.74 223.94,442.74 223.51,445.14 231.14,445.14 	"/>
	<polygon points="228.53,430.5 226.13,430.5 225.7,432.9 228.96,432.9 	"/>
	<rect x="477.02" y="206.2" transform="matrix(0.9782 -0.2075 0.2075 0.9782 -32.1579 108.2329)" width="45.63" height="2.4"/>
	<rect x="519.78" y="119.5" transform="matrix(0.7432 -0.6691 0.6691 0.7432 38.5692 385.1113)" width="2.4" height="45.63"/>
	<rect x="431.22" y="155.34" transform="matrix(0.3092 -0.951 0.951 0.3092 164.7772 539.9227)" width="45.63" height="2.4"/>
	<polygon points="541.96,323.59 545.75,323.59 545.75,310.58 559.19,310.58 559.19,307.2 545.75,307.2 545.75,298.33 561.28,298.33 
		561.28,294.95 541.96,294.95 	"/>
	<polygon points="633.86,261.35 633.86,257.97 614.54,257.97 614.54,286.61 618.33,286.61 618.33,273.6 631.77,273.6 631.77,270.22 
		618.33,270.22 618.33,261.35 	"/>
	<polygon points="606.35,217.26 619.79,217.26 619.79,213.88 606.35,213.88 606.35,205.01 621.88,205.01 621.88,201.63 
		602.56,201.63 602.56,230.26 606.35,230.26 	"/>
	<path d="M595.45,231.89l-1.61-1.78l-25.06,22.57l-37.28-41.4l17.8-54.78l-39.47-43.83l-56.34,11.97l-37.61-41.77l10.54-32.44
		l-2.28-0.74l-10.38,31.96l-39.77-12.92l-0.74,2.28l38.93,12.65l-23.78,21.41l1.61,1.78l24.43-22l37.28,41.4l-17.8,54.78l38.54,42.8
		l-10.34,31.83l2.28,0.74l10.34-31.83l54.99-11.69l37.61,41.78l-10.43,32.12l2.28,0.74l10.28-31.64l36.2,11.76l0.74-2.28
		l-35.36-11.49L595.45,231.89z M474.24,222.21l-37.62-41.77L454,126.98l54.99-11.69l37.61,41.78l-17.37,53.46L474.24,222.21z"/>
	<polygon points="427.18,29.8 440.62,29.8 440.62,26.42 427.18,26.42 427.18,17.55 442.71,17.55 442.71,14.17 423.39,14.17 
		423.39,42.81 427.18,42.81 	"/>
	<polygon points="354.6,66.78 368.04,66.78 368.04,63.4 354.6,63.4 354.6,54.53 370.13,54.53 370.13,51.15 350.81,51.15 
		350.81,79.79 354.6,79.79 	"/>
	<polygon points="382.11,110.87 382.11,107.5 362.79,107.5 362.79,136.13 366.58,136.13 366.58,123.12 380.02,123.12 380.02,119.74 
		366.58,119.74 366.58,110.87 	"/>
</g>
<path class="st0" d="z"/>
</svg>
