<?xml version="1.0" encoding="utf-8"?>
<!-- Generator: Adobe Illustrator 19.2.1, SVG Export Plug-In . SVG Version: 6.00 Build 0)  -->
<svg version="1.1" id="Слой_1" xmlns="http://www.w3.org/2000/svg" xmlns:xlink="http://www.w3.org/1999/xlink" x="0px" y="0px"
	 viewBox="0 0 543.9 749.8" style="enable-background:new 0 0 543.9 749.8;" xml:space="preserve">
<style type="text/css">
	.st0{fill:#808080;}
</style>
<g>
	<rect x="134.4" y="252.1" width="2.4" height="45.6"/>
	<rect x="172" y="307.9" transform="matrix(0.8663 -0.4995 0.4995 0.8663 -128.3525 138.6518)" width="45.6" height="2.4"/>
	<rect x="193.6" y="217.8" transform="matrix(0.5 -0.866 0.866 0.5 -110.9928 289.0441)" width="2.4" height="45.6"/>
	<path d="M42.8,352.6l33.1-19.1l49.3-28.5l49.3,28.5l0.6,0.3l0.6-0.3l49.4-28.5l54.3,17.6l0.8,0.3l0.5-0.7l1.2-1.6l21.3-29.3
		l-1.9-1.4l-22,30.2l-53.1-17.3v-55.9l53.1-17.3l21,28.9l1.9-1.4l-21.4-29.5l-24.5-56l23.6-40.8l1-1.7l0.3-0.6l-0.3-0.6l-1-1.7
		L252,78l-0.3-0.6h-0.7h-2H194l-22-38.2l-2.1,1.2l22,38.2l-27.5,47.6l-1,1.7l-0.3,0.6l0.3,0.6l1,1.7l27.8,48.2l0.3,0.6h0.7h2h47.1
		l35.4,48.1l-52.7,17.1l-47.7-27.5l-1.7-1l-0.6-0.3l-0.6,0.3l-1.7,1L126.3,244l0,0l-1.7,1l-0.6,0.3v0.7v2V303l-49.3,28.5l-33.1,19.1
		L42.8,352.6z M193.3,78.6L193.3,78.6L193.3,78.6L193.3,78.6z M195.3,177.2H194l-0.7-1.1l-27.5-47.6L194,79.8h54.9h1.3l0.7,1.1
		l27.5,47.6l-28.1,48.7H195.3z M126.4,248.1v-1.3l1.1-0.7l0,0l47.6-27.5l48.7,28.1V303l-47.6,27.5l0,0l-1.1,0.7l-1.1-0.7l0,0
		L126.4,303V248.1z M125.2,303.7L125.2,303.7L125.2,303.7L125.2,303.7z"/>
	<rect x="34.5" y="331.8" transform="matrix(0.8663 -0.4996 0.4996 0.8663 -159.2223 71.3064)" width="38.2" height="2.4"/>
	<rect x="44.8" y="349.8" transform="matrix(0.866 -0.5 0.5 0.866 -166.9325 78.9941)" width="38.2" height="2.4"/>
	<polygon points="285.9,226.9 284,223.6 282,225.1 283.6,227.9 	"/>
	<polygon points="330.1,207.5 322.9,195 321,196.5 327.9,208.5 	"/>
	<polygon points="294.7,223 291.8,217.9 289.8,219.4 292.5,224 	"/>
	<polygon points="321.3,211.4 315.1,200.7 313.2,202.2 319,212.3 	"/>
	<polygon points="312.4,215.3 307.3,206.5 305.4,207.9 310.2,216.2 	"/>
	<polygon points="303.6,219.1 299.6,212.2 297.6,213.6 301.3,220.1 	"/>
	<rect x="255.2" y="85.9" transform="matrix(0.8663 -0.4996 0.4996 0.8663 -20.0435 142.6087)" width="2.4" height="45.6"/>
	<rect x="165.1" y="107.5" transform="matrix(0.5 -0.866 0.866 0.5 -0.2193 217.1058)" width="45.6" height="2.4"/>
	<rect x="199.3" y="166.8" width="45.6" height="2.4"/>
	<rect x="493.5" y="207.8" transform="matrix(0.8663 -0.4995 0.4995 0.8663 -35.8735 284.0151)" width="38.2" height="2.4"/>
	<rect x="478.1" y="248.3" width="2.4" height="37.6"/>
	<path d="M313.6,289.2c8,0,13-5.6,13-14.6s-5-14.6-13-14.6c-8,0-13,5.6-13,14.6S305.6,289.2,313.6,289.2z M313.6,263.3
		c5.8,0,9.4,4.4,9.4,11.3c0,6.9-3.6,11.3-9.4,11.3c-5.8,0-9.4-4.4-9.4-11.3C304.2,267.7,307.8,263.3,313.6,263.3z"/>
	<polygon points="17.6,352.8 17.8,352.8 33.2,374.9 36.7,374.9 36.7,346.7 33.2,346.7 33.2,368.8 33,368.8 17.6,346.7 14.2,346.7 
		14.2,374.9 17.6,374.9 	"/>
	<polygon points="159.5,30.2 172,30.2 172,27 159.5,27 159.5,17.3 173.1,17.3 173.1,14.2 156,14.2 156,42.4 159.5,42.4 	"/>
	<polygon points="431.7,199.4 430,198.4 429.4,198.1 428.8,198.4 427,199.4 427,199.4 380.6,226.2 380.6,226.2 379.5,226.9 
		378.4,226.2 378.4,226.2 330.2,198.4 329,200.5 377.2,228.3 378.9,229.3 379.5,229.7 380.1,229.3 429.4,200.9 461.9,219.6 
		463.1,217.5 431.7,199.4 	"/>
	<polygon points="487,235.8 486.9,235.8 471.4,213.7 468,213.7 468,241.9 471.5,241.9 471.5,219.8 471.7,219.8 487.1,241.9 
		490.5,241.9 490.5,213.7 487,213.7 	"/>
	<rect x="134.4" y="612.8" width="2.4" height="45.6"/>
	<rect x="172" y="668.6" transform="matrix(0.8663 -0.4996 0.4996 0.8663 -308.5779 186.9005)" width="45.6" height="2.4"/>
	<rect x="193.6" y="578.6" transform="matrix(0.5 -0.866 0.866 0.5 -423.4179 469.4229)" width="2.4" height="45.6"/>
	<rect x="34.5" y="692.6" transform="matrix(0.866 -0.5 0.5 0.866 -339.7224 119.7372)" width="38.2" height="2.4"/>
	<rect x="44.8" y="710.6" transform="matrix(0.8663 -0.4996 0.4996 0.8663 -347.0171 127.1195)" width="38.2" height="2.4"/>
	<polygon points="263.8,549.7 262.8,547.5 252.2,553.6 253.6,555.6 	"/>
	<polygon points="271.6,567.4 270.6,565.2 263.7,569.2 265.1,571.1 	"/>
	<polygon points="279.3,585.1 278.3,582.9 275.1,584.8 276.5,586.7 	"/>
	<polygon points="275.4,576.3 274.5,574 269.4,577 270.8,578.9 	"/>
	<polygon points="267.7,558.6 266.7,556.3 257.9,561.4 259.4,563.4 	"/>
	<polygon points="246.5,545.8 247.9,547.8 259.9,540.9 259,538.6 	"/>
	<rect x="255.2" y="446.7" transform="matrix(0.866 -0.5 0.5 0.866 -200.4059 191.077)" width="2.4" height="45.6"/>
	<rect x="165.1" y="468.3" transform="matrix(0.5 -0.866 0.866 0.5 -312.6449 397.4846)" width="45.6" height="2.4"/>
	<rect x="199.3" y="527.6" width="45.6" height="2.4"/>
	<rect x="493.5" y="568.6" transform="matrix(0.8663 -0.4995 0.4995 0.8663 -216.0874 332.2503)" width="38.2" height="2.4"/>
	<rect x="478.1" y="609" width="2.4" height="37.6"/>
	<path d="M313.6,620.8c-8,0-13,5.6-13,14.6c0,8.9,5,14.6,13,14.6c8,0,13-5.6,13-14.6C326.6,626.5,321.6,620.8,313.6,620.8z
		 M313.6,646.7c-5.8,0-9.4-4.4-9.4-11.3c0-7,3.6-11.3,9.4-11.3c5.8,0,9.4,4.4,9.4,11.3C323,642.3,319.3,646.7,313.6,646.7z"/>
	<polygon points="33.2,729.6 33,729.6 17.6,707.5 14.2,707.5 14.2,735.6 17.6,735.6 17.6,713.6 17.8,713.6 33.2,735.6 36.7,735.6 
		36.7,707.5 33.2,707.5 	"/>
	<path d="M279.8,491.6l1-1.7l0.3-0.6l-0.3-0.6l-1-1.7L252,438.8l-0.3-0.6h-0.7h-2H194L172,400l-2.1,1.2l22,38.2l-27.5,47.6l-1,1.7
		l-0.3,0.6l0.3,0.6l1,1.7l0,0l27.8,48.2l0.3,0.6h0.7h2h53.6h2l0.7,0l0.3-0.6L279.8,491.6L279.8,491.6z M193.3,439.4L193.3,439.4
		L193.3,439.4L193.3,439.4z M250.2,537.9h-1.3h-53.6H194l-28.1-48.7l28.1-48.7h54.9h1.3l28.1,48.7L250.2,537.9z"/>
	<path d="M430,559.2l-0.6-0.3l-0.6,0.3l-1.7,1L380.6,587l0,0l-1.1,0.7l-1.1-0.7l0,0l-41.6-24l-13.2-7.6l-44.4,32.6l-54.1,17.6
		L177.4,578l0,0l-1.7-1l-0.6-0.3l-0.6,0.3l-1.7,1l0,0l-48.2,27.8l-0.6,0.3v0.7v2v54.9l-49.3,28.5l-33.1,19.1l1.2,2.1l33.1-19.1
		l49.3-28.5l47.6,27.5l1.7,1l0.6,0.3l0.6-0.3l1.7-1l47.7-27.5l54.3,17.6l0.8,0.3l0.5-0.7l1.2-1.6l0,0l21.3-29.3l-1.9-1.4l-22,30.2
		l-1.1-0.3v0l-52-16.9v-55.9l53.1-17.3l21,28.9l1.9-1.4l-20.6-28.4l52.6-25.2l43,24.8l0,0l1.7,1l0.6,0.3l0.6-0.3l1.7-1l0,0
		l47.6-27.5l1.1,0.7l31.4,18.1l1.2-2.1l-31.4-18.1L430,559.2z M223.7,663.7l-48.7,28.1l-48.7-28.1v-54.9v-1.3l1.1-0.7l0,0l46.4-26.8
		l0,0l1.1-0.7l1.1,0.7l0,0l47.6,27.5V663.7z"/>
	<polygon points="487,596.6 486.9,596.6 471.4,574.5 468,574.5 468,602.6 471.5,602.6 471.5,580.6 471.7,580.6 487.1,602.6 
		490.5,602.6 490.5,574.5 487,574.5 	"/>
	<polygon points="173.1,378.1 173.1,374.9 156,374.9 156,403.1 159.5,403.1 159.5,390.9 172,390.9 172,387.8 159.5,387.8 
		159.5,378.1 	"/>
</g>
<g>
	<path class="st0" d="M257.3,272.5h2c-1.1-1.8-2-3.5-2.6-5.1s-1.1-3-1.4-4.5s-0.5-3-0.5-4.5c0-2.3,0.3-4.6,1-6.8
		c0.7-2.2,1.8-4.6,3.4-7.3h-2c-1.7,2.2-3,4.5-3.9,6.9s-1.3,4.8-1.3,7.2c0,2.3,0.4,4.7,1.3,7.1C254.3,268,255.6,270.3,257.3,272.5z"
		/>
	<path class="st0" d="M271.5,245.8h-7.4l-4.6,21.5h2.8l2-9.3h2.6c1,0,1.8,0.1,2.3,0.4c0.6,0.3,1,0.7,1.3,1.3
		c0.3,0.6,0.7,1.6,1.1,2.9l1.3,4.6h3.1l-1.6-5.4c-0.3-1-0.6-1.8-0.8-2.4s-0.5-1-0.8-1.3c-0.2-0.3-0.5-0.5-0.9-0.6l0-0.1
		c1.4-0.3,2.6-0.7,3.5-1.3c0.9-0.6,1.6-1.4,2.1-2.2s0.7-1.8,0.7-2.7c0-1.8-0.5-3.2-1.6-4.1C275.6,246.2,273.9,245.8,271.5,245.8z
		 M274.6,253.5c-0.4,0.6-1,1.1-1.9,1.4s-1.8,0.5-2.9,0.5h-4.9l1.5-7.1h5c1.3,0,2.2,0.2,2.9,0.7c0.6,0.5,0.9,1.3,0.9,2.4
		C275.2,252.2,275,252.9,274.6,253.5z"/>
	<path class="st0" d="M278.9,272.5l2,0c1.7-2.2,3-4.5,3.9-6.9c0.9-2.4,1.3-4.8,1.3-7.1c0-2.4-0.4-4.8-1.3-7.2s-2.2-4.7-3.9-6.9h-2
		c1.6,2.7,2.7,5.1,3.4,7.3c0.7,2.2,1.1,4.5,1.1,6.7c0,2.3-0.4,4.6-1.1,6.8C281.7,267.4,280.5,269.8,278.9,272.5z"/>
	<path class="st0" d="M259.6,605.1h-2c-1.7,2.2-3,4.5-3.9,6.9s-1.3,4.8-1.3,7.2c0,2.3,0.4,4.7,1.3,7.1c0.9,2.4,2.2,4.7,3.9,6.9h2
		c-1.1-1.8-2-3.5-2.6-5.1s-1.1-3-1.4-4.5s-0.5-3-0.5-4.5c0-2.3,0.3-4.6,1-6.8C256.8,610.2,258,607.8,259.6,605.1z"/>
	<path class="st0" d="M267.7,609.1c0.8-0.3,1.7-0.5,2.7-0.5c1.5,0,2.7,0.4,3.4,1.1c0.7,0.7,1.1,1.8,1.2,3.3l2.8-0.6
		c-0.2-2.1-0.8-3.6-2-4.7c-1.2-1-2.9-1.5-5.2-1.5c-1.7,0-3.1,0.3-4.3,0.9s-2.1,1.3-2.8,2.3s-1,2-1,3.1c0,1,0.2,1.8,0.5,2.5
		s0.9,1.3,1.7,1.8s1.9,0.9,3.3,1.2c1.5,0.4,2.7,0.7,3.5,1s1.4,0.7,1.7,1.2s0.5,1,0.5,1.8c0,0.8-0.2,1.5-0.7,2.1
		c-0.4,0.6-1.1,1.1-2,1.4s-1.9,0.5-3.2,0.5c-1.7,0-3-0.4-3.9-1.3c-0.8-0.9-1.3-2.2-1.4-4l-2.9,0.6c0.1,2.2,0.8,3.9,2.1,5.2
		c1.3,1.2,3.3,1.9,5.9,1.9c1.5,0,3-0.2,4.3-0.7c1.3-0.5,2.4-1.2,3.2-2.2c0.8-1,1.2-2.2,1.2-3.7c0-1.1-0.2-2.1-0.6-2.8
		s-1.1-1.4-2.2-2c-1-0.6-2.4-1.1-4.2-1.6c-1.1-0.3-1.9-0.5-2.5-0.8s-1-0.5-1.3-0.8c-0.3-0.3-0.5-0.8-0.5-1.3c0-0.7,0.2-1.4,0.6-2
		C266.3,609.9,266.9,609.4,267.7,609.1z"/>
	<path class="st0" d="M280.7,605.1h-2c1.6,2.7,2.7,5.1,3.4,7.3c0.7,2.2,1.1,4.5,1.1,6.7c0,2.3-0.4,4.6-1.1,6.8
		c-0.7,2.2-1.9,4.6-3.4,7.3l2,0c1.7-2.2,3-4.5,3.9-6.9c0.9-2.4,1.3-4.8,1.3-7.1c0-2.4-0.4-4.8-1.3-7.2S282.4,607.4,280.7,605.1z"/>
</g>
</svg>
